<svg xmlns="http://www.w3.org/2000/svg" version="1.2" viewBox="0 0 1024 1024">
  <path d="M472.5 520.5L144.5 520.5" stroke-width="3" stroke="black" fill="none" fill-opacity="1"></path>
  <path d="M880.5 520.5L552.5 520.5" stroke-width="3" stroke="black" fill="none" fill-opacity="1"></path>
  <path d="M472.5 480.5L552.5 480.5L552.5 560.5L472.5 560.5L472.5 480.5Z" stroke-width="1" stroke="black" fill="none" fill-opacity="1"></path>
  <path d="M912.5 480.5L992.5 480.5L992.5 560.5L912.5 560.5L912.5 480.5Z" stroke-width="1" stroke="black" fill="none" fill-opacity="1"></path>
  <path d="M32.5 480.5L112.5 480.5L112.5 560.5L32.5 560.5L32.5 480.5Z" stroke-width="1" stroke="black" fill="none" fill-opacity="1"></path>
  <path d="M168.5 416.5L248.5 416.5L248.5 496.5L168.5 496.5L168.5 416.5Z" stroke-width="1" stroke="black" fill="none" fill-opacity="1"></path>
  <path d="M776.5 416.5L856.5 416.5L856.5 496.5L776.5 496.5L776.5 416.5Z" stroke-width="1" stroke="black" fill="none" fill-opacity="1"></path>
  <path d="M168.5 544.5L248.5 544.5L248.5 624.5L168.5 624.5L168.5 544.5Z" stroke-width="1" stroke="black" fill="none" fill-opacity="1"></path>
  <path d="M776.5 544.5L856.5 544.5L856.5 624.5L776.5 624.5L776.5 544.5Z" stroke-width="1" stroke="black" fill="none" fill-opacity="1"></path>
  <path d="M472.5 584.5L552.5 584.5L552.5 664.5L472.5 664.5L472.5 584.5Z" stroke-width="1" stroke="black" fill="none" fill-opacity="1"></path>
  <path d="M472.5 376.5L552.5 376.5L552.5 456.5L472.5 456.5L472.5 376.5Z" stroke-width="1" stroke="black" fill="none" fill-opacity="1"></path>
  <text x="513" y="543.5" text-anchor="middle" font-size="60" font-family="Arial" font-weight="bold" stroke-width="2" stroke="none" fill="black">B</text>
  <text x="515" y="438.5" text-anchor="middle" font-size="60" font-family="Arial" font-weight="bold" stroke-width="2" stroke="none" fill="black">H1</text>
  <text x="512" y="645.5" text-anchor="middle" font-size="60" font-family="Arial" font-weight="bold" stroke-width="2" stroke="none" fill="black">H2</text>
  <text x="207" y="481" text-anchor="middle" font-size="60" font-family="Arial" font-weight="bold" stroke-width="2" stroke="none" fill="black">T</text>
  <text x="816" y="481" text-anchor="middle" font-size="60" font-family="Arial" font-weight="bold" stroke-width="2" stroke="none" fill="black">T</text>
  <text x="208" y="608" text-anchor="middle" font-size="60" font-family="Arial" font-weight="bold" stroke-width="2" stroke="none" fill="black">W</text>
  <text x="817" y="608" text-anchor="middle" font-size="60" font-family="Arial" font-weight="bold" stroke-width="2" stroke="none" fill="black">W</text>
  <text x="73" y="543.5" text-anchor="middle" font-size="60" font-family="Arial" font-weight="bold" stroke-width="2" stroke="none" fill="black">N</text>
  <text x="953" y="543.5" text-anchor="middle" font-size="60" font-family="Arial" font-weight="bold" stroke-width="2" stroke="none" fill="black">N</text>
</svg>
