<svg viewBox="0 0 1024 1024">
  <g>
    <path d="M0 200C0 89.543 89.543 0 200 0C310.457 0 400 89.543 400 200C400 310.457 310.457 400 200 400C89.543 400 0 310.457 0 200Z" transform="translate(312 312)" fill="none" stroke="#000000" stroke-width="20" />
    <path d="M0 50C0 22.3858 22.3858 0 50 0C77.6142 0 100 22.3858 100 50C100 77.6142 77.6142 100 50 100C22.3858 100 0 77.6142 0 50Z" transform="translate(462 462)" fill="#000000" stroke="#000000" stroke-width="20" />
    <path d="M0 1L208 1" transform="translate(40 503)" fill="none" stroke="#000000" stroke-width="20" />
    <path d="M0 1L208 1" transform="translate(776 503)" fill="none" stroke="#000000" stroke-width="20" />
  </g>
</svg>
