<svg xmlns="http://www.w3.org/2000/svg" version="1.2" viewBox="0 0 1024 1024">
  <g>
    <path d="M1 150L1 0" transform="translate(31 438)" fill="none" stroke="#000000" stroke-width="20" />
    <path d="M1 150L1 0" transform="translate(991 438)" fill="none" stroke="#000000" stroke-width="20" />
    <path d="M960 1L0 1" transform="translate(32 511)" fill="none" stroke="#000000" stroke-width="20" />
    <g transform="translate(401 521)">
      <path d="M14.0625 39.1201L31.2012 39.1201L94.2188 138.964L94.2188 39.1201L110.479 39.1201L110.479 167.968L93.4277 167.968L30.0586 68.5635L30.0586 167.968L14.0625 167.968L14.0625 39.1201ZM122.256 98.9736Q122.256 83.417 131.001 74.1885Q139.746 64.96 154.16 64.96Q168.486 64.96 177.056 74.4521Q185.625 83.9443 185.625 100.028Q185.625 116.288 176.792 125.78Q167.959 135.272 153.457 135.272Q140.977 135.272 131.616 126.703Q122.256 118.134 122.256 98.9736ZM137.637 99.501Q137.637 111.278 142.339 117.255Q147.041 123.231 153.896 123.231Q160.312 123.231 165.278 117.475Q170.244 111.718 170.244 100.028Q170.244 87.7236 165.103 82.2305Q159.961 76.7373 153.809 76.7373Q147.217 76.7373 142.427 82.4502Q137.637 88.1631 137.637 99.501ZM123.926 144.589L183.779 144.589L183.779 157.597L123.926 157.597L123.926 144.589Z" />
    </g>
  </g>
</svg>
