<svg viewBox="0 0 1024 1024">
  <g>
    <path d="M0 0L350 0L350 500L0 500L0 0Z" transform="translate(337 359)" fill="none" stroke="#000000" stroke-width="20" />
    <g transform="translate(426.9999 165)">
      <path d="M12.5 34.7734L27.7344 34.7734L83.75 123.523L83.75 34.7734L98.2031 34.7734L98.2031 149.305L83.0469 149.305L26.7188 60.9453L26.7188 149.305L12.5 149.305L12.5 34.7734ZM108.672 87.9766Q108.672 74.1484 116.445 65.9453Q124.219 57.7422 137.031 57.7422Q149.766 57.7422 157.383 66.1797Q165 74.6172 165 88.9141Q165 103.367 157.148 111.805Q149.297 120.242 136.406 120.242Q125.312 120.242 116.992 112.625Q108.672 105.008 108.672 87.9766ZM122.344 88.4453Q122.344 98.9141 126.523 104.227Q130.703 109.539 136.797 109.539Q142.5 109.539 146.914 104.422Q151.328 99.3047 151.328 88.9141Q151.328 77.9766 146.758 73.0938Q142.188 68.2109 136.719 68.2109Q130.859 68.2109 126.602 73.2891Q122.344 78.3672 122.344 88.4453ZM110.156 128.523L163.359 128.523L163.359 140.086L110.156 140.086L110.156 128.523Z" />
    </g>
  </g>
</svg>
