<svg xmlns="http://www.w3.org/2000/svg" version="1.2" viewBox="0 0 1024 1024">
  <g>
    <path d="M0 18C0 8.05887 8.05887 0 18 0C27.9411 0 36 8.05887 36 18C36 27.9411 27.9411 36 18 36C8.05887 36 0 27.9411 0 18Z" transform="translate(167 483.999)" fill="#000000" stroke="none" />
    <path d="M0 18C0 8.05887 8.05887 0 18 0C27.9411 0 36 8.05887 36 18C36 27.9411 27.9411 36 18 36C8.05887 36 0 27.9411 0 18Z" transform="translate(385 483)" fill="#000000" stroke="none" />
    <path d="M0 1L104 1" transform="translate(242 500)" fill="none" stroke="#000000" stroke-width="20" />
    <path d="M0 1L104 1" transform="translate(24 500)" fill="none" stroke="#000000" stroke-width="20" />
    <path d="M0 1L104 1" transform="translate(460 500)" fill="none" stroke="#000000" stroke-width="20" />
    <path d="M0 1L104 1" transform="translate(677.9999 500)" fill="none" stroke="#000000" stroke-width="20" />
    <path d="M0 1L104 1" transform="translate(896 500)" fill="none" stroke="#000000" stroke-width="20" />
    <path d="M0 18C0 8.05887 8.05887 0 18 0C27.9411 0 36 8.05887 36 18C36 27.9411 27.9411 36 18 36C8.05887 36 0 27.9411 0 18Z" transform="translate(603 483)" fill="#000000" stroke="none" />
    <path d="M0 18C0 8.05887 8.05887 0 18 0C27.9411 0 36 8.05887 36 18C36 27.9411 27.9411 36 18 36C8.05887 36 0 27.9411 0 18Z" transform="translate(821 483)" fill="#000000" stroke="none" />
  </g>
</svg>
