<svg viewBox="0 0 1024 1024">
  <g>
    <path d="M0 85C0 38.0558 38.0558 0 85 0C131.944 0 170 38.0558 170 85C170 131.944 131.944 170 85 170C38.0558 170 0 131.944 0 85Z" transform="translate(139.0002 427)" fill="#000000" stroke="none" />
    <path d="M0 85C0 38.0558 38.0558 0 85 0C131.944 0 170 38.0558 170 85C170 131.944 131.944 170 85 170C38.0558 170 0 131.944 0 85Z" transform="translate(427.0005 427)" fill="#000000" stroke="none" />
    <path d="M0 85C0 38.0558 38.0558 0 85 0C131.944 0 170 38.0558 170 85C170 131.944 131.944 170 85 170C38.0558 170 0 131.944 0 85Z" transform="translate(714.9995 427)" fill="#000000" stroke="none" />
    <path d="M0 0L944 0L944 312L0 312L0 0Z" transform="translate(40 356)" fill="none" stroke="#000000" stroke-width="20" />
  </g>
</svg>
