<svg xmlns="http://www.w3.org/2000/svg" version="1.2" viewBox="0 0 1024 1024">
  <g>
    <path d="M0 1L536 1" transform="translate(464 503)" fill="none" stroke="#000000" stroke-width="20" />
    <g transform="translate(0 401)">
      <path d="M13.8867 39.1201L13.8867 167.968L30.9375 167.968L30.9375 115.585L63.9844 115.585Q91.3184 115.585 101.777 104.203Q112.236 92.8213 112.236 76.3857Q112.236 66.8057 108.325 58.8076Q104.414 50.8096 97.998 46.3711Q91.582 41.9326 82.0898 40.3506Q75.3223 39.1201 62.4902 39.1201L13.8867 39.1201ZM133.242 39.1201L133.242 167.968L213.75 167.968L213.75 152.763L150.293 152.763L150.293 39.1201L133.242 39.1201ZM284.063 167.968L284.063 39.1201L332.666 39.1201Q345.498 39.1201 352.266 40.3506Q361.758 41.9326 368.174 46.3711Q374.59 50.8096 378.501 58.8076Q382.412 66.8057 382.412 76.3857Q382.412 92.8213 371.953 104.203Q361.494 115.585 334.16 115.585L301.113 115.585L301.113 167.968L284.063 167.968ZM407.021 39.1201L407.021 167.968L424.072 167.968L424.072 39.1201L407.021 39.1201ZM64.248 100.38L30.9375 100.38L30.9375 54.3252L63.8965 54.3252Q75.498 54.3252 79.8047 55.4678Q86.4844 57.3135 90.5713 63.0703Q94.6582 68.8272 94.6582 76.9131Q94.6582 88.0752 87.7148 94.2275Q80.7715 100.38 64.248 100.38ZM301.113 100.38L334.424 100.38Q350.947 100.38 357.891 94.2275Q364.834 88.0752 364.834 76.9131Q364.834 68.8272 360.747 63.0703Q356.66 57.3135 349.98 55.4678Q345.674 54.3252 334.072 54.3252L301.113 54.3252L301.113 100.38Z" />
    </g>
  </g>
</svg>
