<svg xmlns="http://www.w3.org/2000/svg" version="1.2" viewBox="0 0 1024 1024">
  <g>
    <path d="M6.69996 278.313C31.0731 92.7564 209.504 -78.7002 537.869 38.2886C866.233 155.277 939.478 283.763 957.869 341.789C976.26 399.815 935.259 503.261 820.873 579.812C706.487 656.362 572.003 594.458 477.553 574.823C398.365 558.361 305.172 640.229 215.369 629.289C18.4558 605.291 -17.6732 463.87 6.69996 278.313Z" transform="translate(30.13086 197.7114)" fill="none" stroke="#000000" stroke-width="20" />
    <g transform="translate(391.8828 409)">
      <path d="M49.2188 39.1201L-0.263672 167.968L17.8418 167.968L31.9922 128.944L85.8691 128.944L100.898 167.968L137.9 167.968L152.051 128.944L205.928 128.944L220.957 167.968L240.381 167.968L187.646 39.1201L169.277 39.1201L120.05 167.303L67.5879 39.1201L49.2188 39.1201ZM80.5957 115.058L36.9141 115.058L51.0645 77.2646Q55.5469 65.0479 58.0078 52.6553Q60.9961 63.1143 67.1484 79.374L80.5957 115.058ZM200.654 115.058L156.973 115.058L171.123 77.2646Q175.605 65.0479 178.066 52.6553Q181.055 63.1143 187.207 79.374L200.654 115.058Z" />
    </g>
  </g>
</svg>
