<svg xmlns="http://www.w3.org/2000/svg" version="1.2" viewBox="0 0 1024 1024">
  <g>
    <path d="M173.368 0C80.0071 26.0296 0 124.614 0 124.614" transform="matrix(0.9612617 0.2756374 -0.2756374 0.9612617 75.34854 424.713)" fill="none" stroke="#000000" stroke-width="20" />
    <path d="M331.325 0C331.325 0 258.799 81.9091 113.037 120.33C69.5676 131.788 40.5665 130.24 0 132.456" transform="matrix(0.9612617 0.2756374 -0.2756374 0.9612617 544.0098 389.1758)" fill="none" stroke="#000000" stroke-width="20" />
    <g transform="translate(277.2813 392)">
      <path d="M11.7188 34.7734L11.7188 149.305L55.3906 149.305C62.6823 149.305 68.8411 148.667 73.8672 147.391Q81.4062 145.477 86.4063 141.727Q91.4063 137.977 94.8047 131.063Q98.2031 124.148 98.2031 116.102Q98.2031 106.102 92.6172 98.7578Q87.0313 91.4141 76.6406 88.3672Q84.6875 84.3828 88.6719 77.8984Q92.6563 71.4141 92.6563 64.0703Q92.6562 56.1797 88.1641 48.9531Q83.6719 41.7266 75.7422 38.25Q67.8125 34.7734 54.6875 34.7734L11.7188 34.7734ZM51.6406 82.8984L26.875 82.8984L26.875 48.2891L49.7656 48.2891Q62.1094 48.2891 67.1875 49.8906Q72.2656 51.4922 75 55.8281Q77.7344 60.1641 77.7344 65.8672Q77.7344 71.8828 74.8047 75.8672Q71.875 79.8516 66.0938 81.5703Q61.7188 82.8984 51.6406 82.8984ZM138.203 106.18L107.891 149.305L124.922 149.305L146.719 116.57L151.25 123.523L168.281 149.305L185.547 149.305L154.688 105.398L183.359 66.3359L166.563 66.3359L152.578 85.9453Q149.688 89.9297 146.25 95.0859Q144.063 91.3359 140.469 85.7891L127.734 66.3359L110.156 66.3359L138.203 106.18ZM55.3906 135.789L26.875 135.789L26.875 96.4141L53.3594 96.4141Q64.2969 96.4141 70.1172 98.3281Q75.9375 100.242 79.2188 104.969Q82.5 109.695 82.5 116.102Q82.5 121.57 80.2344 125.75Q77.9688 129.93 74.4531 132.117Q70.9375 134.305 65.7031 135.242Q62.7344 135.789 55.3906 135.789Z" />
    </g>
    <path d="M68 0L136 168L0 168L68 0Z" transform="matrix(0.4539905 0.8910065 -0.8910065 0.4539905 973.6895 347.7295)" fill="#000000" stroke="none" />
  </g>
</svg>
