<svg xmlns="http://www.w3.org/2000/svg" version="1.2" viewBox="0 0 1024 1024">
  <g>
    <path d="M0 80C0 35.8172 35.8172 0 80 0C124.183 0 160 35.8172 160 80C160 124.183 124.183 160 80 160C35.8172 160 0 124.183 0 80Z" transform="translate(16 547)" fill="none" stroke="#000000" stroke-width="20" />
    <path d="M0 80C0 35.8172 35.8172 0 80 0C124.183 0 160 35.8172 160 80C160 124.183 124.183 160 80 160C35.8172 160 0 124.183 0 80Z" transform="translate(846 547)" fill="none" stroke="#000000" stroke-width="20" />
    <path d="M0 0L112 123.784" transform="translate(40 565)" fill="none" stroke="#000000" stroke-width="20" />
    <path d="M0 0L112 123.784" transform="matrix(-1 0 0 1 152 565)" fill="none" stroke="#000000" stroke-width="20" />
    <path d="M0 0L112 123.784" transform="translate(870 565)" fill="none" stroke="#000000" stroke-width="20" />
    <path d="M0 0L112 123.784" transform="matrix(-1 0 0 1 982 565)" fill="none" stroke="#000000" stroke-width="20" />
    <path d="M9.06477e-07 94.0018C9.06477e-07 94.0018 0.396328 -0.0983405 65.3939 0.000154413C130.392 0.0986494 130 93.9996 130 93.9996" transform="translate(184 547)" fill="none" stroke="#000000" stroke-width="20" />
    <path d="M9.06477e-07 94.0018C9.06477e-07 94.0018 0.396328 -0.0984177 65.394 7.72673e-05C130.392 0.0985723 130 93.9996 130 93.9996" transform="translate(314.5 547)" fill="none" stroke="#000000" stroke-width="20" />
    <path d="M9.06477e-07 94.0018C9.06477e-07 94.0018 0.396328 -0.0984177 65.394 7.72673e-05C130.392 0.0985723 130 93.9996 130 93.9996" transform="translate(445 547)" fill="none" stroke="#000000" stroke-width="20" />
    <path d="M9.06477e-07 94.0018C9.06477e-07 94.0018 0.396328 -0.0984177 65.394 7.72673e-05C130.392 0.0985723 130 93.9996 130 93.9996" transform="translate(575.5 547)" fill="none" stroke="#000000" stroke-width="20" />
    <path d="M9.06477e-07 94.0018C9.06477e-07 94.0018 0.396328 -0.0984177 65.394 7.72673e-05C130.392 0.0985723 130 93.9996 130 93.9996" transform="translate(705.5 547)" fill="none" stroke="#000000" stroke-width="20" />
    <g transform="translate(2.320313 316.001)">
      <path d="M256.289 131.581L272.549 127.362Q274.395 136.767 282.437 146.171Q290.479 155.575 303.75 155.575Q317.285 155.575 325.107 148.632Q332.93 141.688 332.93 131.845Q332.93 121.21 324.668 114.926Q316.406 108.642 302.168 108.642L293.994 108.642L293.994 93.7881Q305.771 93.7881 312.012 92.4258Q318.252 91.0635 323.042 85.4824Q327.832 79.9014 327.832 72.7822Q327.832 64.3447 321.284 58.1045Q314.736 51.8643 303.574 51.8643Q293.818 51.8643 286.919 56.7422Q280.02 61.6201 277.383 69.6621Q274.746 77.7041 274.746 81.6592L258.398 77.9678Q264.463 36.9229 303.75 36.9229Q322.646 36.9229 333.721 47.4258Q344.795 57.9287 344.795 71.9912Q344.795 90.0088 327.744 99.9404Q337.588 102.665 344.224 111.059Q350.859 119.452 350.859 131.142Q350.859 147.753 337.983 158.959Q325.107 170.165 303.838 170.165Q267.275 170.165 256.289 131.581ZM536.133 127.362L519.873 131.581Q530.859 170.165 567.422 170.165Q588.691 170.165 601.567 158.959Q614.443 147.753 614.443 131.142Q614.443 119.452 607.808 111.059Q601.172 102.665 591.328 99.9404Q608.379 90.0088 608.379 71.9912Q608.379 57.9287 597.305 47.4258Q586.23 36.9229 567.334 36.9229Q528.047 36.9229 521.982 77.9678L538.33 81.6592Q538.33 77.7041 540.967 69.6621Q543.604 61.6201 550.503 56.7422Q557.402 51.8643 567.158 51.8643Q578.32 51.8643 584.868 58.1045Q591.416 64.3447 591.416 72.7822Q591.416 79.9014 586.626 85.4824Q581.836 91.0635 575.596 92.4258Q569.355 93.7881 557.578 93.7881L557.578 108.642L565.752 108.642Q579.99 108.642 588.252 114.926Q596.514 121.21 596.514 131.845Q596.514 141.688 588.691 148.632Q580.869 155.575 567.334 155.575Q554.063 155.575 546.021 146.171Q537.979 136.767 536.133 127.362ZM422.314 39.1201L439.365 39.1201L439.365 95.5459Q451.055 95.5459 455.801 91.0195Q460.547 86.4932 467.93 69.2666Q473.291 56.6104 476.763 51.3809Q480.234 46.1514 486.65 42.5918Q493.066 39.0322 500.801 39.0322Q510.645 39.0322 511.172 39.208L511.172 53.9736Q510.293 53.9736 507.744 53.8857Q504.932 53.7979 504.316 53.7979Q496.143 53.7979 492.188 57.7529Q488.145 61.708 482.959 74.6279Q476.455 90.9756 471.973 95.2383Q467.49 99.501 461.25 102.05Q473.73 105.478 485.859 125.077L512.402 167.968L491.221 167.968L469.688 132.987Q460.811 118.485 454.834 113.08Q448.857 107.675 439.365 107.675L439.365 167.968L422.314 167.968L422.314 39.1201ZM13.8867 39.1201L13.8867 167.968L30.9375 167.968L30.9375 115.585L63.9844 115.585Q91.3184 115.585 101.777 104.203Q112.236 92.8213 112.236 76.3857Q112.236 66.8057 108.325 58.8076Q104.414 50.8096 97.998 46.3711Q91.582 41.9326 82.0898 40.3506Q75.3223 39.1201 62.4902 39.1201L13.8867 39.1201ZM235.459 39.1201L134.121 39.1201L134.121 167.968L151.172 167.968L151.172 54.3252L218.32 54.3252L218.32 167.968L235.459 167.968L235.459 39.1201ZM374.941 39.1201L374.941 167.968L391.992 167.968L391.992 39.1201L374.941 39.1201ZM64.248 100.38L30.9375 100.38L30.9375 54.3252L63.8965 54.3252Q75.498 54.3252 79.8047 55.4678Q86.4844 57.3135 90.5713 63.0703Q94.6582 68.8272 94.6582 76.9131Q94.6582 88.0752 87.7148 94.2275Q80.7715 100.38 64.248 100.38Z" />
    </g>
  </g>
</svg>
