<svg viewBox="0 0 1024 1024">
  <g>
    <path d="M6.69996 278.313C31.0731 92.7564 209.504 -78.7002 537.869 38.2886C866.233 155.277 939.478 283.763 957.869 341.789C976.26 399.815 935.259 503.261 820.873 579.812C706.487 656.362 572.003 594.458 477.553 574.823C398.365 558.361 305.172 640.229 215.369 629.289C18.4558 605.291 -17.6732 463.87 6.69996 278.313Z" transform="translate(30.13062 197.7114)" fill="none" stroke="#000000" stroke-width="20" />
    <g transform="translate(302.6738 408)">
      <path d="M199.336 167.177Q208.389 189.325 221.484 205.849L232.822 205.849Q206.543 163.661 206.543 121.386Q206.543 104.774 210.322 88.3389Q213.398 75.1553 218.76 63.0264Q222.188 55.2041 232.822 36.9229L221.484 36.9229Q204.961 58.9834 197.051 81.2197Q190.283 100.38 190.283 121.298Q190.283 145.028 199.336 167.177ZM370.283 205.849L381.621 205.849Q394.629 189.325 403.726 167.177Q412.822 145.028 412.822 121.298Q412.822 100.38 406.055 81.2197Q398.145 58.9834 381.621 36.9229L370.283 36.9229Q381.006 55.3799 384.434 63.29Q389.795 75.419 392.783 88.6025Q396.563 104.862 396.563 121.386Q396.563 163.661 370.283 205.849ZM115.4 39.1201L14.0625 39.1201L14.0625 167.968L31.1133 167.968L31.1133 54.3252L98.2617 54.3252L98.2617 167.968L115.4 167.968L115.4 39.1201ZM252.51 167.968L252.51 39.1201L300.85 39.1201Q315.615 39.1201 324.536 43.0313Q333.457 46.9424 338.511 55.0723Q343.564 63.2022 343.564 72.0791Q343.564 80.3408 339.082 87.6357Q334.6 94.9307 325.547 99.4131Q337.236 102.841 343.521 111.103Q349.805 119.364 349.805 130.614Q349.805 139.667 345.981 147.445Q342.158 155.224 336.533 159.442Q330.908 163.661 322.427 165.814Q313.945 167.968 301.641 167.968L252.51 167.968ZM269.561 93.2607L297.422 93.2607Q308.76 93.2607 313.682 91.7666Q320.186 89.833 323.481 85.3506Q326.777 80.8682 326.777 74.1006Q326.777 67.6846 323.701 62.8066Q320.625 57.9287 314.912 56.127Q309.199 54.3252 295.313 54.3252L269.561 54.3252L269.561 93.2607ZM269.561 152.763L301.641 152.763Q309.902 152.763 313.242 152.147Q319.131 151.093 323.086 148.632Q327.041 146.171 329.59 141.469Q332.139 136.767 332.139 130.614Q332.139 123.407 328.447 118.09Q324.756 112.772 318.208 110.619Q311.66 108.466 299.355 108.466L269.561 108.466L269.561 152.763Z" />
    </g>
  </g>
</svg>
