<svg xmlns="http://www.w3.org/2000/svg" version="1.2" viewBox="0 0 1024 1024">
  <g>
    <g transform="translate(450 442.9998)">
      <path d="M8.90625 26.0801L8.90625 111.979L19.8633 111.979L19.8633 38.8535L44.707 111.979L54.9609 111.979L79.9219 40.084L79.9219 111.979L90.8789 111.979L90.8789 26.0801L75.5859 26.0801L55.0195 85.8457Q51.9141 94.9277 50.4492 99.6152Q49.1602 95.3965 46.3477 86.9004L26.0156 26.0801L8.90625 26.0801ZM132.773 26.0801L99.7852 111.979L111.855 111.979L121.289 85.9629L157.207 85.9629L167.227 111.979L180.176 111.979L145.02 26.0801L132.773 26.0801ZM191.191 111.979L191.191 26.0801L202.559 26.0801L202.559 111.979L191.191 111.979ZM222.48 26.0801L222.48 111.979L233.379 111.979L233.379 44.4785L278.496 111.979L290.156 111.979L290.156 26.0801L279.258 26.0801L279.258 93.5215L234.141 26.0801L222.48 26.0801ZM153.691 76.7051L124.57 76.7051L134.004 51.5098Q136.992 43.3652 138.633 35.1035Q140.625 42.0762 144.727 52.916L153.691 76.7051Z" />
    </g>
    <path d="M0 1L400 1" transform="translate(24 511)" fill="none" stroke="#000000" stroke-width="20" />
    <path d="M0 1L130 1" transform="translate(776 511)" fill="none" stroke="#000000" stroke-width="20" />
    <path d="M3.53903e-08 56L3.53903e-08 0L151.5 144.5L0 288.5L7.07805e-08 232L95.5 144.5L3.53903e-08 56Z" transform="translate(824.5 367.5002)" fill="none" stroke="#000000" stroke-width="20" />
  </g>
</svg>
