<svg viewBox="0 0 1024 1024">
  <g>
    <path d="M0 0.000176867C0 0.000176867 438.805 0.0118305 743.172 0.000175745C1047.54 -0.011479 1035.7 480.071 751.078 480C466.452 479.93 463.5 479.996 463.5 479.996" transform="translate(24 271.3975)" fill="none" stroke="#000000" stroke-width="20" />
    <path d="M256 1L0 1" transform="translate(64 751)" fill="none" stroke="#000000" stroke-width="20" />
    <g transform="translate(346.999 660.0002)">
      <path d="M12.5781 149.305L12.5781 34.7734L63.3594 34.7734Q78.6719 34.7734 86.6406 37.8594Q94.6094 40.9453 99.375 48.7578Q104.141 56.5703 104.141 66.0234Q104.141 78.2109 96.25 86.5703Q88.3594 94.9297 71.875 97.1953Q77.8906 100.086 81.0156 102.898Q87.6563 108.992 93.5938 118.133L113.516 149.305L94.4531 149.305L79.2969 125.477Q72.6562 115.164 68.3594 109.695Q64.0625 104.227 60.6641 102.039Q57.2656 99.8516 53.75 98.9922Q51.1719 98.4453 45.3125 98.4453L27.7344 98.4453L27.7344 149.305L12.5781 149.305ZM27.7344 85.3203L60.3125 85.3203Q70.7031 85.3203 76.5625 83.1719Q82.4219 81.0234 85.4688 76.2969Q88.5156 71.5703 88.5156 66.0234Q88.5156 57.8984 82.6172 52.6641Q76.7187 47.4297 63.9844 47.4297L27.7344 47.4297L27.7344 85.3203Z" />
    </g>
    <path d="M0 96.8963L68.3195 0L111.227 110.049" transform="matrix(-0.1218693 0.9925461 0.9925461 0.1218693 53.77148 684.4441)" fill="none" stroke="#000000" stroke-width="20" />
  </g>
</svg>
