<svg xmlns="http://www.w3.org/2000/svg" version="1.2" viewBox="0 0 1024 1024">
  <g>
    <path d="M312 1L0 1" transform="translate(24 510.9995)" fill="none" stroke="#000000" stroke-width="20" />
    <path d="M312 1L0 1" transform="translate(688 510.9995)" fill="none" stroke="#000000" stroke-width="20" />
    <g transform="translate(371 420)">
      <path d="M207.266 113.211L192.813 116.961Q202.578 151.258 235.078 151.258Q253.984 151.258 265.43 141.297Q276.875 131.336 276.875 116.57Q276.875 106.18 270.977 98.7188Q265.078 91.2578 256.328 88.8359Q271.484 80.0078 271.484 63.9922Q271.484 51.4922 261.641 42.1563Q251.797 32.8203 235 32.8203Q200.078 32.8203 194.688 69.3047L209.219 72.5859Q209.219 69.0703 211.563 61.9219Q213.906 54.7734 220.039 50.4375Q226.172 46.1016 234.844 46.1016Q244.766 46.1016 250.586 51.6484Q256.406 57.1953 256.406 64.6953Q256.406 71.0234 252.148 75.9844Q247.891 80.9453 242.344 82.1563Q236.797 83.3672 226.328 83.3672L226.328 96.5703L233.594 96.5703Q246.25 96.5703 253.594 102.156Q260.938 107.742 260.938 117.195Q260.938 125.945 253.984 132.117Q247.031 138.289 235 138.289Q223.203 138.289 216.055 129.93Q208.906 121.57 207.266 113.211ZM41.4844 149.305L41.4844 48.2891L3.75 48.2891L3.75 34.7734L94.5313 34.7734L94.5313 48.2891L56.6406 48.2891L56.6406 149.305L41.4844 149.305ZM108.281 181.102L108.281 66.3359L121.094 66.3359L121.094 77.1172Q125.625 70.7891 131.328 67.625Q137.031 64.4609 145.156 64.4609Q155.781 64.4609 163.906 69.9297Q172.031 75.3984 176.172 85.3594Q180.313 95.3203 180.313 107.195Q180.313 119.93 175.742 130.125Q171.172 140.32 162.461 145.75Q153.75 151.18 144.141 151.18Q137.109 151.18 131.523 148.211Q125.938 145.242 122.344 140.711L122.344 181.102L108.281 181.102ZM121.016 108.289Q121.016 124.305 127.5 131.961Q133.984 139.617 143.203 139.617Q152.578 139.617 159.258 131.688Q165.938 123.758 165.938 107.117Q165.938 91.2578 159.414 83.3672Q152.891 75.4766 143.828 75.4766Q134.844 75.4766 127.93 83.875Q121.016 92.2734 121.016 108.289Z" />
    </g>
  </g>
</svg>
