<svg xmlns="http://www.w3.org/2000/svg" version="1.2" viewBox="0 0 1024 1024">
  <g>
    <path d="M6.69996 278.313C31.0731 92.7564 209.504 -78.7002 537.869 38.2886C866.233 155.277 939.478 283.763 957.869 341.789C976.26 399.815 935.259 503.261 820.873 579.812C706.487 656.362 572.003 594.458 477.553 574.823C398.365 558.361 305.172 640.229 215.369 629.289C18.4558 605.291 -17.6732 463.87 6.69996 278.313Z" transform="translate(30.13062 197.7114)" fill="none" stroke="#000000" stroke-width="20" />
    <g transform="translate(182.6738 408)">
      <path d="M14.2383 167.968L14.2383 39.1201L107.402 39.1201L107.402 54.3252L31.2891 54.3252L31.2891 93.7881L102.568 93.7881L102.568 108.905L31.2891 108.905L31.2891 152.763L110.391 152.763L110.391 167.968L14.2383 167.968ZM133.945 167.968L133.945 39.1201L182.549 39.1201Q195.381 39.1201 202.148 40.3506Q211.641 41.9326 218.057 46.3711Q224.473 50.8096 228.384 58.8076Q232.295 66.8057 232.295 76.3857Q232.295 92.8213 221.836 104.203Q211.377 115.585 184.043 115.585L150.996 115.585L150.996 167.968L133.945 167.968ZM242.314 39.1201L276.504 167.968L293.906 167.968L321.24 69.7939Q322.998 63.5537 325.02 54.6768Q325.635 57.4893 329.063 69.7939L356.221 167.968L372.656 167.968L407.988 39.1201L390.85 39.1201L370.635 121.913Q366.68 137.733 364.219 149.95Q361.143 128.593 354.199 104.335L335.742 39.1201L315.176 39.1201L290.654 126.132Q289.775 129.296 284.854 149.95Q282.568 136.854 279.404 123.583L259.805 39.1201L242.314 39.1201ZM424.424 167.968L424.424 39.1201L441.475 39.1201L441.475 92.0303L508.447 92.0303L508.447 39.1201L525.498 39.1201L525.498 167.968L508.447 167.968L508.447 107.235L441.475 107.235L441.475 167.968L424.424 167.968ZM589.219 39.1201L539.736 167.968L557.842 167.968L571.992 128.944L625.869 128.944L640.898 167.968L660.322 167.968L607.588 39.1201L589.219 39.1201ZM620.596 115.058L576.914 115.058L591.064 77.2646Q595.547 65.0479 598.008 52.6553Q600.996 63.1143 607.148 79.374L620.596 115.058ZM150.996 100.38L184.307 100.38Q200.83 100.38 207.773 94.2275Q214.717 88.0752 214.717 76.9131Q214.717 68.8272 210.63 63.0703Q206.543 57.3135 199.863 55.4678Q195.557 54.3252 183.955 54.3252L150.996 54.3252L150.996 100.38Z" />
    </g>
  </g>
</svg>
