<svg xmlns="http://www.w3.org/2000/svg" version="1.2" viewBox="0 0 1024 1024">
  <g>
    <path d="M787.923 208L788 0L788 208L0 208.036L0.291545 0.000488281" transform="translate(116 631.9639)" fill="none" stroke="#000000" stroke-width="20" />
    <path d="M787.923 208L788 0L788 208L0 208.036L0.291545 0.000488281" transform="matrix(1 0 0 -1 116 400.0361)" fill="none" stroke="#000000" stroke-width="20" />
    <g transform="translate(0 420.001)">
      <path d="M23.0469 48.875Q7.73437 65.0078 7.73438 93.5234Q7.73437 108.602 14.2969 122.117Q20.8594 135.633 33.5938 143.445Q46.3281 151.258 62.5 151.258Q77.4219 151.258 90.3125 144.188Q103.203 137.117 110.234 123.367Q117.266 109.617 117.266 92.1953Q117.266 75.0078 110.586 61.4531Q103.906 47.8984 91.1719 40.3203Q78.4375 32.7422 62.5781 32.7422Q38.3594 32.7422 23.0469 48.875ZM136.172 34.7734L136.172 149.305L179.844 149.305C187.135 149.305 193.294 148.667 198.32 147.391Q205.859 145.477 210.859 141.727Q215.859 137.977 219.258 131.063Q222.656 124.148 222.656 116.102Q222.656 106.102 217.07 98.7578Q211.484 91.4141 201.094 88.3672Q209.141 84.3828 213.125 77.8984Q217.109 71.4141 217.109 64.0703Q217.109 56.1797 212.617 48.9531Q208.125 41.7266 200.195 38.25Q192.266 34.7734 179.141 34.7734L136.172 34.7734ZM34.4922 126.375Q23.3594 114.461 23.3594 93.7578Q23.3594 67.8984 34.9609 56.8438Q46.5625 45.7891 62.6563 45.7891Q73.9844 45.7891 83.0859 51.5313Q92.1875 57.2734 96.9141 67.7031Q101.641 78.1328 101.641 92.1172Q101.641 114.227 90.5859 126.258Q79.5313 138.289 62.4219 138.289Q45.625 138.289 34.4922 126.375ZM176.094 82.8984L151.328 82.8984L151.328 48.2891L174.219 48.2891Q186.563 48.2891 191.641 49.8906Q196.719 51.4922 199.453 55.8281Q202.188 60.1641 202.188 65.8672Q202.188 71.8828 199.258 75.8672Q196.328 79.8516 190.547 81.5703Q186.172 82.8984 176.094 82.8984ZM179.844 135.789L151.328 135.789L151.328 96.4141L177.813 96.4141Q188.75 96.4141 194.57 98.3281Q200.391 100.242 203.672 104.969Q206.953 109.695 206.953 116.102Q206.953 121.57 204.688 125.75Q202.422 129.93 198.906 132.117Q195.391 134.305 190.156 135.242Q187.188 135.789 179.844 135.789Z" />
    </g>
    <g transform="translate(792.8281 420)">
      <path d="M23.0469 48.875Q7.73437 65.0078 7.73438 93.5234Q7.73437 108.602 14.2969 122.117Q20.8594 135.633 33.5938 143.445Q46.3281 151.258 62.5 151.258Q77.4219 151.258 90.3125 144.188Q103.203 137.117 110.234 123.367Q117.266 109.617 117.266 92.1953Q117.266 75.0078 110.586 61.4531Q103.906 47.8984 91.1719 40.3203Q78.4375 32.7422 62.5781 32.7422Q38.3594 32.7422 23.0469 48.875ZM136.172 34.7734L136.172 149.305L179.844 149.305C187.135 149.305 193.294 148.667 198.32 147.391Q205.859 145.477 210.859 141.727Q215.859 137.977 219.258 131.063Q222.656 124.148 222.656 116.102Q222.656 106.102 217.07 98.7578Q211.484 91.4141 201.094 88.3672Q209.141 84.3828 213.125 77.8984Q217.109 71.4141 217.109 64.0703Q217.109 56.1797 212.617 48.9531Q208.125 41.7266 200.195 38.25Q192.266 34.7734 179.141 34.7734L136.172 34.7734ZM34.4922 126.375Q23.3594 114.461 23.3594 93.7578Q23.3594 67.8984 34.9609 56.8438Q46.5625 45.7891 62.6563 45.7891Q73.9844 45.7891 83.0859 51.5313Q92.1875 57.2734 96.9141 67.7031Q101.641 78.1328 101.641 92.1172Q101.641 114.227 90.5859 126.258Q79.5313 138.289 62.4219 138.289Q45.625 138.289 34.4922 126.375ZM176.094 82.8984L151.328 82.8984L151.328 48.2891L174.219 48.2891Q186.563 48.2891 191.641 49.8906Q196.719 51.4922 199.453 55.8281Q202.188 60.1641 202.188 65.8672Q202.188 71.8828 199.258 75.8672Q196.328 79.8516 190.547 81.5703Q186.172 82.8984 176.094 82.8984ZM179.844 135.789L151.328 135.789L151.328 96.4141L177.813 96.4141Q188.75 96.4141 194.57 98.3281Q200.391 100.242 203.672 104.969Q206.953 109.695 206.953 116.102Q206.953 121.57 204.688 125.75Q202.422 129.93 198.906 132.117Q195.391 134.305 190.156 135.242Q187.188 135.789 179.844 135.789Z" />
    </g>
  </g>
</svg>
