<svg viewBox="0 0 1024 1024">
  <g>
    <path d="M830.5 0L1.35925 0L0 215.5" transform="translate(161.5 192)" fill="none" stroke="#000000" stroke-width="20" />
    <path d="M830.039 209.001L0 208.036L0.283224 0" transform="translate(161.9609 614.9995)" fill="none" stroke="#000000" stroke-width="20" />
    <g transform="translate(0 420)">
      <path d="M104.375 93.5234Q104.375 65.0078 119.688 48.875Q135 32.7422 159.219 32.7422Q175.078 32.7422 187.813 40.3203Q200.547 47.8984 207.227 61.4531Q213.906 75.0078 213.906 92.1953Q213.906 109.617 206.875 123.367Q199.844 137.117 186.953 144.188Q174.063 151.258 159.141 151.258Q142.969 151.258 130.234 143.445Q117.5 135.633 110.938 122.117Q104.375 108.602 104.375 93.5234ZM6.09375 116.961L20.5469 113.211Q22.1875 121.57 29.3359 129.93Q36.4844 138.289 48.2813 138.289Q60.3125 138.289 67.2656 132.117Q74.2188 125.945 74.2188 117.195Q74.2188 107.742 66.875 102.156Q59.5313 96.5703 46.875 96.5703L39.6094 96.5703L39.6094 83.3672Q50.0781 83.3672 55.625 82.1563Q61.1719 80.9453 65.4297 75.9844Q69.6875 71.0234 69.6875 64.6953Q69.6875 57.1953 63.8672 51.6484Q58.0469 46.1016 48.125 46.1016Q39.4531 46.1016 33.3203 50.4375Q27.1875 54.7734 24.8438 61.9219Q22.5 69.0703 22.5 72.5859L7.96875 69.3047Q13.3594 32.8203 48.2813 32.8203Q65.0781 32.8203 74.9219 42.1563Q84.7656 51.4922 84.7656 63.9922Q84.7656 80.0078 69.6094 88.8359Q78.3594 91.2578 84.2578 98.7188Q90.1562 106.18 90.1563 116.57Q90.1563 131.336 78.7109 141.297Q67.2656 151.258 48.3594 151.258Q15.8594 151.258 6.09375 116.961ZM233.438 34.7734L233.438 149.305L248.594 149.305L248.594 102.742L277.969 102.742Q302.266 102.742 311.563 92.625Q320.859 82.5078 320.859 67.8984Q320.859 59.3828 317.383 52.2734Q313.906 45.1641 308.203 41.2188Q302.5 37.2734 294.063 35.8672Q288.047 34.7734 276.641 34.7734L233.438 34.7734ZM120 93.7578Q120 114.461 131.133 126.375Q142.266 138.289 159.063 138.289Q176.172 138.289 187.227 126.258Q198.281 114.227 198.281 92.1172Q198.281 78.1328 193.555 67.7031Q188.828 57.2734 179.727 51.5313Q170.625 45.7891 159.297 45.7891Q143.203 45.7891 131.602 56.8438Q120 67.8984 120 93.7578ZM278.203 89.2266L248.594 89.2266L248.594 48.2891L277.891 48.2891Q288.203 48.2891 292.031 49.3047Q297.969 50.9453 301.602 56.0625Q305.234 61.1797 305.234 68.3672Q305.234 78.2891 299.063 83.7578Q292.891 89.2266 278.203 89.2266Z" />
    </g>
  </g>
</svg>
