<svg xmlns="http://www.w3.org/2000/svg" version="1.2" viewBox="0 0 1024 1024">
  <g>
    <path d="M0 1L160 1" transform="matrix(-1 0 0 1 185 763)" id="Line" fill="none" stroke="#000000" stroke-width="20" />
    <path d="M0 0C0 0 12.75 23 23.5 50C34.25 77 43 108 43 108" transform="matrix(-1 0 0 1 89 549)" id="Line-Copy-6" fill="none" stroke="#000000" stroke-width="20" />
    <path d="M0 0C0 0 13.6306 23.3564 24.3806 50.3564C35.1306 77.3564 43.692 107.297 43.692 107.297" transform="matrix(-0.9063078 -0.4226182 -0.4226182 0.9063078 230.3778 387.6653)" id="Line-Copy-7" fill="none" stroke="#000000" stroke-width="20" />
    <path d="M0 0C0 0 14.0802 24.7826 25.967 50.7591C37.8538 76.7357 45.465 101.921 45.465 101.921" transform="matrix(-0.6427877 -0.7660446 -0.7660446 0.6427877 434.7322 300.4518)" id="Line-Copy-8" fill="none" stroke="#000000" stroke-width="20" />
    <path d="M0 0C0 0 12.75 23 23.5 50C34.25 77 43 108 43 108" transform="translate(933.8467 549)" id="Line-Copy-6" fill="none" stroke="#000000" stroke-width="20" />
    <path d="M0 0C0 0 13.6306 23.3564 24.3806 50.3564C35.1306 77.3564 43.692 107.297 43.692 107.297" transform="matrix(0.9063078 -0.4226182 0.4226182 0.9063078 792.4689 387.6653)" id="Line-Copy-7" fill="none" stroke="#000000" stroke-width="20" />
    <path d="M0 0C0 0 14.0802 24.7826 25.967 50.7591C37.8538 76.7357 49.0765 111.491 49.0765 111.491" transform="matrix(0.6156614 -0.7880108 0.7880108 0.6156614 566.9291 297.5318)" id="Line-Copy-8" fill="none" stroke="#000000" stroke-width="20" />
    <path d="M0 1L160 1" transform="matrix(-1 0 0 1 457 763)" id="Line-Copy" fill="none" stroke="#000000" stroke-width="20" />
    <path d="M0 1L160 1" transform="matrix(-1 0 0 1 729 763)" id="Line-Copy-2" fill="none" stroke="#000000" stroke-width="20" />
    <path d="M0 1L160 1" transform="matrix(-1 0 0 1 1000 763)" id="Line-Copy-5" fill="none" stroke="#000000" stroke-width="20" />
  </g>
</svg>
