<svg xmlns="http://www.w3.org/2000/svg" version="1.2" viewBox="0 0 1024 1024">
  <g>
    <path d="M0 55.501C0 55.501 38.875 37.3762 79 23.501C119.125 9.62573 160.5 0 160.5 0" transform="translate(31.5 528)" fill="none" stroke="#000000" stroke-width="20" />
    <path d="M0 52.0337C0 52.0337 38.5664 32.5574 78.6914 18.6821C118.816 4.80689 158.84 0 158.84 0" transform="matrix(0.9510565 0.309017 -0.309017 0.9510565 343.4346 452.917)" fill="none" stroke="#000000" stroke-width="20" />
    <path d="M0 25.6665C0 25.6665 33.5088 25.1445 77.5088 21.5117C121.509 17.8789 159.892 0 159.892 0" transform="matrix(0.9510565 0.309017 -0.309017 0.9510565 640.9326 508.0908)" fill="none" stroke="#000000" stroke-width="20" />
    <path d="M0 21.6328C0 21.6328 33.1846 19.1026 60.1094 14.5625C87.0342 10.0225 115.229 0 115.229 0" transform="matrix(0.8910065 -0.4539905 0.4539905 0.8910065 897.8311 493.3145)" fill="none" stroke="#000000" stroke-width="20" />
    <path d="M0 10C0 4.47715 4.47715 0 10 0C15.5228 0 20 4.47715 20 10C20 15.5228 15.5228 20 10 20C4.47715 20 0 15.5228 0 10Z" transform="translate(248 504)" fill="#000000" stroke="none" />
    <path d="M0 10C0 4.47715 4.47715 0 10 0C15.5228 0 20 4.47715 20 10C20 15.5228 15.5228 20 10 20C4.47715 20 0 15.5228 0 10Z" transform="translate(557 506.001)" fill="#000000" stroke="none" />
    <path d="M0 10C0 4.47715 4.47715 0 10 0C15.5228 0 20 4.47715 20 10C20 15.5228 15.5228 20 10 20C4.47715 20 0 15.5228 0 10Z" transform="translate(847 528.001)" fill="#000000" stroke="none" />
  </g>
</svg>
