<svg xmlns="http://www.w3.org/2000/svg" version="1.2" viewBox="0 0 1024 1024">
  <g>
    <path d="M735.927 208L735.999 0L735.999 208L0 208.036L0.272306 0.000488281" transform="translate(152 631.9639)" fill="none" stroke="#000000" stroke-width="20" />
    <path d="M735.927 208L735.999 0L735.999 208L0 208.036L0.272306 0.000488281" transform="matrix(1 0 0 -1 152 400.0361)" fill="none" stroke="#000000" stroke-width="20" />
    <g transform="translate(-0.0009765625 420.001)">
      <path d="M233.984 113.211L219.531 116.961Q229.297 151.258 261.797 151.258Q280.703 151.258 292.148 141.297Q303.594 131.336 303.594 116.57Q303.594 106.18 297.695 98.7188Q291.797 91.2578 283.047 88.8359Q298.203 80.0078 298.203 63.9922Q298.203 51.4922 288.359 42.1563Q278.516 32.8203 261.719 32.8203Q226.797 32.8203 221.406 69.3047L235.938 72.5859Q235.938 69.0703 238.281 61.9219Q240.625 54.7734 246.758 50.4375Q252.891 46.1016 261.563 46.1016Q271.484 46.1016 277.305 51.6484Q283.125 57.1953 283.125 64.6953Q283.125 71.0234 278.867 75.9844Q274.609 80.9453 269.063 82.1563Q263.516 83.3672 253.047 83.3672L253.047 96.5703L260.313 96.5703Q272.969 96.5703 280.313 102.156Q287.656 107.742 287.656 117.195Q287.656 125.945 280.703 132.117Q273.75 138.289 261.719 138.289Q249.922 138.289 242.773 129.93Q235.625 121.57 233.984 113.211ZM12.3438 149.305L12.3438 34.7734L55.5469 34.7734Q66.9531 34.7734 72.9688 35.8672Q81.4063 37.2734 87.1094 41.2188Q92.8125 45.1641 96.2891 52.2734Q99.7656 59.3828 99.7656 67.8984Q99.7656 82.5078 90.4688 92.625Q81.1719 102.742 56.875 102.742L27.5 102.742L27.5 149.305L12.3438 149.305ZM119.375 149.305L119.375 34.7734L202.188 34.7734L202.188 48.2891L134.531 48.2891L134.531 83.3672L197.891 83.3672L197.891 96.8047L134.531 96.8047L134.531 135.789L204.844 135.789L204.844 149.305L119.375 149.305ZM27.5 89.2266L57.1094 89.2266Q71.7969 89.2266 77.9688 83.7578Q84.1406 78.2891 84.1406 68.3672Q84.1406 61.1797 80.5078 56.0625Q76.875 50.9453 70.9375 49.3047Q67.1094 48.2891 56.7969 48.2891L27.5 48.2891L27.5 89.2266Z" />
    </g>
    <g transform="translate(713.9219 420)">
      <path d="M233.984 113.211L219.531 116.961Q229.297 151.258 261.797 151.258Q280.703 151.258 292.148 141.297Q303.594 131.336 303.594 116.57Q303.594 106.18 297.695 98.7188Q291.797 91.2578 283.047 88.8359Q298.203 80.0078 298.203 63.9922Q298.203 51.4922 288.359 42.1563Q278.516 32.8203 261.719 32.8203Q226.797 32.8203 221.406 69.3047L235.938 72.5859Q235.938 69.0703 238.281 61.9219Q240.625 54.7734 246.758 50.4375Q252.891 46.1016 261.563 46.1016Q271.484 46.1016 277.305 51.6484Q283.125 57.1953 283.125 64.6953Q283.125 71.0234 278.867 75.9844Q274.609 80.9453 269.063 82.1563Q263.516 83.3672 253.047 83.3672L253.047 96.5703L260.313 96.5703Q272.969 96.5703 280.313 102.156Q287.656 107.742 287.656 117.195Q287.656 125.945 280.703 132.117Q273.75 138.289 261.719 138.289Q249.922 138.289 242.773 129.93Q235.625 121.57 233.984 113.211ZM12.3438 149.305L12.3438 34.7734L55.5469 34.7734Q66.9531 34.7734 72.9688 35.8672Q81.4063 37.2734 87.1094 41.2188Q92.8125 45.1641 96.2891 52.2734Q99.7656 59.3828 99.7656 67.8984Q99.7656 82.5078 90.4688 92.625Q81.1719 102.742 56.875 102.742L27.5 102.742L27.5 149.305L12.3438 149.305ZM119.375 149.305L119.375 34.7734L202.188 34.7734L202.188 48.2891L134.531 48.2891L134.531 83.3672L197.891 83.3672L197.891 96.8047L134.531 96.8047L134.531 135.789L204.844 135.789L204.844 149.305L119.375 149.305ZM27.5 89.2266L57.1094 89.2266Q71.7969 89.2266 77.9688 83.7578Q84.1406 78.2891 84.1406 68.3672Q84.1406 61.1797 80.5078 56.0625Q76.875 50.9453 70.9375 49.3047Q67.1094 48.2891 56.7969 48.2891L27.5 48.2891L27.5 89.2266Z" />
    </g>
  </g>
</svg>
