<svg xmlns="http://www.w3.org/2000/svg" version="1.2" viewBox="0 0 1024 1024">
  <g>
    <path d="M6.69996 278.313C31.0731 92.7564 209.504 -78.7002 537.869 38.2886C866.233 155.277 939.478 283.763 957.869 341.789C976.26 399.815 935.259 503.261 820.873 579.812C706.487 656.362 572.003 594.458 477.553 574.823C398.365 558.361 305.172 640.229 215.369 629.289C18.4558 605.291 -17.6732 463.87 6.69996 278.313Z" transform="translate(30.13062 197.7114)" fill="none" stroke="#000000" stroke-width="20" />
    <g transform="translate(272 409)">
      <path d="M14.7656 39.1201L14.7656 167.968L31.8164 167.968L31.8164 109.433L92.2852 109.433L92.2852 94.2275L31.8164 94.2275L31.8164 54.3252L101.689 54.3252L101.689 39.1201L14.7656 39.1201ZM159.17 39.1201L109.688 167.968L127.793 167.968L141.943 128.944L195.82 128.944L210.85 167.968L230.273 167.968L177.539 39.1201L159.17 39.1201ZM244.16 167.968L244.16 39.1201L301.289 39.1201Q318.516 39.1201 327.48 42.5918Q336.445 46.0635 341.807 54.8525Q347.168 63.6416 347.168 74.2764Q347.168 87.9873 338.291 97.3916Q329.414 106.796 310.869 109.345Q317.637 112.597 321.152 115.761Q328.623 122.616 335.303 132.899L357.715 167.968L336.27 167.968L319.219 141.161Q311.748 129.56 306.914 123.407Q302.08 117.255 298.257 114.794Q294.434 112.333 290.479 111.366Q287.578 110.751 280.986 110.751L261.211 110.751L261.211 167.968L244.16 167.968ZM373.887 39.1201L373.887 167.968L390.938 167.968L390.938 115.585L423.984 115.585Q451.318 115.585 461.777 104.203Q472.236 92.8213 472.236 76.3857Q472.236 66.8057 468.325 58.8076Q464.414 50.8096 457.998 46.3711Q451.582 41.9326 442.09 40.3506Q435.322 39.1201 422.49 39.1201L373.887 39.1201ZM190.547 115.058L146.865 115.058L161.016 77.2646Q165.498 65.0479 167.959 52.6553Q170.947 63.1143 177.1 79.374L190.547 115.058ZM261.211 95.9854L297.861 95.9854Q309.551 95.9854 316.143 93.5684Q322.734 91.1514 326.162 85.834Q329.59 80.5166 329.59 74.2764Q329.59 65.1357 322.954 59.2471Q316.318 53.3584 301.992 53.3584L261.211 53.3584L261.211 95.9854ZM424.248 100.38L390.938 100.38L390.938 54.3252L423.896 54.3252Q435.498 54.3252 439.805 55.4678Q446.484 57.3135 450.571 63.0703Q454.658 68.8272 454.658 76.9131Q454.658 88.0752 447.715 94.2275Q440.771 100.38 424.248 100.38Z" />
    </g>
  </g>
</svg>
