<svg viewBox="0 0 1024 1024">
  <g>
    <g transform="translate(326 408)">
      <path d="M13.8867 167.968L13.8867 39.1201L62.4902 39.1201Q75.3223 39.1201 82.0898 40.3506Q91.582 41.9326 97.998 46.3711Q104.414 50.8096 108.325 58.8076Q112.236 66.8057 112.236 76.3857Q112.236 92.8213 101.777 104.203Q91.3184 115.585 63.9844 115.585L30.9375 115.585L30.9375 167.968L13.8867 167.968ZM134.121 39.1201L235.459 39.1201L235.459 167.968L218.32 167.968L218.32 54.3252L151.172 54.3252L151.172 167.968L134.121 167.968L134.121 39.1201ZM353.408 39.1201L275.01 39.1201L275.01 57.9287Q275.01 129.296 259.453 152.763L249.434 152.763L249.434 198.026L264.639 198.026L264.639 167.968L349.805 167.968L349.805 198.026L365.01 198.026L365.01 152.763L353.408 152.763L353.408 39.1201ZM30.9375 100.38L64.248 100.38Q80.7715 100.38 87.7148 94.2275Q94.6582 88.0752 94.6582 76.9131Q94.6582 68.8272 90.5713 63.0703Q86.4844 57.3135 79.8047 55.4678Q75.498 54.3252 63.8965 54.3252L30.9375 54.3252L30.9375 100.38ZM291.445 54.3252L336.357 54.3252L336.357 152.763L276.943 152.763Q285.557 134.394 288.501 105.873Q291.445 77.3525 291.445 60.917L291.445 54.3252Z" />
    </g>
    <path d="M0 0L944 0L944 687L0 687L0 0Z" transform="translate(40 168.999)" fill="none" stroke="#000000" stroke-width="20" />
  </g>
</svg>
