<svg xmlns="http://www.w3.org/2000/svg" version="1.2" viewBox="0 0 1024 1024">
  <g>
    <path d="M6.69996 278.313C31.0731 92.7564 209.504 -78.7002 537.869 38.2886C866.233 155.277 939.478 283.763 957.869 341.789C976.26 399.815 935.259 503.261 820.873 579.812C706.487 656.362 572.003 594.458 477.553 574.823C398.365 558.361 305.172 640.229 215.369 629.289C18.4558 605.291 -17.6732 463.87 6.69996 278.313Z" transform="translate(30.13062 197.7114)" fill="none" stroke="#000000" stroke-width="20" />
    <g transform="translate(170.9883 409)">
      <path d="M13.8867 167.968L13.8867 39.1201L62.4902 39.1201Q75.3223 39.1201 82.0898 40.3506Q91.582 41.9326 97.998 46.3711Q104.414 50.8096 108.325 58.8076Q112.236 66.8057 112.236 76.3857Q112.236 92.8213 101.777 104.203Q91.3184 115.585 63.9844 115.585L30.9375 115.585L30.9375 167.968L13.8867 167.968ZM30.9375 100.38L64.248 100.38Q80.7715 100.38 87.7148 94.2275Q94.6582 88.0752 94.6582 76.9131Q94.6582 68.8272 90.5713 63.0703Q86.4844 57.3135 79.8047 55.4678Q75.498 54.3252 63.8965 54.3252L30.9375 54.3252L30.9375 100.38ZM126.035 121.298Q126.035 95.3701 140.449 82.8896Q152.49 72.5186 169.805 72.5186Q189.053 72.5186 201.27 85.1309Q213.486 97.7432 213.486 119.979Q213.486 137.997 208.081 148.324Q202.676 158.651 192.349 164.364Q182.021 170.077 169.805 170.077Q150.205 170.077 138.12 157.509Q126.035 144.94 126.035 121.298ZM252.686 113.388L252.686 125.78Q255.498 125.692 256.289 125.692Q266.221 125.692 270 126.703Q273.779 127.714 277.119 131.757Q280.459 135.8 280.459 141.249Q280.459 148.28 275.142 152.807Q269.824 157.333 261.826 157.333Q253.828 157.333 247.632 152.411Q241.436 147.489 239.414 138.524L224.561 141.688Q229.658 170.077 261.563 170.077Q277.998 170.077 287.139 162.255Q296.279 154.433 296.279 141.864Q296.279 133.866 292.764 128.021Q289.248 122.177 282.217 118.397Q293.291 111.63 293.291 100.204Q293.291 88.8662 284.81 80.6924Q276.328 72.5186 261.387 72.5186Q234.492 72.5186 227.461 98.7979L242.49 101.259Q247.852 85.5264 261.211 85.5264Q267.979 85.5264 272.241 89.3496Q276.504 93.1729 276.504 99.5889Q276.504 104.862 273.252 108.378Q270 111.894 266.353 112.597Q262.705 113.3 252.686 113.388ZM454.175 167.001Q462.305 163.925 471.094 156.454Q471.797 163.046 474.258 167.968L490.781 167.968Q487.793 162.606 486.782 156.762Q485.771 150.917 485.771 128.856L485.771 107.763Q485.771 97.2158 484.98 93.1729Q483.574 86.669 480.059 82.4063Q476.543 78.1436 469.072 75.3311Q461.602 72.5186 449.648 72.5186Q437.607 72.5186 428.467 75.8145Q419.326 79.1104 414.492 85.2188Q409.658 91.3271 407.549 101.259L423.018 103.368Q425.566 93.4365 430.884 89.5254Q436.201 85.6143 447.363 85.6143Q459.316 85.6143 465.381 90.9756Q469.863 94.9307 469.863 104.599Q469.863 105.478 469.775 108.729Q460.723 111.894 441.563 114.179Q432.158 115.321 427.5 116.552Q421.172 118.31 416.118 121.737Q411.064 125.165 407.944 130.834Q404.824 136.503 404.824 143.358Q404.824 155.048 413.086 162.563Q421.348 170.077 436.729 170.077Q446.045 170.077 454.175 167.001ZM314.648 74.6279L351.123 74.6279Q364.57 74.6279 371.118 76.8691Q377.666 79.1104 382.368 85.0869Q387.07 91.0635 387.07 99.4131Q387.07 106.093 384.302 111.059Q381.533 116.024 375.996 119.364Q382.588 121.562 386.938 127.582Q391.289 133.603 391.289 141.864Q390.41 155.136 381.797 161.552Q373.184 167.968 356.748 167.968L314.648 167.968L314.648 74.6279ZM510.381 74.6279L526.201 74.6279L526.201 113.476L570.059 113.476L570.059 74.6279L585.879 74.6279L585.879 167.968L570.059 167.968L570.059 126.571L526.201 126.571L526.201 167.968L510.381 167.968L510.381 74.6279ZM677.021 74.6279L601.172 74.6279L601.172 87.7236L631.23 87.7236L631.23 167.968L646.963 167.968L646.963 87.7236L677.021 87.7236L677.021 74.6279ZM142.295 121.298Q142.295 139.228 150.117 148.148Q157.939 157.069 169.805 157.069Q181.582 157.069 189.404 148.104Q197.227 139.14 197.227 120.771Q197.227 103.456 189.36 94.5352Q181.494 85.6143 169.805 85.6143Q157.939 85.6143 150.117 94.4912Q142.295 103.368 142.295 121.298ZM330.469 113.915L347.344 113.915Q357.451 113.915 361.23 112.86Q365.01 111.806 367.998 108.598Q370.986 105.39 370.986 100.907Q370.986 93.5244 365.757 90.624Q360.527 87.7236 347.871 87.7236L330.469 87.7236L330.469 113.915ZM443.936 127.099Q461.162 124.638 469.775 121.122L469.775 126.923Q469.775 137.382 467.227 142.743Q463.887 149.687 456.768 153.686Q449.648 157.685 440.508 157.685Q431.279 157.685 426.489 153.466Q421.699 149.247 421.699 142.919Q421.699 138.788 423.896 135.404Q426.094 132.021 430.137 130.263Q434.18 128.505 443.936 127.099ZM330.469 154.96L351.299 154.96Q364.746 154.96 369.756 151.84Q374.766 148.72 375.029 141.073Q375.029 136.591 372.129 132.768Q369.229 128.944 364.57 127.934Q359.912 126.923 349.629 126.923L330.469 126.923L330.469 154.96Z" />
    </g>
  </g>
</svg>
