<svg viewBox="0 0 1024 1024">
  <g>
    <path d="M6.69996 278.313C31.0731 92.7564 209.504 -78.7002 537.869 38.2886C866.233 155.277 939.478 283.763 957.869 341.789C976.26 399.815 935.259 503.261 820.873 579.812C706.487 656.362 572.003 594.458 477.553 574.823C398.365 558.361 305.172 640.229 215.369 629.289C18.4558 605.291 -17.6732 463.87 6.69996 278.313Z" transform="translate(30.13062 197.7114)" fill="none" stroke="#000000" stroke-width="20" />
    <g transform="translate(316 409)">
      <path d="M275.977 54.9844Q258.75 73.1338 258.75 105.214Q258.75 122.177 266.133 137.382Q273.516 152.587 287.842 161.376Q302.168 170.165 320.361 170.165Q337.148 170.165 351.65 162.211Q366.152 154.257 374.063 138.788Q381.973 123.319 381.973 103.72Q381.973 84.3838 374.458 69.1348Q366.943 53.8857 352.617 45.3604Q338.291 36.835 320.449 36.835Q293.203 36.835 275.977 54.9844ZM225.879 122.792L242.93 127.099Q237.568 148.104 223.638 159.135Q209.707 170.165 189.58 170.165Q168.75 170.165 155.698 161.684Q142.646 153.202 135.835 137.118Q129.023 121.034 129.023 102.577Q129.023 82.4502 136.714 67.4648Q144.404 52.4795 158.599 44.7012Q172.793 36.9229 189.844 36.9229Q209.18 36.9229 222.363 46.7666Q235.547 56.6104 240.732 74.4521L223.945 78.4072Q219.463 64.3447 210.938 57.9287Q202.412 51.5127 189.492 51.5127Q174.639 51.5127 164.663 58.6318Q154.688 65.751 150.645 77.748Q146.602 89.7451 146.602 102.489Q146.602 118.925 151.392 131.186Q156.182 143.446 166.289 149.511Q176.396 155.575 188.174 155.575Q202.5 155.575 212.432 147.313Q222.363 139.052 225.879 122.792ZM13.8867 167.968L13.8867 39.1201L62.4902 39.1201Q75.3223 39.1201 82.0898 40.3506Q91.582 41.9326 97.998 46.3711Q104.414 50.8096 108.325 58.8076Q112.236 66.8057 112.236 76.3857Q112.236 92.8213 101.777 104.203Q91.3184 115.585 63.9844 115.585L30.9375 115.585L30.9375 167.968L13.8867 167.968ZM288.853 142.172Q276.328 128.769 276.328 105.478Q276.328 76.3857 289.38 63.9492Q302.432 51.5127 320.537 51.5127Q333.281 51.5127 343.521 57.9727Q353.76 64.4326 359.077 76.166Q364.395 87.8994 364.395 103.632Q364.395 128.505 351.958 142.04Q339.521 155.575 320.273 155.575Q301.377 155.575 288.853 142.172ZM30.9375 100.38L64.248 100.38Q80.7715 100.38 87.7148 94.2275Q94.6582 88.0752 94.6582 76.9131Q94.6582 68.8272 90.5713 63.0703Q86.4844 57.3135 79.8047 55.4678Q75.498 54.3252 63.8965 54.3252L30.9375 54.3252L30.9375 100.38Z" />
    </g>
  </g>
</svg>
