<svg xmlns="http://www.w3.org/2000/svg" version="1.2" viewBox="0 0 1024 1024">
  <g>
    <path d="M6.69996 278.313C31.0731 92.7564 209.504 -78.7002 537.869 38.2886C866.233 155.277 939.478 283.763 957.869 341.789C976.26 399.815 935.259 503.261 820.873 579.812C706.487 656.362 572.003 594.458 477.553 574.823C398.365 558.361 305.172 640.229 215.369 629.289C18.4558 605.291 -17.6732 463.87 6.69996 278.313Z" transform="translate(30.13062 197.7114)" fill="none" stroke="#000000" stroke-width="20" />
    <path d="M768 1L0 1" transform="matrix(4.371139E-08 -1 -1 -4.371139E-08 657.9643 894.5332)" fill="none" stroke="#000000" stroke-width="20" />
    <path d="M0 90.5508L115.899 0L205.891 116.333" transform="matrix(-0.9925461 0.1218693 -0.1218693 -0.9925461 771.9995 120.9082)" fill="none" stroke="#000000" stroke-width="20" />
    <path d="M0 90.5508L115.899 0L205.891 116.333" transform="matrix(-0.9925461 -0.1218694 -0.1218694 0.9925461 771.9995 901.5342)" fill="none" stroke="#000000" stroke-width="20" />
  </g>
</svg>
