<svg xmlns="http://www.w3.org/2000/svg" version="1.2" viewBox="0 0 1024 1024">
  <g fill="none" stroke="#000000" stroke-width="20">
    <g transform="translate(95 505)">
      <circle  r="80" cx="0" cy="0"/>
      <path d="M-60-60l120 120M-60 60l120-120"/>
    </g>
    <g transform="translate(930 505)">
      <circle  r="80" cx="0" cy="0"/>
      <path d="M-60-60l120 120M-60 60l120-120"/>
    </g>
    <g stroke-dasharray="48 32">
      <path id="wave" d="M0 94C0 94 0 0 83 0C165 0 165 94 165 94" transform="translate(180 424)"/>
      <path id="wave" d="M0 94C0 94 0 0 83 0C165 0 165 94 165 94" transform="translate(345 424)"/>
      <path id="wave" d="M0 94C0 94 0 0 83 0C165 0 165 94 165 94" transform="translate(510 424)"/>
      <path id="wave" d="M0 94C0 94 0 0 83 0C165 0 165 94 165 94" transform="translate(675 424)"/>
    </g>
  </g>
</svg>
