<svg viewBox="0 0 1024 1024">
  <g>
    <path d="M0 0L120.002 56.0005" transform="matrix(0.9945219 -0.1045285 0.1045285 0.9945219 21.3994 614.4248)" fill="none" stroke="#000000" stroke-width="20" />
    <path d="M0 0L120 53.999" transform="matrix(0.9945219 -0.1045285 -0.1045285 -0.9945219 27.04589 668.1284)" fill="none" stroke="#000000" stroke-width="20" />
    <path d="M0 330.759C0 330.759 99.0091 -0.0240205 435.001 0.000111717C703.114 0.0193686 828.732 178.16 868.442 335.448" transform="translate(76.82227 64.45348)" fill="none" stroke="#000000" stroke-width="20" />
    <path d="M867.837 0C828.122 157.44 702.926 335.92 434.501 335.462C98.1694 334.889 0 2.70519 0 2.70519" transform="translate(77.32227 624.3388)" fill="none" stroke="#000000" stroke-width="20" />
    <g transform="translate(878 420)">
      <path d="M7.73438 93.5234Q7.73437 65.0078 23.0469 48.875Q38.3594 32.7422 62.5781 32.7422Q78.4375 32.7422 91.1719 40.3203Q103.906 47.8984 110.586 61.4531Q117.266 75.0078 117.266 92.1953Q117.266 109.617 110.234 123.367Q103.203 137.117 90.3125 144.188Q77.4219 151.258 62.5 151.258Q46.3281 151.258 33.5938 143.445Q20.8594 135.633 14.2969 122.117Q7.73437 108.602 7.73438 93.5234ZM23.3594 93.7578Q23.3594 114.461 34.4922 126.375Q45.625 138.289 62.4219 138.289Q79.5313 138.289 90.5859 126.258Q101.641 114.227 101.641 92.1172Q101.641 78.1328 96.9141 67.7031Q92.1875 57.2734 83.0859 51.5313Q73.9844 45.7891 62.6563 45.7891Q46.5625 45.7891 34.9609 56.8438Q23.3594 67.8984 23.3594 93.7578Z" />
    </g>
  </g>
</svg>
