<svg xmlns="http://www.w3.org/2000/svg" version="1.2" viewBox="0 0 1024 1024">
  <g>
    <path d="M0 53.9011C0 53.9011 31.5195 22.0275 52.8462 13.2344C74.1729 4.44122 105.725 0 105.725 0" transform="matrix(0.9510565 0.309017 -0.309017 0.9510565 189.0825 433.7368)" fill="none" stroke="#000000" stroke-width="20" />
    <path d="M0 76.5431C0 76.5431 14.4187 62.6917 39.2104 39.4385C64.0022 16.1853 79.4153 0 79.4153 0" transform="matrix(0.5150381 0.8571673 -0.8571673 0.5150381 441.5982 451.4276)" fill="none" stroke="#000000" stroke-width="20" />
    <path d="M0 0C0 0 26.125 3.375 53 3C79.875 2.625 108 0.5 108 0.5" transform="translate(567.5 534)" fill="none" stroke="#000000" stroke-width="20" />
    <path d="M68 0L136 168L0 168L68 0Z" transform="matrix(0.4539905 0.8910065 -0.8910065 0.4539905 973.6892 347.729)" fill="#000000" stroke="none" />
    <path d="M68 0L136 168L0 168L68 0Z" transform="matrix(-0.4539905 -0.8910064 0.8910064 -0.4539905 54.31688 615.9995)" fill="#000000" stroke="none" />
    <path d="M0 41.5C0 41.5 29.5 32.5 56 22.5C82.5 12.5 106.5 0 106.5 0" transform="translate(751.5 480)" fill="none" stroke="#000000" stroke-width="20" />
  </g>
</svg>
