<svg xmlns="http://www.w3.org/2000/svg" version="1.2" viewBox="0 0 1024 1024">
  <g stroke-width="20">
    <g stroke="#FFA900" fill="none">
      <path  d="M75 400l270 -270"/>
      <path  d="M50 600l450 -450"/>
      <path  d="M70 760l570 -570"/>
      <path  d="M160 850l600 -600"/>
      <path  d="M300 890l600 -600"/>
      <path  d="M530 830l450 -450"/>
      <path  d="M660 880l320 -320"/>
    </g>
    <path fill="none" d="M6.69997 342.648C31.0731 114.198 209.505 -96.8927 537.869 47.1395C866.234 191.172 859.884 127.451 907.089 195.502C954.295 263.553 935.26 619.595 820.874 713.843C706.488 808.088 572.004 731.873 477.553 707.7C398.365 687.432 305.173 788.226 215.369 774.756C18.4558 745.211 -17.6732 571.099 6.69997 342.648Z" transform="translate(45.91064 124)" stroke="#000000"/>
    <path d="M255.001 0L510 440L0 439.999L255.001 0Z" transform="matrix(-1 8.742278E-08 -8.742278E-08 -1 767.7798 732.2891)" fill="none" stroke="#000000" stroke-width="20" />
    <path d="M0 31.25C0 13.9911 13.9911 0 31.25 0C48.5089 0 62.5 13.9911 62.5 31.25C62.5 48.5089 48.5089 62.5 31.25 62.5C13.9911 62.5 0 48.5089 0 31.25Z" transform="translate(402.78 409.7891)" fill="#000000" stroke="none" />
    <path d="M0 0.00223227C0 0.00223227 54.8438 -0.778794 89.375 26.8774C123.906 54.5337 138.125 110.627 138.125 110.627" transform="translate(444.655 432.2891)" fill="none" stroke="#000000"/>
    <path d="M0 31.25C0 13.9911 13.9911 0 31.25 0C48.5089 0 62.5 13.9911 62.5 31.25C62.5 48.5089 48.5089 62.5 31.25 62.5C13.9911 62.5 0 48.5089 0 31.25Z" transform="matrix(-1 0 0 1 622.78 409.7891)" fill="#000000" stroke="none" />
    <path d="M0 0.00223227C0 0.00223227 54.8438 -0.778794 89.375 26.8774C123.906 54.5337 138.125 110.627 138.125 110.627" transform="matrix(-1 0 0 1 580.905 432.2891)" fill="none" stroke="#000000"/>
    <g transform="translate(473.3398 294)">
      <path d="M8.78906 111.979L8.78906 26.0801L41.0156 26.0801Q50.8594 26.0801 56.8066 28.6875Q62.7539 31.2949 66.123 36.7148Q69.4922 42.1348 69.4922 48.0527Q69.4922 53.5606 66.5039 58.4238Q63.5156 63.2871 57.4805 66.2754Q65.2734 68.5605 69.4629 74.0684Q73.6523 79.5762 73.6523 87.0762Q73.6523 93.1113 71.1035 98.2969Q68.5547 103.482 64.8047 106.295Q61.0547 109.107 55.4004 110.543C51.6309 111.5 47.0117 111.979 41.543 111.979L8.78906 111.979ZM20.1563 62.1738L38.7305 62.1738Q46.2891 62.1738 49.5703 61.1777Q53.9063 59.8887 56.1035 56.9004Q58.3008 53.9121 58.3008 49.4004Q58.3008 45.123 56.25 41.8711Q54.1992 38.6191 50.3906 37.418Q46.582 36.2168 37.3242 36.2168L20.1563 36.2168L20.1563 62.1738ZM20.1563 101.842L41.543 101.842Q47.0508 101.842 49.2773 101.432Q53.2031 100.729 55.8398 99.0879Q58.4766 97.4473 60.1758 94.3125Q61.875 91.1777 61.875 87.0762Q61.875 82.2715 59.4141 78.7266Q56.9531 75.1816 52.5879 73.7461Q48.2227 72.3105 40.0195 72.3105L20.1563 72.3105L20.1563 101.842Z" />
    </g>
  </g>
</svg>
