<svg xmlns="http://www.w3.org/2000/svg" version="1.2" viewBox="0 0 1024 1024">
  <g>
    <path d="M0 80C0 35.8172 35.8172 0 80 0C124.183 0 160 35.8172 160 80C160 124.183 124.183 160 80 160C35.8172 160 0 124.183 0 80Z" transform="translate(16 424)" fill="none" stroke="#000000" stroke-width="20" />
    <path d="M0 1L104 1" transform="translate(184 503)" fill="none" stroke="#000000" stroke-width="20" />
    <path d="M0 80C0 35.8172 35.8172 0 80 0C124.183 0 160 35.8172 160 80C160 124.183 124.183 160 80 160C35.8172 160 0 124.183 0 80Z" transform="translate(846 424)" fill="none" stroke="#000000" stroke-width="20" />
    <path d="M0 1L104 1" transform="translate(368 503)" fill="none" stroke="#000000" stroke-width="20" />
    <path d="M0 1L104 1" transform="translate(547.9999 503)" fill="none" stroke="#000000" stroke-width="20" />
    <path d="M0 1L104 1" transform="translate(736 503)" fill="none" stroke="#000000" stroke-width="20" />
    <g transform="translate(192 286)">
      <path d="M13.1836 39.1201L13.1836 167.968L93.6914 167.968L93.6914 152.763L30.2344 152.763L30.2344 39.1201L13.1836 39.1201ZM113.994 39.1201L113.994 167.968L160.488 167.968Q172.178 167.968 181.187 165.771Q190.195 163.573 196.567 159.311Q202.939 155.048 208.301 147.621Q213.662 140.194 217.09 128.856Q220.518 117.519 220.518 102.841Q220.518 85.6143 215.464 72.2109Q210.41 58.8076 200.215 50.1943Q192.393 43.5146 181.318 40.9658Q173.408 39.1201 158.379 39.1201L113.994 39.1201ZM158.555 152.763L131.045 152.763L131.045 54.3252L158.115 54.3252Q173.32 54.3252 180.176 56.9619Q189.668 60.6533 196.304 71.5078Q202.939 82.3623 202.939 102.577Q202.939 117.167 199.556 127.406Q196.172 137.646 190.107 143.71Q185.801 148.017 178.55 150.39Q171.299 152.763 158.555 152.763Z" />
    </g>
    <path d="M0 0L112 123.784" transform="translate(40 442)" fill="none" stroke="#000000" stroke-width="20" />
    <path d="M0 0L112 123.784" transform="matrix(-1 0 0 1 152 442)" fill="none" stroke="#000000" stroke-width="20" />
    <path d="M0 0L112 123.784" transform="translate(870 442)" fill="none" stroke="#000000" stroke-width="20" />
    <path d="M0 0L112 123.784" transform="matrix(-1 0 0 1 982 442)" fill="none" stroke="#000000" stroke-width="20" />
  </g>
</svg>
