<svg xmlns="http://www.w3.org/2000/svg" version="1.2" viewBox="0 0 1024 1024">
  <g>
    <path d="M0 468C0 209.531 209.531 0 468 0C726.469 0 936 209.531 936 468C936 726.469 726.469 936 468 936C209.531 936 0 726.469 0 468Z" transform="translate(44 44)" fill="none" stroke="#000000" stroke-width="20" />
    <path d="M0 350C0 156.7 156.7 0 350 0C543.3 0 700 156.7 700 350C700 543.3 543.3 700 350 700C156.7 700 0 543.3 0 350Z" transform="translate(162 162)" fill="none" stroke="#000000" stroke-width="20" />
    <path d="M0 150C0 67.1573 67.1573 0 150 0C232.843 0 300 67.1573 300 150C300 232.843 232.843 300 150 300C67.1573 300 0 232.843 0 150Z" transform="translate(362 362)" fill="none" stroke="#000000" stroke-width="20" />
  </g>
</svg>
