<svg xmlns="http://www.w3.org/2000/svg" version="1.2" viewBox="0 0 1024 1024">
  <g>
    <path d="M830.5 0L1.35925 0L0 215.5" transform="translate(161.5 192)" fill="none" stroke="#000000" stroke-width="20" />
    <path d="M830.039 209.001L0 208.036L0.283224 0" transform="translate(161.9609 614.9995)" fill="none" stroke="#000000" stroke-width="20" />
    <g transform="translate(0 420)">
      <path d="M6.09375 116.961L20.5469 113.211Q22.1875 121.57 29.3359 129.93Q36.4844 138.289 48.2813 138.289Q60.3125 138.289 67.2656 132.117Q74.2188 125.945 74.2188 117.195Q74.2188 107.742 66.875 102.156Q59.5313 96.5703 46.875 96.5703L39.6094 96.5703L39.6094 83.3672Q50.0781 83.3672 55.625 82.1563Q61.1719 80.9453 65.4297 75.9844Q69.6875 71.0234 69.6875 64.6953Q69.6875 57.1953 63.8672 51.6484Q58.0469 46.1016 48.125 46.1016Q39.4531 46.1016 33.3203 50.4375Q27.1875 54.7734 24.8438 61.9219Q22.5 69.0703 22.5 72.5859L7.96875 69.3047Q13.3594 32.8203 48.2813 32.8203Q65.0781 32.8203 74.9219 42.1563Q84.7656 51.4922 84.7656 63.9922Q84.7656 80.0078 69.6094 88.8359Q78.3594 91.2578 84.2578 98.7188Q90.1562 106.18 90.1563 116.57Q90.1563 131.336 78.7109 141.297Q67.2656 151.258 48.3594 151.258Q15.8594 151.258 6.09375 116.961ZM119.375 34.7734L189.063 34.7734L189.063 135.789L199.375 135.789L199.375 176.023L185.859 176.023L185.859 149.305L110.156 149.305L110.156 176.023L96.6406 176.023L96.6406 135.789L105.547 135.789Q119.375 114.93 119.375 51.4922L119.375 34.7734ZM217.344 34.7734L217.344 149.305L232.5 149.305L232.5 102.742L261.875 102.742Q286.172 102.742 295.469 92.625Q304.766 82.5078 304.766 67.8984Q304.766 59.3828 301.289 52.2734Q297.813 45.1641 292.109 41.2188Q286.406 37.2734 277.969 35.8672Q271.953 34.7734 260.547 34.7734L217.344 34.7734ZM173.906 48.2891L133.984 48.2891L133.984 54.1484Q133.984 68.7578 131.367 94.1094Q128.75 119.461 121.094 135.789L173.906 135.789L173.906 48.2891ZM262.109 89.2266L232.5 89.2266L232.5 48.2891L261.797 48.2891Q272.109 48.2891 275.938 49.3047Q281.875 50.9453 285.508 56.0625Q289.141 61.1797 289.141 68.3672Q289.141 78.2891 282.969 83.7578Q276.797 89.2266 262.109 89.2266Z" />
    </g>
  </g>
</svg>
