<svg xmlns="http://www.w3.org/2000/svg" version="1.2" viewBox="0 0 40 40" width="40" height="40">
  <path d="M16.25 9C12.6 9.04 9.68 9.69 7.5 10.94C5.32 12.19 4.07 14.46 3.75 17.75" id="b7BumUatS" stroke-width="1" stroke="black" fill="none" fill-opacity="1"></path>
  <path d="M36.25 15.25C36.21 12.95 35.15 11.33 33.06 10.42C30.98 9.5 27.88 9.03 24.75 9" id="d1PXobnvC" stroke-width="1" stroke="black" fill="none" fill-opacity="1"></path>
  <path d="M24.94 31.5C28.06 31.61 31.17 30.92 33.25 29.44C35.33 27.95 36.33 26.14 36.25 24" id="c4Mb1vND5M" stroke-width="1" stroke="black" fill="none" fill-opacity="1"></path>
  <path d="M3.56 26.25C3.75 27.63 4.87 29.17 6.94 29.88C9 30.58 12.16 31.12 16.4 31.5" id="a2Ig8gZ7e" stroke-width="1" stroke="black" fill="none" fill-opacity="1"></path>
  <path d="M14.06 20.5C14.06 21.88 12.94 23 11.56 23C10.18 23 9.06 21.88 9.06 20.5C9.06 19.12 10.18 18 11.56 18C12.94 18 14.06 19.12 14.06 20.5Z" id="a6Lc1Egz" stroke-width="1" stroke="black" fill="none" fill-opacity="1"></path>
  <path d="M22.5 20.56C22.5 21.94 21.38 23.06 20 23.06C18.62 23.06 17.5 21.94 17.5 20.56C17.5 19.18 18.62 18.06 20 18.06C21.38 18.06 22.5 19.18 22.5 20.56Z" id="e38jpTgC0V" stroke-width="1" stroke="black" fill="black" fill-opacity="1"></path>
  <path d="M31.25 20.5C31.25 21.88 30.13 23 28.75 23C27.37 23 26.25 21.88 26.25 20.5C26.25 19.12 27.37 18 28.75 18C30.13 18 31.25 19.12 31.25 20.5Z" id="a5p0pfX9j" stroke-width="1" stroke="black" fill="black" fill-opacity="1"></path>
  <path d="M27.19 18.53L25.94 15.25" id="d1D6r5sqdo" stroke-width="1" stroke="black" fill="none" fill-opacity="1"></path>
  <path d="M30.31 18.72L31.56 15.25" id="eNoQ9bNGn" stroke-width="1" stroke="black" fill="none" fill-opacity="1"></path>
  <text x="4" y="24.5" text-anchor="middle" font-size="7" font-family="Arial" font-weight="bold" stroke-width="1" stroke="none" fill="black">M</text>
  <text x="20" y="11" text-anchor="middle" font-size="7" font-family="Arial" font-weight="bold" stroke-width="1" stroke="none" fill="black">M</text>
  <text x="37" y="22.5" text-anchor="middle" font-size="7" font-family="Arial" font-weight="bold" stroke-width="1" stroke="none" fill="black">M</text>
  <text x="21" y="34" text-anchor="middle" font-size="7" font-family="Arial" font-weight="bold" stroke-width="1" stroke="none" fill="black">M</text>
</svg>
