<svg viewBox="0 0 1024 1024">
  <g>
    <path d="M120 0L240 225L0 225L120 0Z" transform="translate(32.00098 398.999)" fill="#000000" stroke="none" />
    <path d="M0 75C0 33.5786 33.5786 0 75 0C116.421 0 150 33.5786 150 75C150 116.421 116.421 150 75 150C33.5786 150 0 116.421 0 75Z" transform="translate(196.9995 325.001)" fill="#000000" stroke="none" />
    <path d="M0 75C0 33.5786 33.5786 0 75 0C116.421 0 150 33.5786 150 75C150 116.421 116.421 150 75 150C33.5786 150 0 116.421 0 75Z" transform="translate(436.9995 325.001)" fill="#000000" stroke="none" />
    <path d="M0 75C0 33.5786 33.5786 0 75 0C116.421 0 150 33.5786 150 75C150 116.421 116.421 150 75 150C33.5786 150 0 116.421 0 75Z" transform="translate(676.9995 325.001)" fill="#000000" stroke="none" />
    <path d="M120 0L240 225L0 225L120 0Z" transform="translate(272 398.999)" fill="#000000" stroke="none" />
    <path d="M120 0L240 225L0 225L120 0Z" transform="translate(511.999 399.0039)" fill="#000000" stroke="none" />
    <path d="M120 0L240 225L0 225L120 0Z" transform="translate(751.998 399.0039)" fill="#000000" stroke="none" />
  </g>
</svg>
