<svg viewBox="0 0 1024 1024">
  <g>
    <path d="M0 9.56864e-05C0 9.56864e-05 438.805 0.0117342 743.172 9.45658e-05C1047.54 -0.011545 1035.7 479.448 751.078 479.377C466.452 479.306 32.5 480 32.5 480" transform="translate(24 272.0164)" fill="none" stroke="#000000" stroke-width="20" />
    <g transform="translate(379 420)">
      <path d="M12.5781 149.305L12.5781 34.7734L63.3594 34.7734Q78.6719 34.7734 86.6406 37.8594Q94.6094 40.9453 99.375 48.7578Q104.141 56.5703 104.141 66.0234Q104.141 78.2109 96.25 86.5703Q88.3594 94.9297 71.875 97.1953Q77.8906 100.086 81.0156 102.898Q87.6563 108.992 93.5938 118.133L113.516 149.305L94.4531 149.305L79.2969 125.477Q72.6562 115.164 68.3594 109.695Q64.0625 104.227 60.6641 102.039Q57.2656 99.8516 53.75 98.9922Q51.1719 98.4453 45.3125 98.4453L27.7344 98.4453L27.7344 149.305L12.5781 149.305ZM130.469 149.305L130.469 34.7734L145.625 34.7734L145.625 149.305L130.469 149.305ZM172.344 34.7734L172.344 149.305L187.5 149.305L187.5 102.742L216.875 102.742Q241.172 102.742 250.469 92.625Q259.766 82.5078 259.766 67.8984Q259.766 59.3828 256.289 52.2734Q252.813 45.1641 247.109 41.2188Q241.406 37.2734 232.969 35.8672Q226.953 34.7734 215.547 34.7734L172.344 34.7734ZM27.7344 85.3203L60.3125 85.3203Q70.7031 85.3203 76.5625 83.1719Q82.4219 81.0234 85.4688 76.2969Q88.5156 71.5703 88.5156 66.0234Q88.5156 57.8984 82.6172 52.6641Q76.7187 47.4297 63.9844 47.4297L27.7344 47.4297L27.7344 85.3203ZM217.109 89.2266L187.5 89.2266L187.5 48.2891L216.797 48.2891Q227.109 48.2891 230.938 49.3047Q236.875 50.9453 240.508 56.0625Q244.141 61.1797 244.141 68.3672Q244.141 78.2891 237.969 83.7578Q231.797 89.2266 217.109 89.2266Z" />
    </g>
    <path d="M0 96.8963L68.3195 0L111.227 110.049" transform="matrix(-0.1218693 0.9925461 0.9925461 0.1218693 53.77148 684.5884)" fill="none" stroke="#000000" stroke-width="20" />
  </g>
</svg>
