<svg xmlns="http://www.w3.org/2000/svg" version="1.2" viewBox="0 0 1024 1024">
  <g>
    <path d="M304 1L0 1" transform="translate(24 510.9985)" fill="none" stroke="#000000" stroke-width="20" />
    <path d="M304.001 1L0 1" transform="translate(696 510.9995)" fill="none" stroke="#000000" stroke-width="20" />
    <g transform="translate(362 420)">
      <path d="M224.531 113.211L210.078 116.961Q219.844 151.258 252.344 151.258Q271.25 151.258 282.695 141.297Q294.141 131.336 294.141 116.57Q294.141 106.18 288.242 98.7188Q282.344 91.2578 273.594 88.8359Q288.75 80.0078 288.75 63.9922Q288.75 51.4922 278.906 42.1563Q269.063 32.8203 252.266 32.8203Q217.344 32.8203 211.953 69.3047L226.484 72.5859Q226.484 69.0703 228.828 61.9219Q231.172 54.7734 237.305 50.4375Q243.438 46.1016 252.109 46.1016Q262.031 46.1016 267.852 51.6484Q273.672 57.1953 273.672 64.6953Q273.672 71.0234 269.414 75.9844Q265.156 80.9453 259.609 82.1563Q254.063 83.3672 243.594 83.3672L243.594 96.5703L250.859 96.5703Q263.516 96.5703 270.859 102.156Q278.203 107.742 278.203 117.195Q278.203 125.945 271.25 132.117Q264.297 138.289 252.266 138.289Q240.469 138.289 233.32 129.93Q226.172 121.57 224.531 113.211ZM12.5 34.7734L102.578 34.7734L102.578 149.305L87.3438 149.305L87.3438 48.2891L27.6563 48.2891L27.6563 149.305L12.5 149.305L12.5 34.7734ZM125.547 181.102L125.547 66.3359L138.359 66.3359L138.359 77.1172Q142.891 70.7891 148.594 67.625Q154.297 64.4609 162.422 64.4609Q173.047 64.4609 181.172 69.9297Q189.297 75.3984 193.438 85.3594Q197.578 95.3203 197.578 107.195Q197.578 119.93 193.008 130.125Q188.438 140.32 179.727 145.75Q171.016 151.18 161.406 151.18Q154.375 151.18 148.789 148.211Q143.203 145.242 139.609 140.711L139.609 181.102L125.547 181.102ZM138.281 108.289Q138.281 124.305 144.766 131.961Q151.25 139.617 160.469 139.617Q169.844 139.617 176.523 131.688Q183.203 123.758 183.203 107.117Q183.203 91.2578 176.68 83.3672Q170.156 75.4766 161.094 75.4766Q152.109 75.4766 145.195 83.875Q138.281 92.2734 138.281 108.289Z" />
    </g>
  </g>
</svg>
