<svg xmlns="http://www.w3.org/2000/svg" version="1.2" viewBox="0 0 1024 1024">
  <g>
    <path d="M0 80C0 35.8172 35.8172 0 80 0C124.183 0 160 35.8172 160 80C160 124.183 124.183 160 80 160C35.8172 160 0 124.183 0 80Z" transform="translate(246 424)" fill="none" stroke="#000000" stroke-width="20" />
    <path d="M0 80C0 35.8172 35.8172 0 80 0C124.183 0 160 35.8172 160 80C160 124.183 124.183 160 80 160C35.8172 160 0 124.183 0 80Z" transform="translate(846 424)" fill="none" stroke="#000000" stroke-width="20" />
    <path d="M0 1L104 1" transform="translate(400 504)" fill="none" stroke="#000000" stroke-width="20" />
    <path d="M0 1L104 1" transform="translate(744.0001 504)" fill="none" stroke="#000000" stroke-width="20" />
    <g transform="translate(0 401)">
      <path d="M13.8867 39.1201L13.8867 167.968L30.9375 167.968L30.9375 115.585L63.9844 115.585Q91.3184 115.585 101.777 104.203Q112.236 92.8213 112.236 76.3857Q112.236 66.8057 108.325 58.8076Q104.414 50.8096 97.998 46.3711Q91.582 41.9326 82.0898 40.3506Q75.3223 39.1201 62.4902 39.1201L13.8867 39.1201ZM133.242 39.1201L133.242 167.968L213.75 167.968L213.75 152.763L150.293 152.763L150.293 39.1201L133.242 39.1201ZM64.248 100.38L30.9375 100.38L30.9375 54.3252L63.8965 54.3252Q75.498 54.3252 79.8047 55.4678Q86.4844 57.3135 90.5713 63.0703Q94.6582 68.8272 94.6582 76.9131Q94.6582 88.0752 87.7148 94.2275Q80.7715 100.38 64.248 100.38Z" />
    </g>
    <path d="M0 0L112 123.784" transform="translate(270 442)" fill="none" stroke="#000000" stroke-width="20" />
    <path d="M0 0L112 123.784" transform="matrix(-1 0 0 1 382 442)" fill="none" stroke="#000000" stroke-width="20" />
    <path d="M0 0L112 123.784" transform="translate(870 442)" fill="none" stroke="#000000" stroke-width="20" />
    <path d="M0 0L112 123.784" transform="matrix(-1 0 0 1 982 442)" fill="none" stroke="#000000" stroke-width="20" />
    <path d="M0 1L104 1" transform="translate(572 503)" fill="none" stroke="#000000" stroke-width="20" />
  </g>
</svg>
