<svg xmlns="http://www.w3.org/2000/svg" version="1.2" viewBox="0 0 1024 1024">
  <g>
    <path d="M0 912L88 808.5L88 114L0 0" transform="translate(156 56)" fill="none" stroke="#000000" stroke-width="20" />
    <path d="M0 912L87.9999 808.5L87.9999 114L0 0" transform="matrix(-1 0 0 1 868 56)" fill="none" stroke="#000000" stroke-width="20" />
    <path d="M0 981.5L33 826.5C59.1222 788.923 74.8625 751.135 88.0002 632C110 432.5 25.1252 457.75 5.00012 306.5C-15.125 155.25 48.0002 0 48.0002 0" transform="matrix(-1 0 0 1 711.5001 29)" fill="none" stroke="#59ADFF" stroke-width="20" />
    <path d="M0 981.5L33 826.5C59.1222 788.923 74.8625 751.135 88.0001 632C110 432.5 25.1252 457.75 5.00012 306.5C-15.125 155.25 48.0002 0 48.0002 0" transform="matrix(-1 0 0 1 381.3885 28)" fill="none" stroke="#59ADFF" stroke-width="20" />
  </g>
</svg>
