<svg xmlns="http://www.w3.org/2000/svg" version="1.2" viewBox="0 0 1024 1024">
  <g>
    <path d="M352 1L0 1" transform="translate(24 510)" fill="none" stroke="#000000" stroke-width="20" />
    <path d="M352 1L0 1" transform="translate(648 510)" fill="none" stroke="#000000" stroke-width="20" />
    <g transform="translate(410 420)">
      <path d="M127.266 113.211L112.813 116.961Q122.578 151.258 155.078 151.258Q173.984 151.258 185.43 141.297Q196.875 131.336 196.875 116.57Q196.875 106.18 190.977 98.7188Q185.078 91.2578 176.328 88.8359Q191.484 80.0078 191.484 63.9922Q191.484 51.4922 181.641 42.1563Q171.797 32.8203 155 32.8203Q120.078 32.8203 114.688 69.3047L129.219 72.5859Q129.219 69.0703 131.563 61.9219Q133.906 54.7734 140.039 50.4375Q146.172 46.1016 154.844 46.1016Q164.766 46.1016 170.586 51.6484Q176.406 57.1953 176.406 64.6953Q176.406 71.0234 172.148 75.9844Q167.891 80.9453 162.344 82.1563Q156.797 83.3672 146.328 83.3672L146.328 96.5703L153.594 96.5703Q166.25 96.5703 173.594 102.156Q180.938 107.742 180.938 117.195Q180.938 125.945 173.984 132.117Q167.031 138.289 155 138.289Q143.203 138.289 136.055 129.93Q128.906 121.57 127.266 113.211ZM12.3438 34.7734L12.3438 149.305L27.5 149.305L27.5 102.742L56.875 102.742Q81.1719 102.742 90.4688 92.625Q99.7656 82.5078 99.7656 67.8984Q99.7656 59.3828 96.2891 52.2734Q92.8125 45.1641 87.1094 41.2188Q81.4063 37.2734 72.9688 35.8672Q66.9531 34.7734 55.5469 34.7734L12.3438 34.7734ZM57.1094 89.2266L27.5 89.2266L27.5 48.2891L56.7969 48.2891Q67.1094 48.2891 70.9375 49.3047Q76.875 50.9453 80.5078 56.0625Q84.1406 61.1797 84.1406 68.3672Q84.1406 78.2891 77.9688 83.7578Q71.7969 89.2266 57.1094 89.2266Z" />
    </g>
  </g>
</svg>
