<svg viewBox="0 0 1024 1024">
  <g>
    <path d="M1 250L1 0" transform="matrix(-4.371139E-08 -1 1 -4.371139E-08 387 33.00047)" fill="none" stroke="#000000" stroke-width="20" />
    <path d="M1 0L1 112" transform="translate(511 32)" fill="none" stroke="#000000" stroke-width="20" />
    <path d="M1 0L1 128" transform="translate(510.9999 448.0005)" fill="none" stroke="#000000" stroke-width="20" />
    <path d="M1 0L1 120" transform="translate(510.9999 880.001)" fill="none" stroke="#000000" stroke-width="20" />
    <path d="M1 250L1 0" transform="matrix(-4.371139E-08 -1 1 -4.371139E-08 387.999 1001)" fill="none" stroke="#000000" stroke-width="20" />
    <path d="M0 0L250 0L250 300L0 300L0 0Z" transform="translate(387 578)" fill="none" stroke="#000000" stroke-width="20" />
    <path d="M0 0L250 0L250 300L0 300L0 0Z" transform="translate(387 146)" fill="none" stroke="#000000" stroke-width="20" />
  </g>
</svg>
