<svg viewBox="0 0 1024 1024">
  <g>
    <path d="M688 167.5L608 0.5L82.5 0L0 167.5" transform="matrix(-4.371139E-08 1 -1 -4.371139E-08 329.5361 168.2634)" fill="none" stroke="#000000" stroke-width="20" />
    <path d="M176 500L0 0" transform="matrix(-4.371139E-08 1 -1 -4.371139E-08 829.5361 72.7634)" fill="none" stroke="#000000" stroke-width="20" />
    <path d="M176 500L0 0" transform="matrix(4.371139E-08 -1 -1 -4.371139E-08 829.536 952.7635)" fill="none" stroke="#000000" stroke-width="20" />
    <path d="M0 96.8963L68.3195 0L111.227 110.049" transform="matrix(-0.2079116 0.9781476 -0.9781476 -0.2079116 861.7363 891.8542)" fill="none" stroke="#000000" stroke-width="20" />
    <path d="M0 96.8963L68.3195 0L111.227 110.049" transform="matrix(-0.2079117 -0.9781476 -0.9781476 0.2079117 861.7364 133.446)" fill="none" stroke="#000000" stroke-width="20" />
  </g>
</svg>
