<svg viewBox="0 0 1024 1024">
  <g>
    <path d="M6.69996 278.313C31.0731 92.7564 209.504 -78.7002 537.869 38.2886C866.233 155.277 939.478 283.763 957.869 341.789C976.26 399.815 935.259 503.261 820.873 579.812C706.487 656.362 572.003 594.458 477.553 574.823C398.365 558.361 305.172 640.229 215.369 629.289C18.4558 605.291 -17.6732 463.87 6.69996 278.313Z" transform="translate(30.13062 197.7114)" fill="none" stroke="#000000" stroke-width="20" />
    <g transform="translate(330.9883 409)">
      <path d="M13.1836 167.968L13.1836 39.1201L61.5234 39.1201Q76.2891 39.1201 85.21 43.0313Q94.1309 46.9424 99.1846 55.0723Q104.238 63.2022 104.238 72.0791Q104.238 80.3408 99.7559 87.6357Q95.2734 94.9307 86.2207 99.4131Q97.9102 102.841 104.194 111.103Q110.479 119.364 110.479 130.614Q110.479 139.667 106.655 147.445Q102.832 155.224 97.207 159.442Q91.582 163.661 83.1006 165.814Q74.6191 167.968 62.3145 167.968L13.1836 167.968ZM133.945 167.968L133.945 39.1201L182.549 39.1201Q195.381 39.1201 202.148 40.3506Q211.641 41.9326 218.057 46.3711Q224.473 50.8096 228.384 58.8076Q232.295 66.8057 232.295 76.3857Q232.295 92.8213 221.836 104.203Q211.377 115.585 184.043 115.585L150.996 115.585L150.996 167.968L133.945 167.968ZM344.092 39.1201L265.693 39.1201L265.693 57.9287Q265.693 129.296 250.137 152.763L240.117 152.763L240.117 198.026L255.322 198.026L255.322 167.968L340.488 167.968L340.488 198.026L355.693 198.026L355.693 152.763L344.092 152.763L344.092 39.1201ZM30.2344 93.2607L58.0957 93.2607Q69.4336 93.2607 74.3555 91.7666Q80.8594 89.833 84.1553 85.3506Q87.4512 80.8682 87.4512 74.1006Q87.4512 67.6846 84.375 62.8066Q81.2988 57.9287 75.5859 56.127Q69.873 54.3252 55.9863 54.3252L30.2344 54.3252L30.2344 93.2607ZM150.996 100.38L184.307 100.38Q200.83 100.38 207.773 94.2275Q214.717 88.0752 214.717 76.9131Q214.717 68.8272 210.63 63.0703Q206.543 57.3135 199.863 55.4678Q195.557 54.3252 183.955 54.3252L150.996 54.3252L150.996 100.38ZM282.129 54.3252L327.041 54.3252L327.041 152.763L267.627 152.763Q276.24 134.394 279.185 105.873Q282.129 77.3525 282.129 60.917L282.129 54.3252ZM30.2344 152.763L62.3145 152.763Q70.5762 152.763 73.916 152.147Q79.8047 151.093 83.7598 148.632Q87.7148 146.171 90.2637 141.469Q92.8125 136.767 92.8125 130.614Q92.8125 123.407 89.1211 118.09Q85.4297 112.772 78.8818 110.619Q72.334 108.466 60.0293 108.466L30.2344 108.466L30.2344 152.763Z" />
    </g>
  </g>
</svg>
