<svg xmlns="http://www.w3.org/2000/svg" version="1.2" viewBox="0 0 1024 1024">
  <g>
    <g transform="translate(358.3262 118.082)">
      <path d="M94.0625 109.148L109.219 112.977Q104.453 131.648 92.0703 141.453Q79.6875 151.258 61.7969 151.258Q43.2813 151.258 31.6797 143.719Q20.0781 136.18 14.0234 121.883Q7.96875 107.586 7.96875 91.1797Q7.96875 73.2891 14.8047 59.9688Q21.6406 46.6484 34.2578 39.7344Q46.875 32.8203 62.0313 32.8203Q79.2187 32.8203 90.9375 41.5703Q102.656 50.3203 107.266 66.1797L92.3438 69.6953Q88.3594 57.1953 80.7813 51.4922Q73.2031 45.7891 61.7188 45.7891Q48.5156 45.7891 39.6484 52.1172Q30.7812 58.4453 27.1875 69.1094Q23.5937 79.7734 23.5938 91.1016Q23.5938 105.711 27.8516 116.609Q32.1094 127.508 41.0938 132.898Q50.0781 138.289 60.5469 138.289Q73.2812 138.289 82.1094 130.945Q90.9375 123.602 94.0625 109.148ZM214.531 34.7734L214.531 149.305L229.688 149.305L229.688 102.742L259.063 102.742Q283.359 102.742 292.656 92.625Q301.953 82.5078 301.953 67.8984Q301.953 59.3828 298.477 52.2734Q295 45.1641 289.297 41.2188Q283.594 37.2734 275.156 35.8672Q269.141 34.7734 257.734 34.7734L214.531 34.7734ZM259.297 89.2266L229.688 89.2266L229.688 48.2891L258.984 48.2891Q269.297 48.2891 273.125 49.3047Q279.063 50.9453 282.695 56.0625Q286.328 61.1797 286.328 68.3672Q286.328 78.2891 280.156 83.7578Q273.984 89.2266 259.297 89.2266ZM126.172 66.3359L191.641 66.3359L191.641 149.305L177.578 149.305L177.578 77.9766L140.234 77.9766L140.234 149.305L126.172 149.305L126.172 66.3359Z" />
    </g>
    <g transform="translate(365 684)">
      <path d="M94.0625 109.148L109.219 112.977Q104.453 131.648 92.0703 141.453Q79.6875 151.258 61.7969 151.258Q43.2813 151.258 31.6797 143.719Q20.0781 136.18 14.0234 121.883Q7.96875 107.586 7.96875 91.1797Q7.96875 73.2891 14.8047 59.9688Q21.6406 46.6484 34.2578 39.7344Q46.875 32.8203 62.0313 32.8203Q79.2187 32.8203 90.9375 41.5703Q102.656 50.3203 107.266 66.1797L92.3438 69.6953Q88.3594 57.1953 80.7813 51.4922Q73.2031 45.7891 61.7188 45.7891Q48.5156 45.7891 39.6484 52.1172Q30.7812 58.4453 27.1875 69.1094Q23.5937 79.7734 23.5938 91.1016Q23.5938 105.711 27.8516 116.609Q32.1094 127.508 41.0938 132.898Q50.0781 138.289 60.5469 138.289Q73.2812 138.289 82.1094 130.945Q90.9375 123.602 94.0625 109.148ZM214.531 34.7734L214.531 149.305L229.688 149.305L229.688 102.742L259.063 102.742Q283.359 102.742 292.656 92.625Q301.953 82.5078 301.953 67.8984Q301.953 59.3828 298.477 52.2734Q295 45.1641 289.297 41.2188Q283.594 37.2734 275.156 35.8672Q269.141 34.7734 257.734 34.7734L214.531 34.7734ZM259.297 89.2266L229.688 89.2266L229.688 48.2891L258.984 48.2891Q269.297 48.2891 273.125 49.3047Q279.063 50.9453 282.695 56.0625Q286.328 61.1797 286.328 68.3672Q286.328 78.2891 280.156 83.7578Q273.984 89.2266 259.297 89.2266ZM126.172 66.3359L191.641 66.3359L191.641 149.305L177.578 149.305L177.578 77.9766L140.234 77.9766L140.234 149.305L126.172 149.305L126.172 66.3359Z" />
    </g>
    <path d="M310 576.546C310 576.546 231.432 618.184 187.296 614.548C143.161 610.911 51.0303 590.421 17.8501 477.562C-15.3301 364.702 -7.19207 183.043 84.6271 89.0464C176.446 -4.94975 306.244 0.0461242 306.244 0.0461242" transform="translate(25.61621 214.4541)" fill="none" stroke="#000000" stroke-width="20" />
    <path d="M292.001 565.504C292.001 565.504 231.284 601.146 162.736 593.508C94.1887 585.871 3.98598 473.364 0.154254 369.503C-3.67747 265.642 64.7874 132.997 104.1 84.0002C143.413 35.0029 227.368 1.62438 293 0" transform="matrix(-1 0 0 1 988.7314 218)" fill="none" stroke="#000000" stroke-width="20" />
  </g>
</svg>
