<svg viewBox="0 0 1024 1024">
  <g>
    <g transform="translate(416 664)">
      <path d="M-0.234375 149.305L43.75 34.7734L60.0781 34.7734L106.953 149.305L89.6875 149.305L76.3281 114.617L28.4375 114.617L15.8594 149.305L-0.234375 149.305ZM32.8125 102.273L71.6406 102.273L59.6875 70.5547Q54.2188 56.1016 51.5625 46.8047Q49.375 57.8203 45.3906 68.6797L32.8125 102.273Z" />
    </g>
    <path d="M369.635 556.761C369.635 556.761 278.511 592.403 175.636 584.765C123.532 580.897 29.63 533.538 9.1341 481.754C-10.8381 431.293 41.9723 377.013 39.1342 325.754C36.6941 281.684 -2.57995 249.842 0.134393 211.253C3.81703 158.898 118.669 142.461 152.635 114.254C204.029 71.5724 180.126 -8.61023 270.634 0.753635C384.043 12.4868 357.402 106.846 507.136 157.254C569.885 178.378 710.891 83.9245 740.633 118.254C781.864 165.843 828.813 228.242 836.135 284.254C848.738 380.672 872.191 438.141 811.133 522.756C750.075 607.372 651.134 585.257 651.134 585.257L528.445 563.418" transform="matrix(-1 0 0 1 920.1354 218.7461)" fill="none" stroke="#000000" stroke-width="20" />
  </g>
</svg>
