<svg xmlns="http://www.w3.org/2000/svg" version="1.2" viewBox="0 0 1024 1024">
  <g>
    <path d="M6.69996 278.313C31.0731 92.7564 209.504 -78.7002 537.869 38.2886C866.233 155.277 939.478 283.763 957.869 341.789C976.26 399.815 935.259 503.261 820.873 579.812C706.487 656.362 572.003 594.458 477.553 574.823C398.365 558.361 305.172 640.229 215.369 629.289C18.4558 605.291 -17.6732 463.87 6.69996 278.313Z" transform="translate(30.13062 197.7114)" fill="none" stroke="#000000" stroke-width="20" />
    <g transform="translate(313.9883 409)">
      <path d="M14.2383 39.1201L14.2383 167.968L110.391 167.968L110.391 152.763L31.2891 152.763L31.2891 108.905L102.568 108.905L102.568 93.7881L31.2891 93.7881L31.2891 54.3252L107.402 54.3252L107.402 39.1201L14.2383 39.1201ZM288.457 156.454Q279.668 163.925 271.538 167.001Q263.408 170.077 254.092 170.077Q238.711 170.077 230.449 162.563Q222.188 155.048 222.188 143.358Q222.188 136.503 225.308 130.834Q228.428 125.165 233.481 121.737Q238.535 118.31 244.863 116.552Q249.521 115.321 258.926 114.179Q278.086 111.894 287.139 108.729Q287.227 105.478 287.227 104.599Q287.227 94.9307 282.744 90.9756Q276.68 85.6143 264.727 85.6143Q253.564 85.6143 248.247 89.5254Q242.93 93.4365 240.381 103.368L224.912 101.259Q227.021 91.3271 231.855 85.2188Q236.689 79.1104 245.83 75.8145Q254.971 72.5186 267.012 72.5186Q278.965 72.5186 286.436 75.3311Q293.906 78.1436 297.422 82.4063Q300.938 86.669 302.344 93.1729Q303.135 97.2158 303.135 107.763L303.135 128.856Q303.135 150.917 304.146 156.762Q305.156 162.606 308.145 167.968L291.621 167.968Q289.16 163.046 288.457 156.454ZM168.486 74.6279L132.012 74.6279L132.012 167.968L174.111 167.968Q190.547 167.968 199.16 161.552Q207.773 155.136 208.652 141.864Q208.652 133.603 204.302 127.582Q199.951 121.562 193.359 119.364Q198.896 116.024 201.665 111.059Q204.434 106.093 204.434 99.4131Q204.434 91.0635 199.731 85.0869Q195.029 79.1104 188.481 76.8691Q181.934 74.6279 168.486 74.6279ZM343.389 74.6279L327.568 74.6279L327.568 167.968L343.389 167.968L343.389 124.813Q348.75 124.813 352.617 127.582Q356.484 130.351 361.67 139.052L378.545 167.968L395.947 167.968L378.633 139.052Q368.789 122.792 358.594 120.067Q364.834 117.167 367.822 113.651Q370.811 110.136 374.414 100.995Q378.193 91.415 380.039 89.4814Q381.797 87.6357 388.037 87.6357L392.432 87.7236L392.432 74.6279L389.268 74.6279Q380.918 74.6279 377.139 75.8584Q373.359 77.0889 370.459 80.6045Q367.559 84.1201 362.9 95.1943Q357.012 109.169 353.979 112.069Q350.947 114.97 343.389 114.97L343.389 74.6279ZM164.707 113.915L147.832 113.915L147.832 87.7236L165.234 87.7236Q177.891 87.7236 183.12 90.624Q188.35 93.5244 188.35 100.907Q188.35 105.39 185.361 108.598Q182.373 111.806 178.594 112.86Q174.814 113.915 164.707 113.915ZM287.139 121.122Q278.525 124.638 261.299 127.099Q251.543 128.505 247.5 130.263Q243.457 132.021 241.26 135.404Q239.063 138.788 239.063 142.919Q239.063 149.247 243.853 153.466Q248.643 157.685 257.871 157.685Q267.012 157.685 274.131 153.686Q281.25 149.687 284.59 142.743Q287.139 137.382 287.139 126.923L287.139 121.122ZM168.662 154.96L147.832 154.96L147.832 126.923L166.992 126.923Q177.275 126.923 181.934 127.934Q186.592 128.944 189.492 132.768Q192.393 136.591 192.393 141.073Q192.129 148.72 187.119 151.84Q182.109 154.96 168.662 154.96Z" />
    </g>
  </g>
</svg>
