<svg viewBox="0 0 1024 1024">
  <g>
    <path d="M312 1L0 1" transform="translate(24 510.9985)" fill="none" stroke="#000000" stroke-width="100" />
    <path d="M312 1L0 1" transform="translate(688 510.9995)" fill="none" stroke="#000000" stroke-width="100" />
    <g transform="translate(369 420)">
      <path d="M80.5469 135.789L80.5469 149.305L4.84375 149.305Q4.6875 144.227 6.48438 139.539Q9.375 131.805 15.7422 124.305Q22.1094 116.805 34.1406 106.961Q52.8125 91.6484 59.375 82.7031Q65.9375 73.7578 65.9375 65.7891Q65.9375 57.4297 59.9609 51.6875Q53.9844 45.9453 44.375 45.9453Q34.2187 45.9453 28.125 52.0391Q22.0313 58.1328 21.9531 68.9141L7.5 67.4297Q8.98438 51.2578 18.6719 42.7813Q28.3594 34.3047 44.6875 34.3047Q61.1719 34.3047 70.7813 43.4453Q80.3906 52.5859 80.3906 66.1016Q80.3906 72.9766 77.5781 79.6172Q74.7656 86.2578 68.2422 93.6016Q61.7188 100.945 46.5625 113.758Q33.9063 124.383 30.3125 128.172Q26.7187 131.961 24.375 135.789L80.5469 135.789ZM241.25 149.305L255.313 149.305L255.313 34.3047L246.25 34.3047Q242.578 41.7266 233.75 49.6172Q224.922 57.5078 213.125 63.0547L213.125 76.6484Q219.688 74.2266 227.93 69.3828Q236.172 64.5391 241.25 59.6953L241.25 149.305ZM101.641 149.305L101.641 34.7734L184.453 34.7734L184.453 48.2891L116.797 48.2891L116.797 83.3672L180.156 83.3672L180.156 96.8047L116.797 96.8047L116.797 135.789L187.109 135.789L187.109 149.305L101.641 149.305Z" />
    </g>
  </g>
</svg>
