<svg viewBox="0 0 1024 1024">
  <g>
    <path d="M0 0L100 21.499L132 136.499L212 45.999L369.5 80L401 194.999L480 103.999L658.224 143.463L690 256.499L769 167.499L944.5 205.5L944.46 255.842L839.999 312.501L944.37 368.384L944.268 496.066L839.999 552L944.18 606.995L944 832L925.037 832L868.999 728.5L813.226 832L644.108 832L587.999 728.5L530.344 832L352.733 832L295.999 727.5L239.002 832L0 832L0 776.766L102.501 718.001L0 664.232L0 496.404L103.001 439.501L0 383.219L0 0Z" transform="translate(39.99805 71.99902)" fill="none" stroke="#000000" stroke-width="20" />
    <g transform="translate(299 328)">
      <g>
        <path d="M13.125 34.7734L13.125 149.305L28.2813 149.305L28.2813 97.2734L82.0313 97.2734L82.0313 83.7578L28.2813 83.7578L28.2813 48.2891L90.3906 48.2891L90.3906 34.7734L13.125 34.7734ZM110.313 34.7734L110.313 149.305L125.469 149.305L125.469 98.4453L143.047 98.4453Q148.906 98.4453 151.484 98.9922Q155 99.8516 158.398 102.039Q161.797 104.227 166.094 109.695Q170.391 115.164 177.031 125.477L192.188 149.305L211.25 149.305L191.328 118.133Q185.391 108.992 178.75 102.898Q175.625 100.086 169.609 97.1953Q186.094 94.9297 193.984 86.5703Q201.875 78.2109 201.875 66.0234Q201.875 56.5703 197.109 48.7578Q192.344 40.9453 184.375 37.8594Q176.406 34.7734 161.094 34.7734L110.313 34.7734ZM225.938 149.305L225.938 34.7734L308.75 34.7734L308.75 48.2891L241.094 48.2891L241.094 83.3672L304.453 83.3672L304.453 96.8047L241.094 96.8047L241.094 135.789L311.406 135.789L311.406 149.305L225.938 149.305ZM332.656 34.7734L332.656 149.305L418.125 149.305L418.125 135.789L347.813 135.789L347.813 96.8047L411.172 96.8047L411.172 83.3672L347.813 83.3672L347.813 48.2891L415.469 48.2891L415.469 34.7734L332.656 34.7734ZM158.047 85.3203L125.469 85.3203L125.469 47.4297L161.719 47.4297Q174.453 47.4297 180.352 52.6641Q186.25 57.8984 186.25 66.0234Q186.25 71.5703 183.203 76.2969Q180.156 81.0234 174.297 83.1719Q168.438 85.3203 158.047 85.3203Z" />
      </g>
      <g>
        <path d="M123.281 277.523Q123.281 249.008 138.594 232.875Q153.906 216.742 178.125 216.742Q193.984 216.742 206.719 224.32Q219.453 231.898 226.133 245.453Q232.813 259.008 232.813 276.195Q232.813 293.617 225.781 307.367Q218.75 321.117 205.859 328.188Q192.969 335.258 178.047 335.258Q161.875 335.258 149.141 327.445Q136.406 319.633 129.844 306.117Q123.281 292.602 123.281 277.523ZM94.0625 293.148L109.219 296.977Q104.453 315.648 92.0703 325.453Q79.6875 335.258 61.7969 335.258Q43.2813 335.258 31.6797 327.719Q20.0781 320.18 14.0234 305.883Q7.96875 291.586 7.96875 275.18Q7.96875 257.289 14.8047 243.969Q21.6406 230.648 34.2578 223.734Q46.875 216.82 62.0313 216.82Q79.2187 216.82 90.9375 225.57Q102.656 234.32 107.266 250.18L92.3438 253.695Q88.3594 241.195 80.7813 235.492Q73.2031 229.789 61.7188 229.789Q48.5156 229.789 39.6484 236.117Q30.7812 242.445 27.1875 253.109Q23.5937 263.773 23.5938 275.102Q23.5938 289.711 27.8516 300.609Q32.1094 311.508 41.0938 316.898Q50.0781 322.289 60.5469 322.289Q73.2812 322.289 82.1094 314.945Q90.9375 307.602 94.0625 293.148ZM251.875 218.773L251.875 333.305L266.484 333.305L266.484 235.805L299.609 333.305L313.281 333.305L346.563 237.445L346.563 333.305L361.172 333.305L361.172 218.773L340.781 218.773L313.359 298.461Q309.219 310.57 307.266 316.82Q305.547 311.195 301.797 299.867L274.688 218.773L251.875 218.773ZM138.906 277.758Q138.906 298.461 150.039 310.375Q161.172 322.289 177.969 322.289Q195.078 322.289 206.133 310.258Q217.188 298.227 217.188 276.117Q217.188 262.133 212.461 251.703Q207.734 241.273 198.633 235.531Q189.531 229.789 178.203 229.789Q162.109 229.789 150.508 240.844Q138.906 251.898 138.906 277.758Z" />
      </g>
    </g>
  </g>
</svg>
