<svg viewBox="0 0 1024 1024">
  <g>
    <path d="M387.5 2.23758e-07C494.435 -8.15038e-05 612.474 0.020358 710.672 0.0166026C1015.04 0.00496306 1003.2 479.464 718.578 479.393C433.952 479.323 0 480.016 0 480.016" transform="translate(56.5 272.0001)" fill="none" stroke="#000000" stroke-width="20" />
    <path d="M256 1L0 1" transform="translate(24 271)" fill="none" stroke="#000000" stroke-width="20" />
    <g transform="translate(309 180)">
      <path d="M12.3438 149.305L12.3438 34.7734L55.5469 34.7734Q66.9531 34.7734 72.9688 35.8672Q81.4063 37.2734 87.1094 41.2188Q92.8125 45.1641 96.2891 52.2734Q99.7656 59.3828 99.7656 67.8984Q99.7656 82.5078 90.4688 92.625Q81.1719 102.742 56.875 102.742L27.5 102.742L27.5 149.305L12.3438 149.305ZM27.5 89.2266L57.1094 89.2266Q71.7969 89.2266 77.9688 83.7578Q84.1406 78.2891 84.1406 68.3672Q84.1406 61.1797 80.5078 56.0625Q76.875 50.9453 70.9375 49.3047Q67.1094 48.2891 56.7969 48.2891L27.5 48.2891L27.5 89.2266Z" />
    </g>
    <path d="M0 96.8963L68.3195 0L111.227 110.049" transform="matrix(-0.1218693 0.9925461 0.9925461 0.1218693 53.77148 684.5884)" fill="none" stroke="#000000" stroke-width="20" />
  </g>
</svg>
