<svg xmlns="http://www.w3.org/2000/svg" version="1.2" viewBox="0 0 1024 1024">
  <g>
    <path d="M0 80C0 35.8172 35.8172 0 80 0C124.183 0 160 35.8172 160 80C160 124.183 124.183 160 80 160C35.8172 160 0 124.183 0 80Z" transform="translate(16 547)" fill="none" stroke="#000000" stroke-width="20" />
    <path d="M0 80C0 35.8172 35.8172 0 80 0C124.183 0 160 35.8172 160 80C160 124.183 124.183 160 80 160C35.8172 160 0 124.183 0 80Z" transform="translate(846 547)" fill="none" stroke="#000000" stroke-width="20" />
    <path d="M0 0L112 123.784" transform="translate(40 565)" fill="none" stroke="#000000" stroke-width="20" />
    <path d="M0 0L112 123.784" transform="matrix(-1 0 0 1 152 565)" fill="none" stroke="#000000" stroke-width="20" />
    <path d="M0 0L112 123.784" transform="translate(870 565)" fill="none" stroke="#000000" stroke-width="20" />
    <path d="M0 0L112 123.784" transform="matrix(-1 0 0 1 982 565)" fill="none" stroke="#000000" stroke-width="20" />
    <path d="M9.06477e-07 94.0018C9.06477e-07 94.0018 0.396328 -0.0983405 65.3939 0.000154413C130.392 0.0986494 130 93.9996 130 93.9996" transform="translate(184 547)" fill="none" stroke="#000000" stroke-width="20" />
    <path d="M9.06477e-07 94.0018C9.06477e-07 94.0018 0.396328 -0.0984177 65.394 7.72673e-05C130.392 0.0985723 130 93.9996 130 93.9996" transform="translate(314.5 547)" fill="none" stroke="#000000" stroke-width="20" />
    <path d="M9.06477e-07 94.0018C9.06477e-07 94.0018 0.396328 -0.0984177 65.394 7.72673e-05C130.392 0.0985723 130 93.9996 130 93.9996" transform="translate(445 547)" fill="none" stroke="#000000" stroke-width="20" />
    <path d="M9.06477e-07 94.0018C9.06477e-07 94.0018 0.396328 -0.0984177 65.394 7.72673e-05C130.392 0.0985723 130 93.9996 130 93.9996" transform="translate(575.5 547)" fill="none" stroke="#000000" stroke-width="20" />
    <path d="M9.06477e-07 94.0018C9.06477e-07 94.0018 0.396328 -0.0984177 65.394 7.72673e-05C130.392 0.0985723 130 93.9996 130 93.9996" transform="translate(705.5 547)" fill="none" stroke="#000000" stroke-width="20" />
    <g transform="translate(2.320313 316.001)">
      <path d="M128.76 105.214Q128.76 73.1338 145.986 54.9844Q163.213 36.835 190.459 36.835Q208.301 36.835 222.627 45.3604Q236.953 53.8857 244.468 69.1348Q251.982 84.3838 251.982 103.72Q251.982 123.319 244.072 138.788Q236.162 154.257 221.66 162.211Q207.158 170.165 190.371 170.165Q172.178 170.165 157.852 161.376Q143.525 152.587 136.143 137.382Q128.76 122.177 128.76 105.214ZM283.184 127.362L266.924 131.581Q277.91 170.165 314.473 170.165Q335.742 170.165 348.618 158.959Q361.494 147.753 361.494 131.142Q361.494 119.452 354.858 111.059Q348.223 102.665 338.379 99.9404Q355.43 90.0088 355.43 71.9912Q355.43 57.9287 344.355 47.4258Q333.281 36.9229 314.385 36.9229Q275.098 36.9229 269.033 77.9678L285.381 81.6592Q285.381 77.7041 288.018 69.6621Q290.654 61.6201 297.554 56.7422Q304.453 51.8643 314.209 51.8643Q325.371 51.8643 331.919 58.1045Q338.467 64.3447 338.467 72.7822Q338.467 79.9014 333.677 85.4824Q328.887 91.0635 322.646 92.4258Q316.406 93.7881 304.629 93.7881L304.629 108.642L312.803 108.642Q327.041 108.642 335.303 114.926Q343.564 121.21 343.564 131.845Q343.564 141.688 335.742 148.632Q327.92 155.575 314.385 155.575Q301.113 155.575 293.071 146.171Q285.029 136.767 283.184 127.362ZM441.914 127.362L425.654 131.581Q436.641 170.165 473.203 170.165Q494.473 170.165 507.349 158.959Q520.225 147.753 520.225 131.142Q520.225 119.452 513.589 111.059Q506.953 102.665 497.109 99.9404Q514.16 90.0088 514.16 71.9912Q514.16 57.9287 503.086 47.4258Q492.012 36.9229 473.115 36.9229Q433.828 36.9229 427.764 77.9678L444.111 81.6592Q444.111 77.7041 446.748 69.6621Q449.385 61.6201 456.284 56.7422Q463.184 51.8643 472.939 51.8643Q484.102 51.8643 490.649 58.1045Q497.197 64.3447 497.197 72.7822Q497.197 79.9014 492.407 85.4824Q487.617 91.0635 481.377 92.4258Q475.137 93.7881 463.359 93.7881L463.359 108.642L471.533 108.642Q485.771 108.642 494.033 114.926Q502.295 121.21 502.295 131.845Q502.295 141.688 494.473 148.632Q486.65 155.575 473.115 155.575Q459.844 155.575 451.802 146.171Q443.76 136.767 441.914 127.362ZM13.8867 167.968L13.8867 39.1201L62.4902 39.1201Q75.3223 39.1201 82.0898 40.3506Q91.582 41.9326 97.998 46.3711Q104.414 50.8096 108.325 58.8076Q112.236 66.8057 112.236 76.3857Q112.236 92.8213 101.777 104.203Q91.3184 115.585 63.9844 115.585L30.9375 115.585L30.9375 167.968L13.8867 167.968ZM385.576 167.968L385.576 39.1201L402.627 39.1201L402.627 167.968L385.576 167.968ZM146.338 105.478Q146.338 128.769 158.862 142.172Q171.387 155.575 190.283 155.575Q209.531 155.575 221.968 142.04Q234.404 128.505 234.404 103.632Q234.404 87.8994 229.087 76.166Q223.77 64.4326 213.53 57.9727Q203.291 51.5127 190.547 51.5127Q172.441 51.5127 159.39 63.9492Q146.338 76.3857 146.338 105.478ZM30.9375 100.38L64.248 100.38Q80.7715 100.38 87.7148 94.2275Q94.6582 88.0752 94.6582 76.9131Q94.6582 68.8272 90.5713 63.0703Q86.4844 57.3135 79.8047 55.4678Q75.498 54.3252 63.8965 54.3252L30.9375 54.3252L30.9375 100.38Z" />
    </g>
  </g>
</svg>
