<svg xmlns="http://www.w3.org/2000/svg" version="1.2" viewBox="0 0 1024 1024">
  <g>
    <path d="M6.69996 278.313C31.0731 92.7564 209.504 -78.7002 537.869 38.2886C866.233 155.277 939.478 283.763 957.869 341.789C976.26 399.815 935.259 503.261 820.873 579.812C706.487 656.362 572.003 594.458 477.553 574.823C398.365 558.361 305.172 640.229 215.369 629.289C18.4558 605.291 -17.6732 463.87 6.69996 278.313Z" transform="translate(30.13062 197.7114)" fill="none" stroke="#000000" stroke-width="20" />
    <g transform="translate(242 418)">
      <path d="M31.2012 39.1201L14.1504 39.1201L14.1504 167.968L31.2012 167.968L31.2012 107.675Q40.6934 107.675 46.6699 113.08Q52.6465 118.485 61.5234 132.987L83.0566 167.968L104.238 167.968L77.6953 125.077Q65.5664 105.478 53.0859 102.05Q59.3262 99.501 63.8086 95.2383Q68.291 90.9756 74.7949 74.6279Q79.9805 61.708 84.0234 57.7529Q87.9785 53.7979 96.1523 53.7979Q96.7676 53.7979 99.5801 53.8857Q102.129 53.9736 103.008 53.9736L103.008 39.208Q102.48 39.0322 92.6367 39.0322Q84.9023 39.0322 78.4863 42.5918Q72.0703 46.1514 68.5986 51.3809Q65.1269 56.6104 59.7656 69.2666Q52.3828 86.4932 47.6367 91.0195Q42.8906 95.5459 31.2012 95.5459L31.2012 39.1201ZM220.254 39.1201L118.916 39.1201L118.916 167.968L135.967 167.968L135.967 54.3252L203.115 54.3252L203.115 167.968L220.254 167.968L220.254 39.1201ZM248.643 167.968L248.643 39.1201L265.693 39.1201L265.693 92.0303L332.666 92.0303L332.666 39.1201L349.717 39.1201L349.717 167.968L332.666 167.968L332.666 107.235L265.693 107.235L265.693 167.968L248.643 167.968ZM377.578 39.1201L377.578 167.968L394.014 167.968L394.014 58.2803L431.279 167.968L446.66 167.968L484.102 60.126L484.102 167.968L500.537 167.968L500.537 39.1201L477.598 39.1201L446.748 128.769Q442.09 142.392 439.893 149.423Q437.959 143.095 433.74 130.351L403.242 39.1201L377.578 39.1201Z" />
    </g>
    <path d="M0 579.806L0 0L0 579.806Z" transform="matrix(0.9335804 0.3583679 -0.3583679 0.9335804 288.3828 204.5703)" fill="none" stroke="#000000" stroke-width="5" />
    <path d="M0 201.232L0 0L0 201.232Z" transform="matrix(0.9335804 0.3583679 -0.3583679 0.9335804 225.7779 616.014)" fill="none" stroke="#000000" stroke-width="5" />
    <path d="M1.49414 238.292L0 0L1.49414 238.292Z" transform="matrix(0.9335804 0.3583679 -0.3583679 0.9335804 384.001 199.9991)" fill="none" stroke="#000000" stroke-width="5" />
    <path d="M0 225.055L0 0L0 225.055Z" transform="matrix(0.9335804 0.3583679 -0.3583679 0.9335804 321.1097 616.0099)" fill="none" stroke="#000000" stroke-width="5" />
    <path d="M0 225.977L0 0L0 225.977Z" transform="matrix(0.9335804 0.3583679 -0.3583679 0.9335804 476.9707 212.4932)" fill="none" stroke="#000000" stroke-width="5" />
    <path d="M0 201.918L0 0L0 201.918Z" transform="matrix(0.9335804 0.3583679 -0.3583679 0.9335804 562.8732 234.5444)" fill="none" stroke="#000000" stroke-width="5" />
    <path d="M0 210.953L0 0L0 210.953Z" transform="matrix(0.9335804 0.3583679 -0.3583679 0.9335804 416.588 616.0638)" fill="none" stroke="#000000" stroke-width="5" />
    <path d="M0 171.899L0 0L0 171.899Z" transform="matrix(0.9335804 0.3583679 -0.3583679 0.9335804 511.8979 615.6885)" fill="none" stroke="#000000" stroke-width="5" />
    <path d="M0 167.601L0 0L0 167.601Z" transform="matrix(0.9335804 0.3583679 -0.3583679 0.9335804 645.9004 265.7725)" fill="none" stroke="#000000" stroke-width="5" />
    <path d="M0 131.047L0 0L0 131.047Z" transform="matrix(0.9335804 0.3583679 -0.3583679 0.9335804 727.6426 302)" fill="none" stroke="#000000" stroke-width="5" />
    <path d="M0 178.505L0 0L0 178.505Z" transform="matrix(0.9335804 0.3583679 -0.3583679 0.9335804 606.103 616.635)" fill="none" stroke="#000000" stroke-width="5" />
    <path d="M0 200.895L0 0L0 200.895Z" transform="matrix(0.9335804 0.3583679 -0.3583679 0.9335804 702.6014 615.5849)" fill="none" stroke="#000000" stroke-width="5" />
    <path d="M0 81.4844L0.561523 0L0 81.4844Z" transform="matrix(0.9335804 0.3583679 -0.3583679 0.9335804 808.2021 347.4268)" fill="none" stroke="#000000" stroke-width="5" />
    <path d="M0 445.261L0 0L0 445.261Z" transform="matrix(0.9335804 0.3583679 -0.3583679 0.9335804 880.8008 399.7086)" fill="none" stroke="#000000" stroke-width="5" />
    <path d="M0 347.639L0 0L0 347.639Z" transform="matrix(0.9335804 0.3583679 -0.3583679 0.9335804 950.187 467.2982)" fill="none" stroke="#000000" stroke-width="5" />
    <path d="M0 0L1.89746 395.282" transform="matrix(0.9335804 0.3583679 -0.3583679 0.9335804 173.6563 254.9727)" fill="none" stroke="#000000" stroke-width="5" />
  </g>
</svg>
