<svg viewBox="0 0 1024 1024">
  <g>
    <path d="M780 0L627.501 472C627.501 472 619.531 500.746 589.5 530.5C559.47 560.254 519 571.5 519 571.5L0 765.998" transform="translate(180.5 201.001)" fill="none" stroke="#000000" stroke-width="20" />
    <path d="M647.998 0L523.002 407.5C523.002 407.5 515.031 436.245 485 465.999C454.969 495.754 413 509.499 413 509.499L0 641" transform="translate(128.5 136.501)" fill="none" stroke="#000000" stroke-width="20" />
    <path d="M0 100C0 44.7715 44.7715 0 100 0C155.228 0 200 44.7715 200 100C200 155.228 155.228 200 100 200C44.7715 200 0 155.228 0 100Z" transform="translate(776 48)" fill="none" stroke="#000000" stroke-width="20" />
    <path d="M0 100C0 44.7715 44.7715 0 100 0C155.228 0 200 44.7715 200 100C200 155.228 155.228 200 100 200C44.7715 200 0 155.228 0 100Z" transform="translate(40.00049 777.001)" fill="none" stroke="#000000" stroke-width="20" />
    <path d="M0 100C0 44.7715 44.7715 0 100 0C155.228 0 200 44.7715 200 100C200 155.228 155.228 200 100 200C44.7715 200 0 155.228 0 100Z" transform="translate(599.9995 560.001)" fill="none" stroke="#000000" stroke-width="20" />
  </g>
</svg>
