<svg xmlns="http://www.w3.org/2000/svg" version="1.2" viewBox="0 0 1024 1024">
  <g stroke-width="20" >
    <pattern id="hatching" x="0" y="0" width="150" height="150" patternUnits="userSpaceOnUse">
      <line stroke-linecap="butt" x1="150" y1="0" x2="0" y2="150" stroke="yellow"/>
    </pattern>
    <path fill="url('#hatching')" d="M6.69997 342.648C31.0731 114.198 209.505 -96.8927 537.869 47.1395C866.234 191.172 859.884 127.451 907.089 195.502C954.295 263.553 935.26 619.595 820.874 713.843C706.488 808.088 572.004 731.873 477.553 707.7C398.365 687.432 305.173 788.226 215.369 774.756C18.4558 745.211 -17.6732 571.099 6.69997 342.648Z" transform="translate(45.91064 124)" stroke="#000000"/>
    <path d="M255.001 0L510 440L0 439.999L255.001 0Z" transform="matrix(-1 8.742278E-08 -8.742278E-08 -1 767.7798 732.2891)" fill="none" stroke="#000000" stroke-width="20" />
    <path d="M0 31.25C0 13.9911 13.9911 0 31.25 0C48.5089 0 62.5 13.9911 62.5 31.25C62.5 48.5089 48.5089 62.5 31.25 62.5C13.9911 62.5 0 48.5089 0 31.25Z" transform="translate(402.7803 409.7891)" fill="#000000" stroke="none" />
    <path d="M0 0.00223227C0 0.00223227 54.8438 -0.778794 89.375 26.8774C123.906 54.5337 138.125 110.627 138.125 110.627" transform="translate(444.6553 432.2891)" fill="none" stroke="#000000"/>
    <path d="M0 31.25C0 13.9911 13.9911 0 31.25 0C48.5089 0 62.5 13.9911 62.5 31.25C62.5 48.5089 48.5089 62.5 31.25 62.5C13.9911 62.5 0 48.5089 0 31.25Z" transform="matrix(-1 0 0 1 622.7803 409.7891)" fill="#000000" stroke="none" />
    <path d="M0 0.00223227C0 0.00223227 54.8438 -0.778794 89.375 26.8774C123.906 54.5337 138.125 110.627 138.125 110.627" transform="matrix(-1 0 0 1 580.9053 432.2891)" fill="none" stroke="#000000"/>
    <g transform="translate(473.3398 294)">
      <path d="M9.14063 111.979L9.14063 26.0801L20.8008 26.0801L65.918 93.5215L65.918 26.0801L76.8164 26.0801L76.8164 111.979L65.1563 111.979L20.0391 44.4785L20.0391 111.979L9.14063 111.979Z" />
    </g>
  </g>
</svg>
