<svg viewBox="0 0 1024 1024">
  <g>
    <path d="M344 1L0 1" transform="translate(24 510.9995)" fill="none" stroke="#000000" stroke-width="20" />
    <path d="M344 1L0 1" transform="translate(656 510.9995)" fill="none" stroke="#000000" stroke-width="20" />
    <g transform="translate(405 420)">
      <path d="M109.219 112.977L94.0625 109.148Q90.9375 123.602 82.1094 130.945Q73.2812 138.289 60.5469 138.289Q50.0781 138.289 41.0938 132.898Q32.1094 127.508 27.8516 116.609Q23.5938 105.711 23.5938 91.1016Q23.5937 79.7734 27.1875 69.1094Q30.7812 58.4453 39.6484 52.1172Q48.5156 45.7891 61.7188 45.7891Q73.2031 45.7891 80.7813 51.4922Q88.3594 57.1953 92.3438 69.6953L107.266 66.1797Q102.656 50.3203 90.9375 41.5703Q79.2187 32.8203 62.0313 32.8203Q46.875 32.8203 34.2578 39.7344Q21.6406 46.6484 14.8047 59.9688Q7.96875 73.2891 7.96875 91.1797Q7.96875 107.586 14.0234 121.883Q20.0781 136.18 31.6797 143.719Q43.2813 151.258 61.7969 151.258Q79.6875 151.258 92.0703 141.453Q104.453 131.648 109.219 112.977ZM136.094 113.211L121.641 116.961Q131.406 151.258 163.906 151.258Q182.813 151.258 194.258 141.297Q205.703 131.336 205.703 116.57Q205.703 106.18 199.805 98.7188Q193.906 91.2578 185.156 88.8359Q200.313 80.0078 200.313 63.9922Q200.313 51.4922 190.469 42.1563Q180.625 32.8203 163.828 32.8203Q128.906 32.8203 123.516 69.3047L138.047 72.5859Q138.047 69.0703 140.391 61.9219Q142.734 54.7734 148.867 50.4375Q155 46.1016 163.672 46.1016Q173.594 46.1016 179.414 51.6484Q185.234 57.1953 185.234 64.6953Q185.234 71.0234 180.977 75.9844Q176.719 80.9453 171.172 82.1563Q165.625 83.3672 155.156 83.3672L155.156 96.5703L162.422 96.5703Q175.078 96.5703 182.422 102.156Q189.766 107.742 189.766 117.195Q189.766 125.945 182.813 132.117Q175.859 138.289 163.828 138.289Q152.031 138.289 144.883 129.93Q137.734 121.57 136.094 113.211Z" />
    </g>
  </g>
</svg>
