<svg xmlns="http://www.w3.org/2000/svg" version="1.2" viewBox="0 0 1024 1024">
  <g>
    <path d="M0 0L96 167.999" transform="translate(208 428.999)" fill="none" stroke="#000000" stroke-width="20" />
    <path d="M0 0L96 167.999" transform="matrix(-1 0 0 1 304 428.999)" fill="none" stroke="#000000" stroke-width="20" />
    <path d="M0 0L96 167.999" transform="translate(321 428.999)" fill="none" stroke="#000000" stroke-width="20" />
    <path d="M0 0L96 167.999" transform="matrix(-1 0 0 1 417 428.999)" fill="none" stroke="#000000" stroke-width="20" />
    <path d="M0 0L96 167.999" transform="translate(590 428)" fill="none" stroke="#000000" stroke-width="20" />
    <path d="M0 0L96 167.999" transform="matrix(-1 0 0 1 686 428)" fill="none" stroke="#000000" stroke-width="20" />
    <path d="M0 0L96 167.999" transform="translate(702.999 427.999)" fill="none" stroke="#000000" stroke-width="20" />
    <path d="M0 0L96 167.999" transform="matrix(-1 0 0 1 798.999 427.999)" fill="none" stroke="#000000" stroke-width="20" />
    <path d="M0 1L976 1" transform="translate(24 511)" fill="none" stroke="#000000" stroke-width="20" />
  </g>
</svg>
