<svg xmlns="http://www.w3.org/2000/svg" version="1.2" viewBox="0 0 1024 1024">
  <g>
    <g transform="translate(165.999 172.001)">
      <path d="M385.859 48.875Q370.547 65.0078 370.547 93.5234Q370.547 108.602 377.109 122.117Q383.672 135.633 396.406 143.445Q409.141 151.258 425.313 151.258Q440.234 151.258 453.125 144.188Q466.016 137.117 473.047 123.367Q480.078 109.617 480.078 92.1953Q480.078 75.0078 473.398 61.4531Q466.719 47.8984 453.984 40.3203Q441.25 32.7422 425.391 32.7422Q401.172 32.7422 385.859 48.875ZM127.266 113.211L112.813 116.961Q122.578 151.258 155.078 151.258Q173.984 151.258 185.43 141.297Q196.875 131.336 196.875 116.57Q196.875 106.18 190.977 98.7188Q185.078 91.2578 176.328 88.8359Q191.484 80.0078 191.484 63.9922Q191.484 51.4922 181.641 42.1563Q171.797 32.8203 155 32.8203Q120.078 32.8203 114.688 69.3047L129.219 72.5859Q129.219 69.0703 131.563 61.9219Q133.906 54.7734 140.039 50.4375Q146.172 46.1016 154.844 46.1016Q164.766 46.1016 170.586 51.6484Q176.406 57.1953 176.406 64.6953Q176.406 71.0234 172.148 75.9844Q167.891 80.9453 162.344 82.1563Q156.797 83.3672 146.328 83.3672L146.328 96.5703L153.594 96.5703Q166.25 96.5703 173.594 102.156Q180.938 107.742 180.938 117.195Q180.938 125.945 173.984 132.117Q167.031 138.289 155 138.289Q143.203 138.289 136.055 129.93Q128.906 121.57 127.266 113.211ZM12.3438 34.7734L12.3438 149.305L27.5 149.305L27.5 102.742L56.875 102.742Q81.1719 102.742 90.4688 92.625Q99.7656 82.5078 99.7656 67.8984Q99.7656 59.3828 96.2891 52.2734Q92.8125 45.1641 87.1094 41.2188Q81.4063 37.2734 72.9688 35.8672Q66.9531 34.7734 55.5469 34.7734L12.3438 34.7734ZM215.859 34.7734L305.938 34.7734L305.938 149.305L290.703 149.305L290.703 48.2891L231.016 48.2891L231.016 149.305L215.859 149.305L215.859 34.7734ZM498.984 149.305L498.984 34.7734L541.953 34.7734Q555.078 34.7734 563.008 38.25Q570.938 41.7266 575.43 48.9531Q579.922 56.1797 579.922 64.0703Q579.922 71.4141 575.938 77.8984Q571.953 84.3828 563.906 88.3672Q574.297 91.4141 579.883 98.7578Q585.469 106.102 585.469 116.102Q585.469 124.148 582.07 131.063Q578.672 137.977 573.672 141.727Q568.672 145.477 561.133 147.391C556.107 148.667 549.948 149.305 542.656 149.305L498.984 149.305ZM635.469 48.2891L635.469 149.305L650.625 149.305L650.625 48.2891L688.516 48.2891L688.516 34.7734L597.734 34.7734L597.734 48.2891L635.469 48.2891ZM397.305 126.375Q386.172 114.461 386.172 93.7578Q386.172 67.8984 397.773 56.8438Q409.375 45.7891 425.469 45.7891Q436.797 45.7891 445.898 51.5313Q455 57.2734 459.727 67.7031Q464.453 78.1328 464.453 92.1172Q464.453 114.227 453.398 126.258Q442.344 138.289 425.234 138.289Q408.438 138.289 397.305 126.375ZM57.1094 89.2266L27.5 89.2266L27.5 48.2891L56.7969 48.2891Q67.1094 48.2891 70.9375 49.3047Q76.875 50.9453 80.5078 56.0625Q84.1406 61.1797 84.1406 68.3672Q84.1406 78.2891 77.9688 83.7578Q71.7969 89.2266 57.1094 89.2266ZM514.141 82.8984L538.906 82.8984Q548.984 82.8984 553.359 81.5703Q559.141 79.8516 562.07 75.8672Q565 71.8828 565 65.8672Q565 60.1641 562.266 55.8281Q559.531 51.4922 554.453 49.8906Q549.375 48.2891 537.031 48.2891L514.141 48.2891L514.141 82.8984ZM514.141 135.789L542.656 135.789Q550 135.789 552.969 135.242Q558.203 134.305 561.719 132.117Q565.234 129.93 567.5 125.75Q569.766 121.57 569.766 116.102Q569.766 109.695 566.484 104.969Q563.203 100.242 557.383 98.3281Q551.563 96.4141 540.625 96.4141L514.141 96.4141L514.141 135.789Z" />
    </g>
    <path d="M94.5381 604.047C94.5381 604.047 6.52705 561.713 0.0470995 296.555C-2.37893 197.283 89.386 30.3632 166.539 5.04892C295.463 -37.2517 529.181 200.615 613.539 184.547C697.897 168.48 725.951 77.1634 818.54 82.0524C953.611 89.1846 952.363 225.188 955.042 363.053C957.722 500.919 915.781 611.117 864.043 611.052" transform="matrix(-1 0 0 -1 990.538 871.0473)" fill="none" stroke="#000000" stroke-width="20" />
  </g>
</svg>
