<svg xmlns="http://www.w3.org/2000/svg" version="1.2" viewBox="0 0 40 40" width="40" height="40">
  <path d="M6.72 23.33C8.51 29.81 14.97 34.05 20 34C25.84 33.94 32.16 29.13 33.75 23.75" id="fAQjLwYVE" stroke-width="1" stroke="black" fill="none" fill-opacity="1"></path>
  <path d="M33.75 16.38C32.74 11.19 26.58 6.06 20 6.13C14.84 6.17 9.24 9.49 7.12 14.94" id="a6tWTVb25g" stroke-width="1" stroke="black" fill="none" fill-opacity="1"></path>
  <path d="M20 5.81L20 2.1" id="dbnC9MWW" stroke-width="1" stroke="black" fill="none" fill-opacity="1"></path>
  <path d="M24.43 6.59L25.57 3.06" id="a1sNw475KO" stroke-width="1" stroke="black" fill="none" fill-opacity="1">
  </path><path d="M28.3 8.5L30.63 5.62" id="a6xMsAy3ea" stroke-width="1" stroke="black" fill="none" fill-opacity="1"></path>
  <path d="M33.75 14.85L37.01 13.59" id="jsahsHwEH" stroke-width="1" stroke="black" fill="none" fill-opacity="1"></path>
  <path d="M20 34.23L20 37.94" id="aa95TQPFN" stroke-width="1" stroke="black" fill="none" fill-opacity="1"></path>
  <path d="M28.04 31.55L30.21 34.55" id="d1hEORZkO7" stroke-width="1" stroke="black" fill="none" fill-opacity="1"></path>
  <path d="M31.14 28.75L33.86 31.27" id="dAF9KjiJg" stroke-width="1" stroke="black" fill="none" fill-opacity="1"></path>
  <path d="M33.39 25.32L36.61 26.69" id="eXcZXaS43" stroke-width="1" stroke="black" fill="none" fill-opacity="1"></path>
  <path d="M15.92 6.52L14.58 3.07" id="a1hOo8UZ1m" stroke-width="1" stroke="black" fill="none" fill-opacity="1"></path>
  <path d="M12.35 8.24L10.15 5.25" id="a7WEjNx2e" stroke-width="1" stroke="black" fill="none" fill-opacity="1"></path>
  <path d="M7.52 13.57L4.36 12.11" id="b6ddccRlaX" stroke-width="1" stroke="black" fill="none" fill-opacity="1"></path>
  <path d="M11.7 31.25L9.3 34.07" id="hzT6URTGk" stroke-width="1" stroke="black" fill="none" fill-opacity="1"></path>
  <path d="M8.41 27.81L5.46 29.69" id="a2daYkRxLJ" stroke-width="1" stroke="black" fill="none" fill-opacity="1"></path>
  <path d="M31.63 11.48L34.49 9.46" id="b1nxHu89h8" stroke-width="1" stroke="black" fill="none" fill-opacity="1"></path>
  <path d="M24.26 33.38L25.46 36.89" id="acj9VdN5R" stroke-width="1" stroke="black" fill="none" fill-opacity="1"></path>
  <path d="M15.63 33.51L14.1 36.87" id="d89ma4bqi" stroke-width="1" stroke="black" fill="none" fill-opacity="1"></path>
  <path d="M9.36 10.73L6.52 8.35" id="d1YVrTkfKc" stroke-width="1" stroke="black" fill="none" fill-opacity="1"></path>
  <path d="M9.81 25L6.56 22.5L5.19 26.25" id="b2CpIdJfC4" stroke-width="1" stroke="black" fill="none" fill-opacity="1"></path>
  <text x="35" y="23" text-anchor="middle" font-size="8" font-family="Arial" font-weight="bold" stroke-width="1" stroke="none" fill="black">R</text>
</svg>
