<svg viewBox="0 0 1024 1024">
  <g>
    <path d="M0 96.8963L68.3195 0L111.227 110.049" transform="matrix(0.1218693 0.9925461 -0.9925461 0.1218693 978.8364 444.1909)" fill="none" stroke="#000000" stroke-width="20" />
    <g transform="translate(497.1621 441)">
      <path d="M165.879 70.1426Q165.879 48.7559 177.363 36.6563Q188.848 24.5566 207.012 24.5566Q218.906 24.5566 228.457 30.2402Q238.008 35.9238 243.018 46.0898Q248.027 56.2559 248.027 69.1465Q248.027 82.2129 242.754 92.5254Q237.48 102.838 227.813 108.141Q218.145 113.443 206.953 113.443Q194.824 113.443 185.273 107.584Q175.723 101.725 170.801 91.5879Q165.879 81.4512 165.879 70.1426ZM32.8125 26.0801L-0.175781 111.979L11.8945 111.979L21.3281 85.9629L57.2461 85.9629L67.2656 111.979L80.2148 111.979L45.0586 26.0801L32.8125 26.0801ZM80.5664 26.0801L113.848 111.979L125.508 111.979L159.141 26.0801L147.539 26.0801L124.336 88.4824Q121.699 95.5137 119.707 102.545Q117.891 95.9824 115.195 88.4824L92.8711 26.0801L80.5664 26.0801ZM262.559 26.0801L262.559 111.979L273.457 111.979L273.457 44.4785L318.574 111.979L330.234 111.979L330.234 26.0801L319.336 26.0801L319.336 93.5215L274.219 26.0801L262.559 26.0801ZM177.598 70.3184Q177.598 85.8457 185.947 94.7813Q194.297 103.717 206.895 103.717Q219.727 103.717 228.018 94.6934Q236.309 85.6699 236.309 69.0879Q236.309 58.5996 232.764 50.7773Q229.219 42.9551 222.393 38.6484Q215.566 34.3418 207.07 34.3418Q195 34.3418 186.299 42.6328Q177.598 50.9238 177.598 70.3184ZM53.7305 76.7051L24.6094 76.7051L34.043 51.5098Q37.0313 43.3652 38.6719 35.1035Q40.6641 42.0762 44.7656 52.916L53.7305 76.7051Z" />
    </g>
    <path d="M0 1L120 1" transform="translate(24 511)" fill="none" stroke="#000000" stroke-width="20" />
    <path d="M0 1L72 1" transform="translate(408 511)" fill="none" stroke="#000000" stroke-width="20" />
    <path d="M0 0L130.014 72L264 0L264 144L130.014 72L0 144L0 0Z" transform="translate(144.1626 440)" fill="none" stroke="#000000" stroke-width="20" />
    <path d="M0 1L120 1" transform="translate(856 511)" fill="none" stroke="#000000" stroke-width="20" />
  </g>
</svg>
