<svg xmlns="http://www.w3.org/2000/svg" version="1.2" viewBox="0 0 1024 1024">
  <g>
    <path d="M296 1L0 1" transform="translate(24 510.9995)" fill="none" stroke="#000000" stroke-width="20" />
    <path d="M296 1L0 1" transform="translate(704 510.9995)" fill="none" stroke="#000000" stroke-width="20" />
    <g transform="translate(361 420)">
      <path d="M225 113.211L210.547 116.961Q220.313 151.258 252.813 151.258Q271.719 151.258 283.164 141.297Q294.609 131.336 294.609 116.57Q294.609 106.18 288.711 98.7188Q282.813 91.2578 274.063 88.8359Q289.219 80.0078 289.219 63.9922Q289.219 51.4922 279.375 42.1563Q269.531 32.8203 252.734 32.8203Q217.813 32.8203 212.422 69.3047L226.953 72.5859Q226.953 69.0703 229.297 61.9219Q231.641 54.7734 237.773 50.4375Q243.906 46.1016 252.578 46.1016Q262.5 46.1016 268.32 51.6484Q274.141 57.1953 274.141 64.6953Q274.141 71.0234 269.883 75.9844Q265.625 80.9453 260.078 82.1563Q254.531 83.3672 244.063 83.3672L244.063 96.5703L251.328 96.5703Q263.984 96.5703 271.328 102.156Q278.672 107.742 278.672 117.195Q278.672 125.945 271.719 132.117Q264.766 138.289 252.734 138.289Q240.938 138.289 233.789 129.93Q226.641 121.57 225 113.211ZM41.4844 149.305L41.4844 48.2891L3.75 48.2891L3.75 34.7734L94.5313 34.7734L94.5313 48.2891L56.6406 48.2891L56.6406 149.305L41.4844 149.305ZM110.078 149.305L110.078 34.7734L153.281 34.7734Q164.688 34.7734 170.703 35.8672Q179.141 37.2734 184.844 41.2188Q190.547 45.1641 194.023 52.2734Q197.5 59.3828 197.5 67.8984Q197.5 82.5078 188.203 92.625Q178.906 102.742 154.609 102.742L125.234 102.742L125.234 149.305L110.078 149.305ZM125.234 89.2266L154.844 89.2266Q169.531 89.2266 175.703 83.7578Q181.875 78.2891 181.875 68.3672Q181.875 61.1797 178.242 56.0625Q174.609 50.9453 168.672 49.3047Q164.844 48.2891 154.531 48.2891L125.234 48.2891L125.234 89.2266Z" />
    </g>
  </g>
</svg>
