<svg xmlns="http://www.w3.org/2000/svg" version="1.2" viewBox="0 0 40 40" width="40" height="40">
  <path d="M3.75 16.5C4.52 14.38 5.85 12.71 7.72 11.5C9.6 10.29 12.02 9.53 15 9.22" id="cGp2SxSWx" stroke-width="1" stroke="black" fill="none" fill-opacity="1"></path>
  <path d="M4 23.72C4.77 25.84 6.1 27.51 7.97 28.72C9.85 29.93 12.27 30.69 15.25 31" id="a116b0VaGs" stroke-width="1" stroke="black" fill="none" fill-opacity="1"></path>
  <path d="M14.38 13.06L14.38 9.35" id="b2jIbOWNrX" stroke-width="1" stroke="black" fill="none" fill-opacity="1"></path>
  <path d="M12.19 13.69L11.06 10.16" id="dOFjnq8kx" stroke-width="1" stroke="black" fill="none" fill-opacity="1"></path>
  <path d="M9.61 14.94L7.28 12.05" id="a33hAjkqAb" stroke-width="1" stroke="black" fill="none" fill-opacity="1"></path>
  <path d="M7.81 16.81L4.69 15.25" id="bjVMZhCNF" stroke-width="1" stroke="black" fill="none" fill-opacity="1"></path>
  <path d="M14.38 26.91L14.38 30.63" id="a3aZpu40md" stroke-width="1" stroke="black" fill="none" fill-opacity="1"></path>
  <path d="M12.19 26.29L11.06 29.81" id="aWsG7bOkK" stroke-width="1" stroke="black" fill="none" fill-opacity="1"></path>
  <path d="M9.61 25.04L7.28 27.92" id="a2GsMqpIRd" stroke-width="1" stroke="black" fill="none" fill-opacity="1"></path>
  <path d="M7.81 23.16L4.69 24.73" id="a3FqzcGDa9" stroke-width="1" stroke="black" fill="none" fill-opacity="1"></path>
  <path d="M15.5 16.5L13 19.5L15.5 22.5" id="a2eHJOGt" stroke-width="1" stroke="black" fill="none" fill-opacity="1"></path>
  <path d="M19.75 19.5L13.39 19.5" id="bfeEQs9Ew" stroke-width="1" stroke="black" fill="none" fill-opacity="1"></path>
  <path d="M36.25 19.5L39 19.5" id="b136CL2f0T" stroke-width="1" stroke="black" fill="none" fill-opacity="1"></path>
  <text x="3" y="22.5" text-anchor="middle" font-size="8" font-family="Arial" font-weight="bold" stroke-width="1" stroke="none" fill="black">C</text>
  <text x="28" y="22.3" text-anchor="middle" font-size="7" font-family="Arial" font-weight="bold" stroke-width="1" stroke="none" fill="black">ANY</text>
</svg>
