<svg viewBox="0 0 1024 1024">
  <g>
    <path d="M0 9.56864e-05C0 9.56864e-05 438.805 0.0117342 743.172 9.45658e-05C1047.54 -0.011545 1035.7 479.448 751.078 479.377C466.452 479.306 32.5 480 32.5 480" transform="translate(24 272.0164)" fill="none" stroke="#000000" stroke-width="20" />
    <g transform="translate(455 420)">
      <path d="M12.3438 149.305L12.3438 34.7734L51.7969 34.7734Q65.1562 34.7734 72.1875 36.4141Q82.0312 38.6797 88.9844 44.6172Q98.0469 52.2734 102.539 64.1875Q107.031 76.1016 107.031 91.4141Q107.031 104.461 103.984 114.539Q100.938 124.617 96.1719 131.219Q91.4062 137.82 85.7422 141.609Q80.0781 145.398 72.0703 147.352Q64.0625 149.305 53.6719 149.305L12.3438 149.305ZM27.5 135.789L51.9531 135.789Q63.2812 135.789 69.7266 133.68Q76.1719 131.57 80 127.742Q85.3906 122.352 88.3984 113.25Q91.4063 104.148 91.4063 91.1797Q91.4063 73.2109 85.5078 63.5625Q79.6094 53.9141 71.1719 50.6328Q65.0781 48.2891 51.5625 48.2891L27.5 48.2891L27.5 135.789Z" />
    </g>
    <path d="M0 96.8963L68.3195 0L111.227 110.049" transform="matrix(-0.1218693 0.9925461 0.9925461 0.1218693 53.77148 684.5884)" fill="none" stroke="#000000" stroke-width="20" />
  </g>
</svg>
