<svg xmlns="http://www.w3.org/2000/svg" version="1.2" viewBox="0 0 1024 1024">
  <g>
    <g transform="translate(415.3262 118.0815)">
      <path d="M0.703125 149.305L45 89.6172L5.9375 34.7734L23.9844 34.7734L44.7656 64.1484Q51.25 73.2891 53.9844 78.2109Q57.8125 71.9609 63.0469 65.1641L86.0938 34.7734L102.578 34.7734L62.3438 88.7578L105.703 149.305L86.9531 149.305L58.125 108.445Q55.7031 104.93 53.125 100.789Q49.2969 107.039 47.6563 109.383L18.9063 149.305L0.703125 149.305Z" />
    </g>
    <g transform="translate(420 688)">
      <path d="M0.703125 149.305L45 89.6172L5.9375 34.7734L23.9844 34.7734L44.7656 64.1484Q51.25 73.2891 53.9844 78.2109Q57.8125 71.9609 63.0469 65.1641L86.0938 34.7734L102.578 34.7734L62.3438 88.7578L105.703 149.305L86.9531 149.305L58.125 108.445Q55.7031 104.93 53.125 100.789Q49.2969 107.039 47.6563 109.383L18.9063 149.305L0.703125 149.305Z" />
    </g>
    <path d="M371.384 576.546C371.384 576.546 277.259 618.184 224.384 614.548C171.509 610.911 61.1349 590.421 21.3846 477.562C-18.3657 364.702 -8.6162 183.043 101.384 89.0464C211.385 -4.94975 366.884 0.0461242 366.884 0.0461242" transform="translate(25.61621 214.4539)" fill="none" stroke="#000000" stroke-width="20" />
    <path d="M438.233 565.504C438.233 565.504 347.109 601.146 244.233 593.508C141.357 585.871 5.98212 473.364 0.231503 369.503C-5.51911 265.642 97.2322 132.997 156.232 84.0002C215.232 35.0029 341.231 1.62438 439.731 0" transform="matrix(-1 0 0 1 988.7314 218)" fill="none" stroke="#000000" stroke-width="20" />
  </g>
</svg>
