<svg viewBox="0 0 1024 1024">
  <g>
    <g transform="translate(24 318.001)">
      <path d="M163.75 34.7734L178.906 34.7734L178.906 84.9297Q189.297 84.9297 193.516 80.9063Q197.734 76.8828 204.297 61.5703Q209.063 50.3203 212.148 45.6719Q215.234 41.0234 220.938 37.8594Q226.641 34.6953 233.516 34.6953Q242.266 34.6953 242.734 34.8516L242.734 47.9766Q241.953 47.9766 239.688 47.8984Q237.188 47.8203 236.641 47.8203Q229.375 47.8203 225.859 51.3359Q222.266 54.8516 217.656 66.3359Q211.875 80.8672 207.891 84.6563Q203.906 88.4453 198.359 90.7109Q209.453 93.7578 220.234 111.18L243.828 149.305L225 149.305L205.859 118.211Q197.969 105.32 192.656 100.516Q187.344 95.7109 178.906 95.7109L178.906 149.305L163.75 149.305L163.75 34.7734ZM12.3438 149.305L12.3438 34.7734L55.5469 34.7734Q66.9531 34.7734 72.9688 35.8672Q81.4063 37.2734 87.1094 41.2188Q92.8125 45.1641 96.2891 52.2734Q99.7656 59.3828 99.7656 67.8984Q99.7656 82.5078 90.4688 92.625Q81.1719 102.742 56.875 102.742L27.5 102.742L27.5 149.305L12.3438 149.305ZM289.375 89.6172L245.078 149.305L263.281 149.305L292.031 109.383Q293.672 107.039 297.5 100.789Q300.078 104.93 302.5 108.445L331.328 149.305L350.078 149.305L306.719 88.7578L346.953 34.7734L330.469 34.7734L307.422 65.1641Q302.188 71.9609 298.359 78.2109Q295.625 73.2891 289.141 64.1484L268.359 34.7734L250.313 34.7734L289.375 89.6172ZM27.5 89.2266L57.1094 89.2266Q71.7969 89.2266 77.9688 83.7578Q84.1406 78.2891 84.1406 68.3672Q84.1406 61.1797 80.5078 56.0625Q76.875 50.9453 70.9375 49.3047Q67.1094 48.2891 56.7969 48.2891L27.5 48.2891L27.5 89.2266Z" />
    </g>
    <path d="M0 1L976 1" transform="translate(24 511)" fill="none" stroke="#000000" stroke-width="20" />
  </g>
</svg>
