<svg viewBox="0 0 1024 1024">
  <g>
    <path d="M98.498 109.999L138.187 109.999L193.001 4.5L252.769 109.999L415.348 109.999L472.001 0L531.28 109.999L675.8 109.999L735.001 4L793.824 109.999L818.498 109.999L818.498 188.055L916.501 245L818.498 301.308L818.498 412.566L913.5 465.999L818.498 520.104L818.498 573.999L766.065 573.999L717.5 675.499L669.975 573.999L499.77 573.999L449.5 673.999L402.441 573.999L244.294 573.999L192.5 674.999L144.279 573.999L98.498 573.999L98.498 507.201L0 453.999L98.498 399.939L98.498 266.829L2 214.499L98.498 158.833L98.498 109.999Z" transform="translate(53.49805 174.002)" fill="none" stroke="#000000" stroke-width="20" />
  </g>
</svg>
