<svg xmlns="http://www.w3.org/2000/svg" version="1.2" viewBox="0 0 1024 1024">
  <g>
    <path d="M6.69996 278.313C31.0731 92.7564 209.504 -78.7002 537.869 38.2886C866.233 155.277 939.478 283.763 957.869 341.789C976.26 399.815 935.259 503.261 820.873 579.812C706.487 656.362 572.003 594.458 477.553 574.823C398.365 558.361 305.172 640.229 215.369 629.289C18.4558 605.291 -17.6732 463.87 6.69996 278.313Z" transform="translate(30.13062 197.7114)" fill="none" stroke="#000000" stroke-width="20" />
    <g transform="translate(74 409)">
      <path d="M453.691 39.1201L470.742 39.1201L470.742 95.5459Q482.432 95.5459 487.178 91.0195Q491.924 86.4932 499.307 69.2666Q504.668 56.6104 508.14 51.3809Q511.611 46.1514 518.027 42.5918Q524.443 39.0322 532.178 39.0322Q542.021 39.0322 542.549 39.208L542.549 53.9736Q541.67 53.9736 539.121 53.8857Q536.309 53.7979 535.693 53.7979Q527.52 53.7979 523.564 57.7529Q519.521 61.708 514.336 74.6279Q507.832 90.9756 503.35 95.2383Q498.867 99.501 492.627 102.05Q505.107 105.478 517.236 125.077L543.779 167.968L522.598 167.968L501.064 132.987Q492.188 118.485 486.211 113.08Q480.234 107.675 470.742 107.675L470.742 167.968L453.691 167.968L453.691 39.1201ZM13.8867 39.1201L13.8867 167.968L30.9375 167.968L30.9375 115.585L63.9844 115.585Q91.3184 115.585 101.777 104.203Q112.236 92.8213 112.236 76.3857Q112.236 66.8057 108.325 58.8076Q104.414 50.8096 97.998 46.3711Q91.582 41.9326 82.0898 40.3506Q75.3223 39.1201 62.4902 39.1201L13.8867 39.1201ZM235.459 39.1201L134.121 39.1201L134.121 167.968L151.172 167.968L151.172 54.3252L218.32 54.3252L218.32 167.968L235.459 167.968L235.459 39.1201ZM64.248 100.38L30.9375 100.38L30.9375 54.3252L63.8965 54.3252Q75.498 54.3252 79.8047 55.4678Q86.4844 57.3135 90.5713 63.0703Q94.6582 68.8272 94.6582 76.9131Q94.6582 88.0752 87.7148 94.2275Q80.7715 100.38 64.248 100.38ZM255.41 121.298Q255.41 95.3701 269.824 82.8896Q281.865 72.5186 299.18 72.5186Q318.428 72.5186 330.645 85.1309Q342.861 97.7432 342.861 119.979Q342.861 137.997 337.456 148.324Q332.051 158.651 321.724 164.364Q311.396 170.077 299.18 170.077Q279.58 170.077 267.495 157.509Q255.41 144.94 255.41 121.298ZM437.871 135.8L422.314 133.778Q420.645 145.644 414.404 151.356Q408.164 157.069 398.848 157.069Q387.246 157.069 380.039 148.544Q372.832 140.019 372.832 121.21Q372.832 102.665 380.303 94.0957Q387.773 85.5264 399.727 85.5264Q407.637 85.5264 413.218 90.2725Q418.799 95.0186 420.996 104.423L436.377 102.05Q433.652 87.8994 423.984 80.209Q414.316 72.5186 399.111 72.5186Q387.07 72.5186 376.831 78.1875Q366.592 83.8565 361.582 95.1943Q356.572 106.532 356.572 121.649Q356.572 145.028 368.218 157.553Q379.863 170.077 399.023 170.077Q414.316 170.077 424.819 160.98Q435.322 151.884 437.871 135.8ZM564.785 82.8896Q550.371 95.3701 550.371 121.298Q550.371 144.94 562.456 157.509Q574.541 170.077 594.141 170.077Q606.357 170.077 616.685 164.364Q627.012 158.651 632.417 148.324Q637.822 137.997 637.822 119.979Q637.822 97.7432 625.605 85.1309Q613.389 72.5186 594.141 72.5186Q576.826 72.5186 564.785 82.8896ZM717.275 133.778L732.832 135.8Q730.283 151.884 719.78 160.98Q709.277 170.077 693.984 170.077Q674.824 170.077 663.179 157.553Q651.533 145.028 651.533 121.649Q651.533 106.532 656.543 95.1943Q661.553 83.8565 671.792 78.1875Q682.031 72.5186 694.072 72.5186Q709.277 72.5186 718.945 80.209Q728.613 87.8994 731.338 102.05L715.957 104.423Q713.76 95.0186 708.179 90.2725Q702.598 85.5264 694.688 85.5264Q682.734 85.5264 675.264 94.0957Q667.793 102.665 667.793 121.21Q667.793 140.019 675 148.544Q682.207 157.069 693.809 157.069Q703.125 157.069 709.365 151.356Q715.605 145.644 717.275 133.778ZM771.416 74.6279L746.807 74.6279L746.807 167.968L762.275 167.968L762.275 89.2178L788.379 167.968L802.529 167.968L830.127 92.8213L830.127 167.968L845.947 167.968L845.947 74.6279L823.184 74.6279L795.938 149.335L771.416 74.6279ZM271.67 121.298Q271.67 139.228 279.492 148.148Q287.314 157.069 299.18 157.069Q310.957 157.069 318.779 148.104Q326.602 139.14 326.602 120.771Q326.602 103.456 318.735 94.5352Q310.869 85.6143 299.18 85.6143Q287.314 85.6143 279.492 94.4912Q271.67 103.368 271.67 121.298ZM574.453 148.148Q566.631 139.228 566.631 121.298Q566.631 103.368 574.453 94.4912Q582.275 85.6143 594.141 85.6143Q605.83 85.6143 613.696 94.5352Q621.563 103.456 621.563 120.771Q621.563 139.14 613.74 148.104Q605.918 157.069 594.141 157.069Q582.275 157.069 574.453 148.148Z" />
    </g>
  </g>
</svg>
