<svg viewBox="0 0 1024 1024">
  <g>
    <path d="M0 9.56864e-05C0 9.56864e-05 438.805 0.0117342 743.172 9.45658e-05C1047.54 -0.011545 1035.7 479.448 751.078 479.377C466.452 479.306 32.5 480 32.5 480" transform="translate(24 272.0164)" fill="none" stroke="#000000" stroke-width="20" />
    <g transform="translate(463 420)">
      <path d="M13.125 149.305L13.125 34.7734L90.3906 34.7734L90.3906 48.2891L28.2813 48.2891L28.2813 83.7578L82.0313 83.7578L82.0313 97.2734L28.2813 97.2734L28.2813 149.305L13.125 149.305Z" />
    </g>
    <path d="M0 96.8963L68.3195 0L111.227 110.049" transform="matrix(-0.1218693 0.9925461 0.9925461 0.1218693 53.77148 684.5884)" fill="none" stroke="#000000" stroke-width="20" />
  </g>
</svg>
