<svg xmlns="http://www.w3.org/2000/svg" version="1.2" viewBox="0 0 1024 1024">
  <g>
    <path d="M6.69996 278.313C31.0731 92.7564 209.504 -78.7002 537.869 38.2886C866.233 155.277 939.478 283.763 957.869 341.789C976.26 399.815 935.259 503.261 820.873 579.812C706.487 656.362 572.003 594.458 477.553 574.823C398.365 558.361 305.172 640.229 215.369 629.289C18.4558 605.291 -17.6732 463.87 6.69996 278.313Z" transform="translate(30.13062 197.7114)" fill="none" stroke="#000000" stroke-width="20" />
    <path d="M0 18C0 8.05887 8.05887 0 18 0C27.9411 0 36 8.05887 36 18C36 27.9411 27.9411 36 18 36C8.05887 36 0 27.9411 0 18Z" transform="translate(88 431.9995)" fill="#000000" stroke="none" />
    <path d="M0 18C0 8.05887 8.05887 0 18 0C27.9411 0 36 8.05887 36 18C36 27.9411 27.9411 36 18 36C8.05887 36 0 27.9411 0 18Z" transform="translate(75.99976 519.9995)" fill="#000000" stroke="none" />
    <path d="M0 18C0 8.05887 8.05887 0 18 0C27.9411 0 36 8.05887 36 18C36 27.9411 27.9411 36 18 36C8.05887 36 0 27.9411 0 18Z" transform="translate(83.99976 603.9985)" fill="#000000" stroke="none" />
    <path d="M0 18C0 8.05887 8.05887 0 18 0C27.9411 0 36 8.05887 36 18C36 27.9411 27.9411 36 18 36C8.05887 36 0 27.9411 0 18Z" transform="translate(112 683.9995)" fill="#000000" stroke="none" />
    <path d="M0 18C0 8.05887 8.05887 0 18 0C27.9411 0 36 8.05887 36 18C36 27.9411 27.9411 36 18 36C8.05887 36 0 27.9411 0 18Z" transform="translate(180 735.9995)" fill="#000000" stroke="none" />
    <path d="M0 18C0 8.05887 8.05887 0 18 0C27.9411 0 36 8.05887 36 18C36 27.9411 27.9411 36 18 36C8.05887 36 0 27.9411 0 18Z" transform="translate(280 747.9995)" fill="#000000" stroke="none" />
    <path d="M0 18C0 8.05887 8.05887 0 18 0C27.9411 0 36 8.05887 36 18C36 27.9411 27.9411 36 18 36C8.05887 36 0 27.9411 0 18Z" transform="translate(373.9998 702.0005)" fill="#000000" stroke="none" />
    <path d="M0 18C0 8.05887 8.05887 0 18 0C27.9411 0 36 8.05887 36 18C36 27.9411 27.9411 36 18 36C8.05887 36 0 27.9411 0 18Z" transform="translate(476.0002 671.9995)" fill="#000000" stroke="none" />
    <path d="M0 18C0 8.05887 8.05887 0 18 0C27.9411 0 36 8.05887 36 18C36 27.9411 27.9411 36 18 36C8.05887 36 0 27.9411 0 18Z" transform="translate(584.0002 699.9995)" fill="#000000" stroke="none" />
    <path d="M0 18C0 8.05887 8.05887 0 18 0C27.9411 0 36 8.05887 36 18C36 27.9411 27.9411 36 18 36C8.05887 36 0 27.9411 0 18Z" transform="translate(676 720.0005)" fill="#000000" stroke="none" />
    <path d="M0 18C0 8.05887 8.05887 0 18 0C27.9411 0 36 8.05887 36 18C36 27.9411 27.9411 36 18 36C8.05887 36 0 27.9411 0 18Z" transform="translate(772 699.9985)" fill="#000000" stroke="none" />
    <path d="M0 18C0 8.05887 8.05887 0 18 0C27.9411 0 36 8.05887 36 18C36 27.9411 27.9411 36 18 36C8.05887 36 0 27.9411 0 18Z" transform="translate(846 645.9995)" fill="#000000" stroke="none" />
    <path d="M0 18C0 8.05887 8.05887 0 18 0C27.9411 0 36 8.05887 36 18C36 27.9411 27.9411 36 18 36C8.05887 36 0 27.9411 0 18Z" transform="translate(892 568.0005)" fill="#000000" stroke="none" />
    <path d="M0 18C0 8.05887 8.05887 0 18 0C27.9411 0 36 8.05887 36 18C36 27.9411 27.9411 36 18 36C8.05887 36 0 27.9411 0 18Z" transform="translate(864 483.9995)" fill="#000000" stroke="none" />
    <path d="M0 18C0 8.05887 8.05887 0 18 0C27.9411 0 36 8.05887 36 18C36 27.9411 27.9411 36 18 36C8.05887 36 0 27.9411 0 18Z" transform="translate(791.9998 420.0005)" fill="#000000" stroke="none" />
    <path d="M0 18C0 8.05887 8.05887 0 18 0C27.9411 0 36 8.05887 36 18C36 27.9411 27.9411 36 18 36C8.05887 36 0 27.9411 0 18Z" transform="translate(716 371.9985)" fill="#000000" stroke="none" />
    <path d="M0 18C0 8.05887 8.05887 0 18 0C27.9411 0 36 8.05887 36 18C36 27.9411 27.9411 36 18 36C8.05887 36 0 27.9411 0 18Z" transform="translate(636.0002 327.9995)" fill="#000000" stroke="none" />
    <path d="M0 18C0 8.05887 8.05887 0 18 0C27.9411 0 36 8.05887 36 18C36 27.9411 27.9411 36 18 36C8.05887 36 0 27.9411 0 18Z" transform="translate(556 292)" fill="#000000" stroke="none" />
    <path d="M0 18C0 8.05887 8.05887 0 18 0C27.9411 0 36 8.05887 36 18C36 27.9411 27.9411 36 18 36C8.05887 36 0 27.9411 0 18Z" transform="translate(476 264.0005)" fill="#000000" stroke="none" />
    <path d="M0 18C0 8.05887 8.05887 0 18 0C27.9411 0 36 8.05887 36 18C36 27.9411 27.9411 36 18 36C8.05887 36 0 27.9411 0 18Z" transform="translate(396.9998 248)" fill="#000000" stroke="none" />
    <path d="M0 18C0 8.05887 8.05887 0 18 0C27.9411 0 36 8.05887 36 18C36 27.9411 27.9411 36 18 36C8.05887 36 0 27.9411 0 18Z" transform="translate(312.0002 247.999)" fill="#000000" stroke="none" />
    <path d="M0 18C0 8.05887 8.05887 0 18 0C27.9411 0 36 8.05887 36 18C36 27.9411 27.9411 36 18 36C8.05887 36 0 27.9411 0 18Z" transform="translate(232.0002 280.0005)" fill="#000000" stroke="none" />
    <path d="M0 18C0 8.05887 8.05887 0 18 0C27.9411 0 36 8.05887 36 18C36 27.9411 27.9411 36 18 36C8.05887 36 0 27.9411 0 18Z" transform="translate(144 345.9995)" fill="#000000" stroke="none" />
    <g transform="translate(302.6738 408)">
      <path d="M145.986 54.9844Q128.76 73.1338 128.76 105.214Q128.76 122.177 136.143 137.382Q143.525 152.587 157.852 161.376Q172.178 170.165 190.371 170.165Q207.158 170.165 221.66 162.211Q236.162 154.257 244.072 138.788Q251.982 123.319 251.982 103.72Q251.982 84.3838 244.468 69.1348Q236.953 53.8857 222.627 45.3604Q208.301 36.835 190.459 36.835Q163.213 36.835 145.986 54.9844ZM13.8867 39.1201L13.8867 167.968L30.9375 167.968L30.9375 115.585L63.9844 115.585Q91.3184 115.585 101.777 104.203Q112.236 92.8213 112.236 76.3857Q112.236 66.8057 108.325 58.8076Q104.414 50.8096 97.998 46.3711Q91.582 41.9326 82.0898 40.3506Q75.3223 39.1201 62.4902 39.1201L13.8867 39.1201ZM158.862 142.172Q146.338 128.769 146.338 105.478Q146.338 76.3857 159.39 63.9492Q172.441 51.5127 190.547 51.5127Q203.291 51.5127 213.53 57.9727Q223.77 64.4326 229.087 76.166Q234.404 87.8994 234.404 103.632Q234.404 128.505 221.968 142.04Q209.531 155.575 190.283 155.575Q171.387 155.575 158.862 142.172ZM64.248 100.38L30.9375 100.38L30.9375 54.3252L63.8965 54.3252Q75.498 54.3252 79.8047 55.4678Q86.4844 57.3135 90.5713 63.0703Q94.6582 68.8272 94.6582 76.9131Q94.6582 88.0752 87.7148 94.2275Q80.7715 100.38 64.248 100.38Z" />
    </g>
  </g>
</svg>
