<svg xmlns="http://www.w3.org/2000/svg" version="1.2" viewBox="0 0 1024 1024">
  <g>
    <path d="M0 96.8963L68.3195 0L111.227 110.049" transform="matrix(0.1218693 0.9925461 -0.9925461 0.1218693 971.875 500.6787)" fill="none" stroke="#000000" stroke-width="20" />
    <path d="M335.57 55.5005L127.5 56.5005L176 0.000488284L0 0" transform="matrix(-1 0 0 1 408 512)" fill="none" stroke="#000000" stroke-width="20" />
    <path d="M351.57 55.5L143.5 56.5L192 0L0 0" transform="translate(616 512)" fill="none" stroke="#000000" stroke-width="20" />
    <path d="M0 96.8963L68.3195 0L111.227 110.049" transform="matrix(-0.1218693 0.9925461 0.9925461 0.1218693 61.13086 499.6787)" fill="none" stroke="#000000" stroke-width="20" />
    <g transform="translate(455 444.0005)">
      <path d="M94.0625 109.148L109.219 112.977Q104.453 131.648 92.0703 141.453Q79.6875 151.258 61.7969 151.258Q43.2813 151.258 31.6797 143.719Q20.0781 136.18 14.0234 121.883Q7.96875 107.586 7.96875 91.1797Q7.96875 73.2891 14.8047 59.9688Q21.6406 46.6484 34.2578 39.7344Q46.875 32.8203 62.0313 32.8203Q79.2187 32.8203 90.9375 41.5703Q102.656 50.3203 107.266 66.1797L92.3438 69.6953Q88.3594 57.1953 80.7813 51.4922Q73.2031 45.7891 61.7188 45.7891Q48.5156 45.7891 39.6484 52.1172Q30.7812 58.4453 27.1875 69.1094Q23.5937 79.7734 23.5938 91.1016Q23.5938 105.711 27.8516 116.609Q32.1094 127.508 41.0938 132.898Q50.0781 138.289 60.5469 138.289Q73.2812 138.289 82.1094 130.945Q90.9375 123.602 94.0625 109.148Z" />
    </g>
  </g>
</svg>
