<svg viewBox="0 0 1024 1024">
  <g>
    <path d="M0 96.8963L68.3195 0L111.227 110.049" transform="matrix(0.1218693 0.9925461 -0.9925461 0.1218693 971.875 500.6787)" fill="none" stroke="#000000" stroke-width="20" />
    <path d="M335.57 55.5005L127.5 56.5005L176 0.000488284L0 0" transform="matrix(-1 0 0 1 408 512)" fill="none" stroke="#000000" stroke-width="20" />
    <path d="M351.57 55.5L143.5 56.5L192 0L0 0" transform="translate(616 512)" fill="none" stroke="#000000" stroke-width="20" />
    <path d="M0 96.8963L68.3195 0L111.227 110.049" transform="matrix(-0.1218693 0.9925461 0.9925461 0.1218693 61.13086 499.6787)" fill="none" stroke="#000000" stroke-width="20" />
    <g transform="translate(454 420)">
      <path d="M7.1875 112.508L21.4844 111.258Q22.5 119.852 26.2109 125.359Q29.9219 130.867 37.7344 134.266Q45.5469 137.664 55.3125 137.664Q63.9844 137.664 70.625 135.086Q77.2656 132.508 80.5078 128.016Q83.75 123.523 83.75 118.211Q83.75 112.82 80.625 108.797Q77.5 104.773 70.3125 102.039Q65.7031 100.242 49.9219 96.4531Q34.1406 92.6641 27.8125 89.3047Q19.6094 85.0078 15.5859 78.6406Q11.5625 72.2734 11.5625 64.3828Q11.5625 55.7109 16.4844 48.1719Q21.4063 40.6328 30.8594 36.7266Q40.3125 32.8203 51.875 32.8203Q64.6094 32.8203 74.3359 36.9219Q84.0625 41.0234 89.2969 48.9922Q94.5313 56.9609 94.9219 67.0391L80.3906 68.1328Q79.2187 57.2734 72.4609 51.7266Q65.7031 46.1797 52.5 46.1797Q38.75 46.1797 32.4609 51.2188Q26.1719 56.2578 26.1719 63.3672Q26.1719 69.5391 30.625 73.5234Q35 77.5078 53.4766 81.6875Q71.9531 85.8672 78.8281 88.9922Q88.8281 93.6016 93.5938 100.672Q98.3594 107.742 98.3594 116.961Q98.3594 126.102 93.125 134.188Q87.8906 142.273 78.0859 146.766Q68.2813 151.258 56.0156 151.258Q40.4688 151.258 29.9609 146.727Q19.4531 142.195 13.4766 133.094Q7.5 123.992 7.1875 112.508Z" />
    </g>
  </g>
</svg>
