<svg xmlns="http://www.w3.org/2000/svg" version="1.2" viewBox="0 0 1024 1024">
  <g>
    <path d="M6.69996 278.313C31.0731 92.7564 209.504 -78.7002 537.869 38.2886C866.233 155.277 939.478 283.763 957.869 341.789C976.26 399.815 935.259 503.261 820.873 579.812C706.487 656.362 572.003 594.458 477.553 574.823C398.365 558.361 305.172 640.229 215.369 629.289C18.4558 605.291 -17.6732 463.87 6.69996 278.313Z" transform="translate(30.13062 197.7114)" fill="none" stroke="#000000" stroke-width="20" />
    <g transform="translate(216 409)">
      <path d="M13.3594 39.1201L13.3594 167.968L29.7949 167.968L29.7949 58.2803L67.0605 167.968L82.4414 167.968L119.883 60.126L119.883 167.968L136.318 167.968L136.318 39.1201L113.379 39.1201L82.5293 128.769Q77.8711 142.392 75.6738 149.423Q73.7402 143.095 69.5215 130.351L39.0234 39.1201L13.3594 39.1201ZM265.342 39.1201L164.004 39.1201L164.004 167.968L181.055 167.968L181.055 54.3252L248.203 54.3252L248.203 167.968L265.342 167.968L265.342 39.1201ZM291.27 57.3135L291.27 39.1201L307.09 39.1201L307.09 57.3135L291.27 57.3135ZM497.109 133.778L512.666 135.8Q510.117 151.884 499.614 160.98Q489.111 170.077 473.818 170.077Q454.658 170.077 443.013 157.553Q431.367 145.028 431.367 121.649Q431.367 106.532 436.377 95.1943Q441.387 83.8565 451.626 78.1875Q461.865 72.5186 473.906 72.5186Q489.111 72.5186 498.779 80.209Q508.447 87.8994 511.172 102.05L495.791 104.423Q493.594 95.0186 488.013 90.2725Q482.432 85.5264 474.521 85.5264Q462.568 85.5264 455.098 94.0957Q447.627 102.665 447.627 121.21Q447.627 140.019 454.834 148.544Q462.041 157.069 473.643 157.069Q482.959 157.069 489.199 151.356Q495.439 145.644 497.109 133.778ZM291.27 167.968L291.27 74.6279L307.09 74.6279L307.09 167.968L291.27 167.968ZM408.691 74.6279L343.652 74.6279Q344.355 132.284 327.656 154.96L319.307 154.96L319.307 194.423L332.314 194.423L332.314 167.968L405.791 167.968L405.791 194.423L418.799 194.423L418.799 154.96L408.691 154.96L408.691 74.6279ZM541.934 74.6279L526.113 74.6279L526.113 167.968L541.934 167.968L541.934 124.813Q547.295 124.813 551.162 127.582Q555.029 130.351 560.215 139.052L577.09 167.968L594.492 167.968L577.178 139.052Q567.334 122.792 557.139 120.067Q563.379 117.167 566.367 113.651Q569.355 110.136 572.959 100.995Q576.738 91.415 578.584 89.4814Q580.342 87.6357 586.582 87.6357L590.977 87.7236L590.977 74.6279L587.813 74.6279Q579.463 74.6279 575.684 75.8584Q571.904 77.0889 569.004 80.6045Q566.104 84.1201 561.445 95.1943Q555.557 109.169 552.524 112.069Q549.492 114.97 541.934 114.97L541.934 74.6279ZM342.773 154.96Q355.078 133.163 356.836 87.7236L392.959 87.7236L392.959 154.96L342.773 154.96Z" />
    </g>
  </g>
</svg>
