<svg xmlns="http://www.w3.org/2000/svg" version="1.2" viewBox="0 0 1024 1024">
  <g>
    <g transform="translate(24 318.001)">
      <path d="M385.469 34.7734L400.625 34.7734L400.625 84.9297Q411.016 84.9297 415.234 80.9063Q419.453 76.8828 426.016 61.5703Q430.781 50.3203 433.867 45.6719Q436.953 41.0234 442.656 37.8594Q448.359 34.6953 455.234 34.6953Q463.984 34.6953 464.453 34.8516L464.453 47.9766Q463.672 47.9766 461.406 47.8984Q458.906 47.8203 458.359 47.8203Q451.094 47.8203 447.578 51.3359Q443.984 54.8516 439.375 66.3359Q433.594 80.8672 429.609 84.6563Q425.625 88.4453 420.078 90.7109Q431.172 93.7578 441.953 111.18L465.547 149.305L446.719 149.305L427.578 118.211Q419.688 105.32 414.375 100.516Q409.063 95.7109 400.625 95.7109L400.625 149.305L385.469 149.305L385.469 34.7734ZM12.3438 149.305L12.3438 34.7734L55.5469 34.7734Q66.9531 34.7734 72.9688 35.8672Q81.4063 37.2734 87.1094 41.2188Q92.8125 45.1641 96.2891 52.2734Q99.7656 59.3828 99.7656 67.8984Q99.7656 82.5078 90.4688 92.625Q81.1719 102.742 56.875 102.742L27.5 102.742L27.5 149.305L12.3438 149.305ZM119.375 149.305L119.375 34.7734L202.188 34.7734L202.188 48.2891L134.531 48.2891L134.531 83.3672L197.891 83.3672L197.891 96.8047L134.531 96.8047L134.531 135.789L204.844 135.789L204.844 149.305L119.375 149.305ZM316.016 34.7734L225.938 34.7734L225.938 149.305L241.094 149.305L241.094 48.2891L300.781 48.2891L300.781 149.305L316.016 149.305L316.016 34.7734ZM511.094 89.6172L466.797 149.305L485 149.305L513.75 109.383Q515.391 107.039 519.219 100.789Q521.797 104.93 524.219 108.445L553.047 149.305L571.797 149.305L528.438 88.7578L568.672 34.7734L552.188 34.7734L529.141 65.1641Q523.906 71.9609 520.078 78.2109Q517.344 73.2891 510.859 64.1484L490.078 34.7734L472.031 34.7734L511.094 89.6172ZM27.5 89.2266L57.1094 89.2266Q71.7969 89.2266 77.9688 83.7578Q84.1406 78.2891 84.1406 68.3672Q84.1406 61.1797 80.5078 56.0625Q76.875 50.9453 70.9375 49.3047Q67.1094 48.2891 56.7969 48.2891L27.5 48.2891L27.5 89.2266Z" />
    </g>
    <path d="M0 1L976 1" transform="translate(24 511)" fill="none" stroke="#000000" stroke-width="20" />
  </g>
</svg>
