<svg xmlns="http://www.w3.org/2000/svg" version="1.2" viewBox="0 0 1024 1024">
  <g>
    <path d="M0.000121312 176L1.1142e-05 0L784 0L783.002 935L0 935.5L2.55718e-06 736" transform="matrix(-4.371139E-08 1 -1 -4.371139E-08 976.001 127.9999)" fill="none" stroke="#000000" stroke-width="20" />
    <g transform="translate(268.001 36)">
      <path d="M45.5469 149.305L59.6094 149.305L59.6094 34.3047L50.5469 34.3047Q46.875 41.7266 38.0469 49.6172Q29.2188 57.5078 17.4219 63.0547L17.4219 76.6484Q23.9844 74.2266 32.2266 69.3828Q40.4687 64.5391 45.5469 59.6953L45.5469 149.305ZM233.242 60.125Q229.063 72.5078 229.063 92.8203Q229.063 125.086 240.391 139.383Q249.844 151.258 266.406 151.258Q278.984 151.258 287.227 144.5Q295.469 137.742 299.609 125.359Q303.75 112.977 303.75 92.8203Q303.75 75.7891 301.172 65.75Q298.594 55.7109 294.063 48.7188Q289.531 41.7266 282.578 38.0156Q275.625 34.3047 266.406 34.3047Q253.906 34.3047 245.664 41.0234Q237.422 47.7422 233.242 60.125ZM318.047 92.8203Q318.047 72.5078 322.227 60.125Q326.406 47.7422 334.648 41.0234Q342.891 34.3047 355.391 34.3047Q364.609 34.3047 371.563 38.0156Q378.516 41.7266 383.047 48.7188Q387.578 55.7109 390.156 65.75Q392.734 75.7891 392.734 92.8203Q392.734 112.977 388.594 125.359Q384.453 137.742 376.211 144.5Q367.969 151.258 355.391 151.258Q338.828 151.258 329.375 139.383Q318.047 125.086 318.047 92.8203ZM411.211 60.125Q407.031 72.5078 407.031 92.8203Q407.031 125.086 418.359 139.383Q427.813 151.258 444.375 151.258Q456.953 151.258 465.195 144.5Q473.438 137.742 477.578 125.359Q481.719 112.977 481.719 92.8203Q481.719 75.7891 479.141 65.75Q476.563 55.7109 472.031 48.7188Q467.5 41.7266 460.547 38.0156Q453.594 34.3047 444.375 34.3047Q431.875 34.3047 423.633 41.0234Q415.391 47.7422 411.211 60.125ZM140.078 119.305L154.844 118.055Q156.484 128.836 162.461 134.266Q168.438 139.695 176.875 139.695Q187.031 139.695 194.063 132.039Q201.094 124.383 201.094 111.727Q201.094 99.6953 194.336 92.7422Q187.578 85.7891 176.641 85.7891Q169.844 85.7891 164.375 88.875Q158.906 91.9609 155.781 96.8828L142.578 95.1641L153.672 36.3359L210.625 36.3359L210.625 49.7734L164.922 49.7734L158.75 80.5547Q169.063 73.3672 180.391 73.3672Q195.391 73.3672 205.703 83.7578Q216.016 94.1484 216.016 110.477Q216.016 126.023 206.953 137.352Q195.938 151.258 176.875 151.258Q161.25 151.258 151.367 142.508Q141.484 133.758 140.078 119.305ZM250.117 130.359Q243.516 121.023 243.516 92.8203Q243.516 64.6172 250.781 54.1484Q256.563 45.9453 266.25 45.9453Q276.094 45.9453 282.695 55.2422Q289.297 64.5391 289.297 92.8203Q289.297 120.945 282.695 130.32Q276.094 139.695 266.406 139.695Q256.719 139.695 250.117 130.359ZM332.5 92.8203Q332.5 121.023 339.102 130.359Q345.703 139.695 355.391 139.695Q365.078 139.695 371.68 130.32Q378.281 120.945 378.281 92.8203Q378.281 64.5391 371.68 55.2422Q365.078 45.9453 355.234 45.9453Q345.547 45.9453 339.766 54.1484Q332.5 64.6172 332.5 92.8203ZM428.086 130.359Q421.484 121.023 421.484 92.8203Q421.484 64.6172 428.75 54.1484Q434.531 45.9453 444.219 45.9453Q454.063 45.9453 460.664 55.2422Q467.266 64.5391 467.266 92.8203Q467.266 120.945 460.664 130.32Q454.063 139.695 444.375 139.695Q434.688 139.695 428.086 130.359ZM103.438 66.3359L103.438 82.3516L119.453 82.3516L119.453 66.3359L103.438 66.3359ZM103.438 133.289L103.438 149.305L119.453 149.305L119.453 133.289L103.438 133.289Z" />
    </g>
  </g>
</svg>
