<svg viewBox="0 0 1024 1024">
  <g>
    <path d="M1 0L1 160" transform="matrix(0.9510565 0.309017 -0.309017 0.9510565 242.1553 182.6338)" fill="none" stroke="#000000" stroke-width="20" />
    <path d="M1 0L1 160" transform="matrix(0.9510565 0.309017 -0.309017 0.9510565 161.1689 428.6484)" fill="none" stroke="#000000" stroke-width="20" />
    <path d="M1 0L1 160" transform="matrix(-4.371139E-08 1 -1 -4.371139E-08 705.0361 187.3721)" fill="none" stroke="#000000" stroke-width="20" />
    <path d="M1 0L1 160" transform="matrix(-4.371139E-08 1 -1 -4.371139E-08 446.0361 186.3721)" fill="none" stroke="#000000" stroke-width="20" />
    <path d="M1 0L1 160" transform="matrix(-4.371139E-08 1 -1 -4.371139E-08 964.0361 186.3721)" fill="none" stroke="#000000" stroke-width="20" />
    <path d="M1 0L1 160" transform="matrix(0.9510565 0.309017 -0.309017 0.9510565 81.44238 674.0205)" fill="none" stroke="#000000" stroke-width="20" />
    <path d="M1 0L1 160" transform="matrix(-0.9510565 -0.309017 0.309017 -0.9510565 781.917 841.1748)" fill="none" stroke="#000000" stroke-width="20" />
    <path d="M1 0L1 160" transform="matrix(-0.9510565 -0.309017 0.309017 -0.9510565 862.9033 595.1602)" fill="none" stroke="#000000" stroke-width="20" />
    <path d="M1 0L1 160" transform="matrix(4.371139E-08 -1 1 4.371139E-08 319.0361 836.4365)" fill="none" stroke="#000000" stroke-width="20" />
    <path d="M1 0L1 160" transform="matrix(4.371139E-08 -1 1 4.371139E-08 578.0361 837.4365)" fill="none" stroke="#000000" stroke-width="20" />
    <path d="M1 0L1 160" transform="matrix(4.371139E-08 -1 1 4.371139E-08 60.03613 837.4365)" fill="none" stroke="#000000" stroke-width="20" />
    <path d="M1 0L1 160" transform="matrix(-0.9510565 -0.309017 0.309017 -0.9510565 942.6299 349.7881)" fill="none" stroke="#000000" stroke-width="20" />
  </g>
</svg>
