<svg viewBox="0 0 1024 1024">
  <g>
    <path d="M0 85C0 38.0558 38.0558 0 85 0C131.944 0 170 38.0558 170 85C170 131.944 131.944 170 85 170C38.0558 170 0 131.944 0 85Z" transform="translate(139.0002 427)" fill="#000000" stroke="none" />
    <path d="M0 85C0 38.0558 38.0558 0 85 0C131.944 0 170 38.0558 170 85C170 131.944 131.944 170 85 170C38.0558 170 0 131.944 0 85Z" transform="translate(427.0005 427)" fill="#000000" stroke="none" />
    <path d="M0 85C0 38.0558 38.0558 0 85 0C131.944 0 170 38.0558 170 85C170 131.944 131.944 170 85 170C38.0558 170 0 131.944 0 85Z" transform="translate(714.9995 427)" fill="#000000" stroke="none" />
    <path d="M768 1L0 1" transform="matrix(4.371139E-08 -1 -1 -4.371139E-08 657.9643 894.5332)" fill="none" stroke="#000000" stroke-width="20" />
    <path d="M0 90.5508L115.899 0L205.891 116.333" transform="matrix(-0.9925461 0.1218693 -0.1218693 -0.9925461 771.9995 120.9082)" fill="none" stroke="#000000" stroke-width="20" />
    <path d="M0 90.5508L115.899 0L205.891 116.333" transform="matrix(-0.9925461 -0.1218694 -0.1218694 0.9925461 771.9995 901.5342)" fill="none" stroke="#000000" stroke-width="20" />
    <path d="M0 0L944 0L944 312L0 312L0 0Z" transform="translate(40 356)" fill="none" stroke="#000000" stroke-width="20" />
  </g>
</svg>
