<svg xmlns="http://www.w3.org/2000/svg" version="1.2" viewBox="0 0 1024 1024">
  <g stroke-width="20" >
    <g stroke="#FFA900" fill="none">
      <path  d="M75 400l270 -270"/>
      <path  d="M50 600l450 -450"/>
      <path  d="M70 760l570 -570"/>
      <path  d="M160 850l600 -600"/>
      <path  d="M300 890l600 -600"/>
      <path  d="M530 830l450 -450"/>
      <path  d="M660 880l320 -320"/>
    </g>
    <path fill="none" d="M6.69997 342.648C31.0731 114.198 209.505 -96.8927 537.869 47.1395C866.234 191.172 859.884 127.451 907.089 195.502C954.295 263.553 935.26 619.595 820.874 713.843C706.488 808.088 572.004 731.873 477.553 707.7C398.365 687.432 305.173 788.226 215.369 774.756C18.4558 745.211 -17.6732 571.099 6.69997 342.648Z" transform="translate(45.91064 124)" stroke="#000000"/>
    <path d="M255.001 0L510 440L0 439.999L255.001 0Z" transform="matrix(-1 8.742278E-08 -8.742278E-08 -1 767.7798 732.2891)" fill="none" stroke="#000000" />
    <path d="M0 31.25C0 13.9911 13.9911 0 31.25 0C48.5089 0 62.5 13.9911 62.5 31.25C62.5 48.5089 48.5089 62.5 31.25 62.5C13.9911 62.5 0 48.5089 0 31.25Z" transform="translate(402.78 409.7891)" fill="#000000" stroke="none" />
    <path d="M0 0.00223227C0 0.00223227 54.8438 -0.778794 89.375 26.8774C123.906 54.5337 138.125 110.627 138.125 110.627" transform="translate(444.655 432.2891)" fill="none" stroke="#000000"/>
    <path d="M0 31.25C0 13.9911 13.9911 0 31.25 0C48.5089 0 62.5 13.9911 62.5 31.25C62.5 48.5089 48.5089 62.5 31.25 62.5C13.9911 62.5 0 48.5089 0 31.25Z" transform="matrix(-1 0 0 1 622.78 409.7891)" fill="#000000" stroke="none" />
    <path d="M0 0.00223227C0 0.00223227 54.8438 -0.778794 89.375 26.8774C123.906 54.5337 138.125 110.627 138.125 110.627" transform="matrix(-1 0 0 1 580.905 432.2891)" fill="none" stroke="#000000"/>
    <g transform="translate(473.3398 294)">
      <path d="M70.5469 81.8613L81.9141 84.7324Q78.3398 98.7363 69.0527 106.09Q59.7656 113.443 46.3477 113.443Q32.4609 113.443 23.7598 107.789Q15.0586 102.135 10.5176 91.4121Q5.97656 80.6895 5.97656 68.3848Q5.97656 54.9668 11.1035 44.9766Q16.2305 34.9863 25.6934 29.8008Q35.1562 24.6152 46.5234 24.6152Q59.4141 24.6152 68.2031 31.1777Q76.9922 37.7402 80.4492 49.6348L69.2578 52.2715Q66.2695 42.8965 60.5859 38.6191Q54.9023 34.3418 46.2891 34.3418Q36.3867 34.3418 29.7363 39.0879Q23.0859 43.834 20.3906 51.832Q17.6953 59.8301 17.6953 68.3262Q17.6953 79.2832 20.8887 87.457Q24.082 95.6309 30.8203 99.6738Q37.5586 103.717 45.4102 103.717Q54.9609 103.717 61.582 98.209Q68.2031 92.7012 70.5469 81.8613Z" />
    </g>
  </g>
</svg>
