<svg viewBox="0 0 1024 1024">
  <g>
    <path d="M0 0.000176867C0 0.000176867 438.805 0.0118305 743.172 0.000175745C1047.54 -0.011479 1035.7 480.071 751.078 480C466.452 479.93 463.5 479.996 463.5 479.996" transform="translate(24 271.3975)" fill="none" stroke="#000000" stroke-width="20" />
    <path d="M216 1L0 1" transform="translate(64 751)" fill="none" stroke="#000000" stroke-width="20" />
    <g transform="translate(309 660)">
      <path d="M32.3438 149.305L1.95313 34.7734L17.5 34.7734L34.9219 109.852Q37.7344 121.648 39.7656 133.289Q44.1406 114.93 44.9219 112.117L66.7188 34.7734L85 34.7734L101.406 92.7422Q107.578 114.305 110.313 133.289Q112.5 122.43 116.016 108.367L133.984 34.7734L149.219 34.7734L117.813 149.305L103.203 149.305L79.0625 62.0391Q76.0156 51.1016 75.4688 48.6016Q73.6719 56.4922 72.1094 62.0391L47.8125 149.305L32.3438 149.305Z" />
    </g>
    <path d="M0 96.8963L68.3195 0L111.227 110.049" transform="matrix(-0.1218693 0.9925461 0.9925461 0.1218693 53.77148 684.4441)" fill="none" stroke="#000000" stroke-width="20" />
  </g>
</svg>
