<svg xmlns="http://www.w3.org/2000/svg" version="1.2" viewBox="0 0 1024 1024">
  <g>
    <g transform="translate(280.0005 471.9995)">
      <path d="M114.453 93.5234Q114.453 65.0078 129.766 48.875Q145.078 32.7422 169.297 32.7422Q185.156 32.7422 197.891 40.3203Q210.625 47.8984 217.305 61.4531Q223.984 75.0078 223.984 92.1953Q223.984 109.617 216.953 123.367Q209.922 137.117 197.031 144.188Q184.141 151.258 169.219 151.258Q153.047 151.258 140.313 143.445Q127.578 135.633 121.016 122.117Q114.453 108.602 114.453 93.5234ZM12.3438 149.305L12.3438 34.7734L55.5469 34.7734Q66.9531 34.7734 72.9688 35.8672Q81.4063 37.2734 87.1094 41.2188Q92.8125 45.1641 96.2891 52.2734Q99.7656 59.3828 99.7656 67.8984Q99.7656 82.5078 90.4688 92.625Q81.1719 102.742 56.875 102.742L27.5 102.742L27.5 149.305L12.3438 149.305ZM247.266 34.7734L231.953 34.7734L278.359 118.914Q273.516 131.57 269.492 135.125Q265.469 138.68 259.922 138.68Q253.125 138.68 247.031 135.164L247.031 148.133Q255.547 150.867 261.406 150.867Q271.016 150.867 276.172 145.711Q281.328 140.555 289.375 123.836L332.344 34.7734L317.266 34.7734L284.609 104.93L247.266 34.7734ZM130.078 93.7578Q130.078 114.461 141.211 126.375Q152.344 138.289 169.141 138.289Q186.25 138.289 197.305 126.258Q208.359 114.227 208.359 92.1172Q208.359 78.1328 203.633 67.7031Q198.906 57.2734 189.805 51.5313Q180.703 45.7891 169.375 45.7891Q153.281 45.7891 141.68 56.8438Q130.078 67.8984 130.078 93.7578ZM27.5 89.2266L57.1094 89.2266Q71.7969 89.2266 77.9688 83.7578Q84.1406 78.2891 84.1406 68.3672Q84.1406 61.1797 80.5078 56.0625Q76.875 50.9453 70.9375 49.3047Q67.1094 48.2891 56.7969 48.2891L27.5 48.2891L27.5 89.2266Z" />
    </g>
    <path d="M240.615 0L920 602.343L0 896L240.615 0Z" transform="translate(48 55.95752)" fill="none" stroke="#000000" stroke-width="20" />
  </g>
</svg>
