<svg xmlns="http://www.w3.org/2000/svg" version="1.2" viewBox="0 0 1024 1024">
	<path d="M0 80C0 35.8172 35.8172 0 80 0C124.183 0 160 35.8172 160 80C160 124.183 124.183 160 80 160C35.8172 160 0 124.183 0 80Z" transform="translate(496 424)" fill="none" stroke="#000000" stroke-width="20" />
    <path d="M0 1L104 1" transform="translate(650 504)" fill="none" stroke="#000000" stroke-width="20" />
    <g transform="translate(0 401)">
      <path d="M389.443 39.1201L372.393 39.1201L372.393 167.968L389.443 167.968L389.443 107.675Q398.936 107.675 404.912 113.08Q410.889 118.485 419.766 132.987L441.299 167.968L462.48 167.968L435.938 125.077Q423.809 105.478 411.328 102.05Q417.568 99.501 422.051 95.2383Q426.533 90.9756 433.037 74.6279Q438.223 61.708 442.266 57.7529Q446.221 53.7979 454.395 53.7979Q455.01 53.7979 457.822 53.8857Q460.371 53.9736 461.25 53.9736L461.25 39.208Q460.723 39.0322 450.879 39.0322Q443.145 39.0322 436.729 42.5918Q430.313 46.1514 426.841 51.3809Q423.369 56.6104 418.008 69.2666Q410.625 86.4932 405.879 91.0195Q401.133 95.5459 389.443 95.5459L389.443 39.1201ZM13.8867 39.1201L13.8867 167.968L30.9375 167.968L30.9375 115.585L63.9844 115.585Q91.3184 115.585 101.777 104.203Q112.236 92.8213 112.236 76.3857Q112.236 66.8057 108.325 58.8076Q104.414 50.8096 97.998 46.3711Q91.582 41.9326 82.0898 40.3506Q75.3223 39.1201 62.4902 39.1201L13.8867 39.1201ZM133.945 39.1201L133.945 167.968L150.996 167.968L150.996 115.585L184.043 115.585Q211.377 115.585 221.836 104.203Q232.295 92.8213 232.295 76.3857Q232.295 66.8057 228.384 58.8076Q224.473 50.8096 218.057 46.3711Q211.641 41.9326 202.148 40.3506Q195.381 39.1201 182.549 39.1201L133.945 39.1201ZM254.795 39.1201L338.379 39.1201L338.379 54.3252L271.846 54.3252L271.846 94.0518L302.607 94.0518Q319.658 94.0518 329.722 97.3037Q339.785 100.556 345.85 109.564Q351.914 118.573 351.914 130.526Q351.914 140.282 347.563 148.764Q343.213 157.245 334.6 162.606Q325.986 167.968 305.244 167.968L254.795 167.968L254.795 39.1201ZM64.248 100.38L30.9375 100.38L30.9375 54.3252L63.8965 54.3252Q75.498 54.3252 79.8047 55.4678Q86.4844 57.3135 90.5713 63.0703Q94.6582 68.8272 94.6582 76.9131Q94.6582 88.0752 87.7148 94.2275Q80.7715 100.38 64.248 100.38ZM184.307 100.38L150.996 100.38L150.996 54.3252L183.955 54.3252Q195.557 54.3252 199.863 55.4678Q206.543 57.3135 210.63 63.0703Q214.717 68.8272 214.717 76.9131Q214.717 88.0752 207.773 94.2275Q200.83 100.38 184.307 100.38ZM271.846 153.466L305.947 153.466Q319.746 153.466 326.646 147.841Q333.545 142.216 333.545 130.966Q333.545 122.968 329.59 117.606Q325.635 112.245 318.604 110.487Q311.572 108.729 294.609 108.729L271.846 108.729L271.846 153.466Z" />
    </g>
    <path d="M0 0L112 123.784" transform="translate(520 442)" fill="none" stroke="#000000" stroke-width="20" />
    <path d="M0 0L112 123.784" transform="matrix(-1 0 0 1 632 442)" fill="none" stroke="#000000" stroke-width="20" />
    <path d="M0 1L104 1" transform="translate(822 503)" fill="none" stroke="#000000" stroke-width="20" />
    <path d="M0 1L22 1" transform="translate(994 504)" fill="none" stroke="#000000" stroke-width="20" />
</svg>
