<svg viewBox="0 0 1024 1024">
  <g>
    <path d="M703.931 208L704 0L704 208L0 208.036L0.260467 0.000488281" transform="translate(152 631.9639)" fill="none" stroke="#000000" stroke-width="20" />
    <path d="M703.931 208L704 0L704 208L0 208.036L0.260467 0.000488281" transform="matrix(1 0 0 -1 152 400.0361)" fill="none" stroke="#000000" stroke-width="20" />
    <g transform="translate(0 420)">
      <path d="M12.3438 149.305L12.3438 34.7734L55.5469 34.7734Q66.9531 34.7734 72.9688 35.8672Q81.4063 37.2734 87.1094 41.2188Q92.8125 45.1641 96.2891 52.2734Q99.7656 59.3828 99.7656 67.8984Q99.7656 82.5078 90.4688 92.625Q81.1719 102.742 56.875 102.742L27.5 102.742L27.5 149.305L12.3438 149.305ZM118.438 149.305L118.438 34.7734L161.406 34.7734Q174.531 34.7734 182.461 38.25Q190.391 41.7266 194.883 48.9531Q199.375 56.1797 199.375 64.0703Q199.375 71.4141 195.391 77.8984Q191.406 84.3828 183.359 88.3672Q193.75 91.4141 199.336 98.7578Q204.922 106.102 204.922 116.102Q204.922 124.148 201.523 131.063Q198.125 137.977 193.125 141.727Q188.125 145.477 180.586 147.391C175.56 148.667 169.401 149.305 162.109 149.305L118.438 149.305ZM316.016 34.7734L225.938 34.7734L225.938 149.305L241.094 149.305L241.094 48.2891L300.781 48.2891L300.781 149.305L316.016 149.305L316.016 34.7734ZM27.5 89.2266L57.1094 89.2266Q71.7969 89.2266 77.9688 83.7578Q84.1406 78.2891 84.1406 68.3672Q84.1406 61.1797 80.5078 56.0625Q76.875 50.9453 70.9375 49.3047Q67.1094 48.2891 56.7969 48.2891L27.5 48.2891L27.5 89.2266ZM133.594 82.8984L158.359 82.8984Q168.438 82.8984 172.813 81.5703Q178.594 79.8516 181.523 75.8672Q184.453 71.8828 184.453 65.8672Q184.453 60.1641 181.719 55.8281Q178.984 51.4922 173.906 49.8906Q168.828 48.2891 156.484 48.2891L133.594 48.2891L133.594 82.8984ZM133.594 135.789L162.109 135.789Q169.453 135.789 172.422 135.242Q177.656 134.305 181.172 132.117Q184.688 129.93 186.953 125.75Q189.219 121.57 189.219 116.102Q189.219 109.695 185.938 104.969Q182.656 100.242 176.836 98.3281Q171.016 96.4141 160.078 96.4141L133.594 96.4141L133.594 135.789Z" />
    </g>
    <g transform="translate(695.5625 420)">
      <path d="M12.3438 149.305L12.3438 34.7734L55.5469 34.7734Q66.9531 34.7734 72.9688 35.8672Q81.4063 37.2734 87.1094 41.2188Q92.8125 45.1641 96.2891 52.2734Q99.7656 59.3828 99.7656 67.8984Q99.7656 82.5078 90.4688 92.625Q81.1719 102.742 56.875 102.742L27.5 102.742L27.5 149.305L12.3438 149.305ZM118.438 149.305L118.438 34.7734L161.406 34.7734Q174.531 34.7734 182.461 38.25Q190.391 41.7266 194.883 48.9531Q199.375 56.1797 199.375 64.0703Q199.375 71.4141 195.391 77.8984Q191.406 84.3828 183.359 88.3672Q193.75 91.4141 199.336 98.7578Q204.922 106.102 204.922 116.102Q204.922 124.148 201.523 131.063Q198.125 137.977 193.125 141.727Q188.125 145.477 180.586 147.391C175.56 148.667 169.401 149.305 162.109 149.305L118.438 149.305ZM316.016 34.7734L225.938 34.7734L225.938 149.305L241.094 149.305L241.094 48.2891L300.781 48.2891L300.781 149.305L316.016 149.305L316.016 34.7734ZM27.5 89.2266L57.1094 89.2266Q71.7969 89.2266 77.9688 83.7578Q84.1406 78.2891 84.1406 68.3672Q84.1406 61.1797 80.5078 56.0625Q76.875 50.9453 70.9375 49.3047Q67.1094 48.2891 56.7969 48.2891L27.5 48.2891L27.5 89.2266ZM133.594 82.8984L158.359 82.8984Q168.438 82.8984 172.813 81.5703Q178.594 79.8516 181.523 75.8672Q184.453 71.8828 184.453 65.8672Q184.453 60.1641 181.719 55.8281Q178.984 51.4922 173.906 49.8906Q168.828 48.2891 156.484 48.2891L133.594 48.2891L133.594 82.8984ZM133.594 135.789L162.109 135.789Q169.453 135.789 172.422 135.242Q177.656 134.305 181.172 132.117Q184.688 129.93 186.953 125.75Q189.219 121.57 189.219 116.102Q189.219 109.695 185.938 104.969Q182.656 100.242 176.836 98.3281Q171.016 96.4141 160.078 96.4141L133.594 96.4141L133.594 135.789Z" />
    </g>
  </g>
</svg>
