<svg xmlns="http://www.w3.org/2000/svg" version="1.2" viewBox="0 0 1024 1024">
  <g>
    <path d="M703.931 208L704 0L704 208L0 208.036L0.260467 0.000488281" transform="translate(152 631.9639)" fill="none" stroke="#000000" stroke-width="20" />
    <path d="M703.931 208L704 0L704 208L0 208.036L0.260467 0.000488281" transform="matrix(1 0 0 -1 152 400.0361)" fill="none" stroke="#000000" stroke-width="20" />
    <g transform="translate(0 420)">
      <path d="M7.73438 93.5234Q7.73437 65.0078 23.0469 48.875Q38.3594 32.7422 62.5781 32.7422Q78.4375 32.7422 91.1719 40.3203Q103.906 47.8984 110.586 61.4531Q117.266 75.0078 117.266 92.1953Q117.266 109.617 110.234 123.367Q103.203 137.117 90.3125 144.188Q77.4219 151.258 62.5 151.258Q46.3281 151.258 33.5938 143.445Q20.8594 135.633 14.2969 122.117Q7.73437 108.602 7.73438 93.5234ZM136.953 34.7734L227.031 34.7734L227.031 149.305L211.797 149.305L211.797 48.2891L152.109 48.2891L152.109 149.305L136.953 149.305L136.953 34.7734ZM251.797 34.7734L251.797 149.305L266.953 149.305L266.953 102.742L296.328 102.742Q320.625 102.742 329.922 92.625Q339.219 82.5078 339.219 67.8984Q339.219 59.3828 335.742 52.2734Q332.266 45.1641 326.563 41.2188Q320.859 37.2734 312.422 35.8672Q306.406 34.7734 295 34.7734L251.797 34.7734ZM23.3594 93.7578Q23.3594 114.461 34.4922 126.375Q45.625 138.289 62.4219 138.289Q79.5313 138.289 90.5859 126.258Q101.641 114.227 101.641 92.1172Q101.641 78.1328 96.9141 67.7031Q92.1875 57.2734 83.0859 51.5313Q73.9844 45.7891 62.6563 45.7891Q46.5625 45.7891 34.9609 56.8438Q23.3594 67.8984 23.3594 93.7578ZM296.563 89.2266L266.953 89.2266L266.953 48.2891L296.25 48.2891Q306.563 48.2891 310.391 49.3047Q316.328 50.9453 319.961 56.0625Q323.594 61.1797 323.594 68.3672Q323.594 78.2891 317.422 83.7578Q311.25 89.2266 296.563 89.2266Z" />
    </g>
    <g transform="translate(677.8281 420)">
      <path d="M7.73438 93.5234Q7.73437 65.0078 23.0469 48.875Q38.3594 32.7422 62.5781 32.7422Q78.4375 32.7422 91.1719 40.3203Q103.906 47.8984 110.586 61.4531Q117.266 75.0078 117.266 92.1953Q117.266 109.617 110.234 123.367Q103.203 137.117 90.3125 144.188Q77.4219 151.258 62.5 151.258Q46.3281 151.258 33.5938 143.445Q20.8594 135.633 14.2969 122.117Q7.73437 108.602 7.73438 93.5234ZM136.953 34.7734L227.031 34.7734L227.031 149.305L211.797 149.305L211.797 48.2891L152.109 48.2891L152.109 149.305L136.953 149.305L136.953 34.7734ZM251.797 34.7734L251.797 149.305L266.953 149.305L266.953 102.742L296.328 102.742Q320.625 102.742 329.922 92.625Q339.219 82.5078 339.219 67.8984Q339.219 59.3828 335.742 52.2734Q332.266 45.1641 326.563 41.2188Q320.859 37.2734 312.422 35.8672Q306.406 34.7734 295 34.7734L251.797 34.7734ZM23.3594 93.7578Q23.3594 114.461 34.4922 126.375Q45.625 138.289 62.4219 138.289Q79.5313 138.289 90.5859 126.258Q101.641 114.227 101.641 92.1172Q101.641 78.1328 96.9141 67.7031Q92.1875 57.2734 83.0859 51.5313Q73.9844 45.7891 62.6563 45.7891Q46.5625 45.7891 34.9609 56.8438Q23.3594 67.8984 23.3594 93.7578ZM296.563 89.2266L266.953 89.2266L266.953 48.2891L296.25 48.2891Q306.563 48.2891 310.391 49.3047Q316.328 50.9453 319.961 56.0625Q323.594 61.1797 323.594 68.3672Q323.594 78.2891 317.422 83.7578Q311.25 89.2266 296.563 89.2266Z" />
    </g>
  </g>
</svg>
