<svg xmlns="http://www.w3.org/2000/svg" version="1.2" viewBox="0 0 1024 1024">
  <g>
    <path d="M0 475C0 212.665 212.665 0 475 0C737.335 0 950 212.665 950 475C950 737.335 737.335 950 475 950C212.665 950 0 737.335 0 475Z" transform="translate(44 44)" fill="none" stroke="#59ADFF" stroke-width="20" />
    <path d="M0 375C0 167.893 167.893 0 375 0C582.107 0 750 167.893 750 375C750 582.107 582.107 750 375 750C167.893 750 0 582.107 0 375Z" transform="translate(144 143)" fill="none" stroke="#007210" stroke-width="20" />
    <path d="M0 175C0 78.3502 78.3502 0 175 0C271.65 0 350 78.3502 350 175C350 271.65 271.65 350 175 350C78.3502 350 0 271.65 0 175Z" transform="translate(344 343)" fill="none" stroke="#000000" stroke-width="20" />
    <path d="M0 275C0 123.122 123.122 0 275 0C426.878 0 550 123.122 550 275C550 426.878 426.878 550 275 550C123.122 550 0 426.878 0 275Z" transform="translate(244 243)" fill="none" stroke="#721800" stroke-width="20" />
  </g>
</svg>
