<svg xmlns="http://www.w3.org/2000/svg" version="1.2" viewBox="0 0 1024 1024">
  <g stroke-width="20" >
    <g stroke="#FFA900" fill="none">
      <path  d="M75 400l270 -270"/>
      <path  d="M50 600l450 -450"/>
      <path  d="M70 760l570 -570"/>
      <path  d="M160 850l600 -600"/>
      <path  d="M300 890l600 -600"/>
      <path  d="M530 830l450 -450"/>
      <path  d="M660 880l320 -320"/>
    </g>
    <path fill="none" d="M6.69997 342.648C31.0731 114.198 209.505 -96.8927 537.869 47.1395C866.234 191.172 859.884 127.451 907.089 195.502C954.295 263.553 935.26 619.595 820.874 713.843C706.488 808.088 572.004 731.873 477.553 707.7C398.365 687.432 305.173 788.226 215.369 774.756C18.4558 745.211 -17.6732 571.099 6.69997 342.648Z" transform="translate(45.91064 124)" stroke="#000000"/>
    <path d="M255.001 0L510 440L0 439.999L255.001 0Z" transform="matrix(-1 -8.742278E-08 8.742278E-08 -1 767.7798 732.2891)" fill="none" stroke="#000000" stroke-width="20" />
    <path d="M0 31.25C0 13.9911 13.9911 0 31.25 0C48.5089 0 62.5 13.9911 62.5 31.25C62.5 48.5089 48.5089 62.5 31.25 62.5C13.9911 62.5 0 48.5089 0 31.25Z" transform="translate(402.78 409.7891)" fill="#000000" stroke="none" />
    <path d="M0 0.00223227C0 0.00223227 54.8438 -0.778794 89.375 26.8774C123.906 54.5337 138.125 110.627 138.125 110.627" transform="translate(444.655 432.2891)" fill="none" stroke="#000000"/>
    <path d="M0 31.25C0 13.9911 13.9911 0 31.25 0C48.5089 0 62.5 13.9911 62.5 31.25C62.5 48.5089 48.5089 62.5 31.25 62.5C13.9911 62.5 0 48.5089 0 31.25Z" transform="matrix(-1 0 0 1 622.78 409.7891)" fill="#000000" stroke="none" />
    <path d="M0 0.00223227C0 0.00223227 54.8438 -0.778794 89.375 26.8774C123.906 54.5337 138.125 110.627 138.125 110.627" transform="matrix(-1 0 0 1 580.905 432.2891)" fill="none" stroke="#000000"/>
    <g transform="translate(470.3398 294)">
      <path d="M9.43359 111.979L9.43359 26.0801L47.5195 26.0801Q59.0039 26.0801 64.9805 28.3945Q70.957 30.709 74.5313 36.5684Q78.1055 42.4277 78.1055 49.5176Q78.1055 58.6582 72.1875 64.9277Q66.2695 71.1973 53.9063 72.8965Q58.418 75.0645 60.7617 77.1738Q65.7422 81.7441 70.1953 88.5996L85.1367 111.979L70.8398 111.979L59.4727 94.1074Q54.4922 86.373 51.2695 82.2715Q48.0469 78.1699 45.498 76.5293Q42.9492 74.8887 40.3125 74.2441Q38.3789 73.834 33.9844 73.834L20.8008 73.834L20.8008 111.979L9.43359 111.979ZM20.8008 63.9902L45.2344 63.9902Q53.0273 63.9902 57.4219 62.3789Q61.8164 60.7676 64.1016 57.2227Q66.3867 53.6777 66.3867 49.5176Q66.3867 43.4238 61.9629 39.498Q57.5391 35.5723 47.9883 35.5723L20.8008 35.5723L20.8008 63.9902Z" />
    </g>
    <g transform="translate(477 533.999)">
      <path d="M31.1133 111.979L31.1133 36.2168L2.8125 36.2168L2.8125 26.0801L70.8984 26.0801L70.8984 36.2168L42.4805 36.2168L42.4805 111.979L31.1133 111.979Z" />
    </g>
  </g>
</svg>
