<svg viewBox="0 0 1024 1024">
  <g>
    <path d="M0 0L100 21.499L132 136.499L212 45.999L369.5 80L401 194.999L480 103.999L658.224 143.463L690 256.499L769 167.499L944.5 205.5L944.46 255.842L839.999 312.501L944.37 368.384L944.268 496.066L839.999 552L944.18 606.995L944 832L925.037 832L868.999 728.5L813.226 832L644.108 832L587.999 728.5L530.344 832L352.733 832L295.999 727.5L239.002 832L0 832L0 776.766L102.501 718.001L0 664.232L0 496.404L103.001 439.501L0 383.219L0 0Z" transform="translate(39.99805 71.99902)" fill="none" stroke="#000000" stroke-width="20" />
  </g>
</svg>
