<svg xmlns="http://www.w3.org/2000/svg" version="1.2" viewBox="0 0 1024 1024">
  <g>
    <g transform="translate(24 318.001)">
      <path d="M21.4844 111.258L7.1875 112.508Q7.5 123.992 13.4766 133.094Q19.4531 142.195 29.9609 146.727Q40.4688 151.258 56.0156 151.258Q68.2813 151.258 78.0859 146.766Q87.8906 142.273 93.125 134.188Q98.3594 126.102 98.3594 116.961Q98.3594 107.742 93.5938 100.672Q88.8281 93.6016 78.8281 88.9922Q71.9531 85.8672 53.4766 81.6875Q35 77.5078 30.625 73.5234Q26.1719 69.5391 26.1719 63.3672Q26.1719 56.2578 32.4609 51.2188Q38.75 46.1797 52.5 46.1797Q65.7031 46.1797 72.4609 51.7266Q79.2187 57.2734 80.3906 68.1328L94.9219 67.0391Q94.5313 56.9609 89.2969 48.9922Q84.0625 41.0234 74.3359 36.9219Q64.6094 32.8203 51.875 32.8203Q40.3125 32.8203 30.8594 36.7266Q21.4063 40.6328 16.4844 48.1719Q11.5625 55.7109 11.5625 64.3828Q11.5625 72.2734 15.5859 78.6406Q19.6094 85.0078 27.8125 89.3047Q34.1406 92.6641 49.9219 96.4531Q65.7031 100.242 70.3125 102.039Q77.5 104.773 80.625 108.797Q83.75 112.82 83.75 118.211Q83.75 123.523 80.5078 128.016Q77.2656 132.508 70.625 135.086Q63.9844 137.664 55.3125 137.664Q45.5469 137.664 37.7344 134.266Q29.9219 130.867 26.2109 125.359Q22.5 119.852 21.4844 111.258ZM119.375 34.7734L119.375 149.305L204.844 149.305L204.844 135.789L134.531 135.789L134.531 96.8047L197.891 96.8047L197.891 83.3672L134.531 83.3672L134.531 48.2891L202.188 48.2891L202.188 34.7734L119.375 34.7734ZM213.203 149.305L257.188 34.7734L273.516 34.7734L320.391 149.305L303.125 149.305L289.766 114.617L241.875 114.617L229.297 149.305L213.203 149.305ZM332.5 34.7734L332.5 149.305L373.828 149.305Q384.219 149.305 392.227 147.352Q400.234 145.398 405.898 141.609Q411.563 137.82 416.328 131.219Q421.094 124.617 424.141 114.539Q427.188 104.461 427.188 91.4141Q427.188 76.1016 422.695 64.1875Q418.203 52.2734 409.141 44.6172Q402.188 38.6797 392.344 36.4141Q385.313 34.7734 371.953 34.7734L332.5 34.7734ZM246.25 102.273L285.078 102.273L273.125 70.5547Q267.656 56.1016 265 46.8047Q262.813 57.8203 258.828 68.6797L246.25 102.273ZM372.109 135.789L347.656 135.789L347.656 48.2891L371.719 48.2891Q385.234 48.2891 391.328 50.6328Q399.766 53.9141 405.664 63.5625Q411.563 73.2109 411.563 91.1797Q411.563 104.148 408.555 113.25Q405.547 122.352 400.156 127.742Q396.328 131.57 389.883 133.68Q383.438 135.789 372.109 135.789Z" />
    </g>
    <path d="M0 1L976 1" transform="translate(24 511)" fill="none" stroke="#FF0000" stroke-width="20" />
  </g>
</svg>
