<svg viewBox="0 0 1024 1024">
  <g>
    <path d="M0 80C0 35.8172 35.8172 0 80 0C124.183 0 160 35.8172 160 80C160 124.183 124.183 160 80 160C35.8172 160 0 124.183 0 80Z" transform="translate(394 424)" fill="none" stroke="#000000" stroke-width="20" />
    <path d="M0 1L104 1" transform="translate(548 504)" fill="none" stroke="#000000" stroke-width="20" />
    <g transform="translate(0 401)">
      <path d="M13.8867 167.968L13.8867 39.1201L62.4902 39.1201Q75.3223 39.1201 82.0898 40.3506Q91.582 41.9326 97.998 46.3711Q104.414 50.8096 108.325 58.8076Q112.236 66.8057 112.236 76.3857Q112.236 92.8213 101.777 104.203Q91.3184 115.585 63.9844 115.585L30.9375 115.585L30.9375 167.968L13.8867 167.968ZM134.121 39.1201L235.459 39.1201L235.459 167.968L218.32 167.968L218.32 54.3252L151.172 54.3252L151.172 167.968L134.121 167.968L134.121 39.1201ZM298.652 39.1201L249.17 167.968L267.275 167.968L281.426 128.944L335.303 128.944L350.332 167.968L369.756 167.968L317.021 39.1201L298.652 39.1201ZM330.029 115.058L286.348 115.058L300.498 77.2646Q304.98 65.0479 307.441 52.6553Q310.43 63.1143 316.582 79.374L330.029 115.058ZM30.9375 100.38L64.248 100.38Q80.7715 100.38 87.7148 94.2275Q94.6582 88.0752 94.6582 76.9131Q94.6582 68.8272 90.5713 63.0703Q86.4844 57.3135 79.8047 55.4678Q75.498 54.3252 63.8965 54.3252L30.9375 54.3252L30.9375 100.38Z" />
    </g>
    <path d="M0 0L112 123.784" transform="translate(418 442)" fill="none" stroke="#000000" stroke-width="20" />
    <path d="M0 0L112 123.784" transform="matrix(-1 0 0 1 530 442)" fill="none" stroke="#000000" stroke-width="20" />
    <path d="M0 1L104 1" transform="translate(720 503)" fill="none" stroke="#000000" stroke-width="20" />
    <path d="M0 1L104 1" transform="translate(892 504)" fill="none" stroke="#000000" stroke-width="20" />
  </g>
</svg>
