<svg xmlns="http://www.w3.org/2000/svg" version="1.2" viewBox="0 0 1024 1024">
  <g>
    <path d="M0 96.8963L68.3195 0L111.227 110.049" transform="matrix(0.8910065 -0.4539905 0.4539905 0.8910065 14.93555 651.4409)" fill="none" stroke="#000000" stroke-width="20" />
    <path d="M0 183.183L116.844 0L190.227 208.049" transform="matrix(-0.4067366 0.9135455 -0.9135455 -0.4067366 355.4355 286.8403)" fill="none" stroke="#000000" stroke-width="20" />
    <path d="M0 183.183L116.844 0L190.227 208.049" transform="matrix(-0.9945219 0.1045285 -0.1045285 -0.9945219 633.3496 261.4956)" fill="none" stroke="#000000" stroke-width="20" />
    <path d="M0 183.183L116.844 0L190.227 208.049" transform="matrix(-0.6156614 -0.7880108 0.7880108 -0.6156614 788.3516 477.2407)" fill="none" stroke="#000000" stroke-width="20" />
    <path d="M0 183.183L116.844 0L190.227 208.049" transform="matrix(0.1908091 -0.9816272 0.9816272 0.1908091 715.7031 706.7314)" fill="none" stroke="#000000" stroke-width="20" />
    <path d="M0 183.183L116.844 0L190.227 208.049" transform="matrix(0.8910065 -0.4539905 0.4539905 0.8910065 503.4463 786.7773)" fill="none" stroke="#000000" stroke-width="20" />
    <path d="M0 183.183L116.844 0L190.227 208.049" transform="matrix(0.8829476 0.4694716 -0.4694716 0.8829476 283.2793 660.9395)" fill="none" stroke="#000000" stroke-width="20" />
    <path d="M0 330.759C0 330.759 99.0091 -0.0240271 435.001 0.000105174C770.993 0.0242374 883.205 279.778 883.002 447.674C882.8 615.57 771.333 895.921 435.001 895.348C98.6694 894.775 0.500001 562.591 0.500001 562.591" transform="translate(76.82227 64.453)" fill="none" stroke="#000000" stroke-width="20" />
  </g>
</svg>
