<svg xmlns="http://www.w3.org/2000/svg" version="1.2" viewBox="0 0 1024 1024">
  <g>
    <g transform="translate(415.3262 118.0815)">
      <path d="M11.875 149.305L11.875 34.7734L34.6875 34.7734L61.7969 115.867Q65.5469 127.195 67.2656 132.82Q69.2187 126.57 73.3594 114.461L100.781 34.7734L121.172 34.7734L121.172 149.305L106.563 149.305L106.563 53.4453L73.2813 149.305L59.6094 149.305L26.4844 51.8047L26.4844 149.305L11.875 149.305Z" />
    </g>
    <g transform="translate(408 688)">
      <path d="M11.875 149.305L11.875 34.7734L34.6875 34.7734L61.7969 115.867Q65.5469 127.195 67.2656 132.82Q69.2187 126.57 73.3594 114.461L100.781 34.7734L121.172 34.7734L121.172 149.305L106.563 149.305L106.563 53.4453L73.2813 149.305L59.6094 149.305L26.4844 51.8047L26.4844 149.305L11.875 149.305Z" />
    </g>
    <path d="M342 576.546C342 576.546 255.322 618.184 206.63 614.548C157.939 610.911 56.2979 590.421 19.6927 477.562C-16.9126 364.702 -7.93448 183.043 93.3628 89.0464C194.66 -4.94975 337.856 0.0461242 337.856 0.0461242" transform="translate(25.61621 214.4541)" fill="none" stroke="#000000" stroke-width="20" />
    <path d="M400.232 579.501C400.232 579.501 347.109 602.146 244.233 594.509C141.357 586.872 5.98212 474.364 0.231503 370.503C-5.51911 266.642 97.2323 133.998 156.232 85.0002C215.233 36.0029 302.231 1.62438 400.731 0" transform="matrix(-1 0 0 1 988.7314 217)" fill="none" stroke="#000000" stroke-width="20" />
    <path d="M0 85C0 38.0558 38.0558 0 85 0C131.944 0 170 38.0558 170 85C170 131.944 131.944 170 85 170C38.0558 170 0 131.944 0 85Z" transform="translate(124.0002 442.9995)" fill="#000000" stroke="none" />
    <path d="M0 85C0 38.0558 38.0558 0 85 0C131.944 0 170 38.0558 170 85C170 131.944 131.944 170 85 170C38.0558 170 0 131.944 0 85Z" transform="translate(412.0005 442.9995)" fill="#000000" stroke="none" />
    <path d="M0 85C0 38.0558 38.0558 0 85 0C131.944 0 170 38.0558 170 85C170 131.944 131.944 170 85 170C38.0558 170 0 131.944 0 85Z" transform="translate(699.9995 442.9995)" fill="#000000" stroke="none" />
  </g>
</svg>
