<svg xmlns="http://www.w3.org/2000/svg" version="1.2" viewBox="0 0 1024 1024">
  <g>
    <path d="M6.69996 278.313C31.0731 92.7564 209.504 -78.7002 537.869 38.2886C866.233 155.277 939.478 283.763 957.869 341.789C976.26 399.815 935.259 503.261 820.873 579.812C706.487 656.362 572.003 594.458 477.553 574.823C398.365 558.361 305.172 640.229 215.369 629.289C18.4558 605.291 -17.6732 463.87 6.69996 278.313Z" transform="translate(30.13062 197.7114)" fill="none" stroke="#000000" stroke-width="20" />
    <g transform="translate(78.93164 409)">
      <path d="M143.174 127.362L126.914 131.581Q137.9 170.165 174.463 170.165Q195.732 170.165 208.608 158.959Q221.484 147.753 221.484 131.142Q221.484 119.452 214.849 111.059Q208.213 102.665 198.369 99.9404Q215.42 90.0088 215.42 71.9912Q215.42 57.9287 204.346 47.4258Q193.271 36.9229 174.375 36.9229Q135.088 36.9229 129.023 77.9678L145.371 81.6592Q145.371 77.7041 148.008 69.6621Q150.645 61.6201 157.544 56.7422Q164.443 51.8643 174.199 51.8643Q185.361 51.8643 191.909 58.1045Q198.457 64.3447 198.457 72.7822Q198.457 79.9014 193.667 85.4824Q188.877 91.0635 182.637 92.4258Q176.396 93.7881 164.619 93.7881L164.619 108.642L172.793 108.642Q187.031 108.642 195.293 114.926Q203.555 121.21 203.555 131.845Q203.555 141.688 195.732 148.632Q187.91 155.575 174.375 155.575Q161.104 155.575 153.062 146.171Q145.02 136.767 143.174 127.362ZM440.508 39.1201L457.559 39.1201L457.559 95.5459Q469.248 95.5459 473.994 91.0195Q478.74 86.4932 486.123 69.2666Q491.484 56.6104 494.956 51.3809Q498.428 46.1514 504.844 42.5918Q511.26 39.0322 518.994 39.0322Q528.838 39.0322 529.365 39.208L529.365 53.9736Q528.486 53.9736 525.938 53.8857Q523.125 53.7979 522.51 53.7979Q514.336 53.7979 510.381 57.7529Q506.338 61.708 501.152 74.6279Q494.648 90.9756 490.166 95.2383Q485.684 99.501 479.443 102.05Q491.924 105.478 504.053 125.077L530.596 167.968L509.414 167.968L487.881 132.987Q479.004 118.485 473.027 113.08Q467.051 107.675 457.559 107.675L457.559 167.968L440.508 167.968L440.508 39.1201ZM13.8867 39.1201L13.8867 167.968L30.9375 167.968L30.9375 115.585L63.9844 115.585Q91.3184 115.585 101.777 104.203Q112.236 92.8213 112.236 76.3857Q112.236 66.8057 108.325 58.8076Q104.414 50.8096 97.998 46.3711Q91.582 41.9326 82.0898 40.3506Q75.3223 39.1201 62.4902 39.1201L13.8867 39.1201ZM64.248 100.38L30.9375 100.38L30.9375 54.3252L63.8965 54.3252Q75.498 54.3252 79.8047 55.4678Q86.4844 57.3135 90.5713 63.0703Q94.6582 68.8272 94.6582 76.9131Q94.6582 88.0752 87.7148 94.2275Q80.7715 100.38 64.248 100.38ZM301.553 156.454Q292.764 163.925 284.634 167.001Q276.504 170.077 267.188 170.077Q251.807 170.077 243.545 162.563Q235.283 155.048 235.283 143.358Q235.283 136.503 238.403 130.834Q241.523 125.165 246.577 121.737Q251.631 118.31 257.959 116.552Q262.617 115.321 272.021 114.179Q291.182 111.894 300.234 108.729Q300.322 105.478 300.322 104.599Q300.322 94.9307 295.84 90.9756Q289.775 85.6143 277.822 85.6143Q266.66 85.6143 261.343 89.5254Q256.025 93.4365 253.477 103.368L238.008 101.259Q240.117 91.3271 244.951 85.2188Q249.785 79.1104 258.926 75.8145Q268.066 72.5186 280.107 72.5186Q292.061 72.5186 299.531 75.3311Q307.002 78.1436 310.518 82.4063Q314.033 86.669 315.439 93.1729Q316.23 97.2158 316.23 107.763L316.23 128.856Q316.23 150.917 317.241 156.762Q318.252 162.606 321.24 167.968L304.717 167.968Q302.256 163.046 301.553 156.454ZM551.602 82.8896Q537.188 95.3701 537.188 121.298Q537.188 144.94 549.272 157.509Q561.357 170.077 580.957 170.077Q593.174 170.077 603.501 164.364Q613.828 158.651 619.233 148.324Q624.639 137.997 624.639 119.979Q624.639 97.7432 612.422 85.1309Q600.205 72.5186 580.957 72.5186Q563.643 72.5186 551.602 82.8896ZM704.092 133.778L719.648 135.8Q717.1 151.884 706.597 160.98Q696.094 170.077 680.801 170.077Q661.641 170.077 649.995 157.553Q638.35 145.028 638.35 121.649Q638.35 106.532 643.359 95.1943Q648.369 83.8565 658.608 78.1875Q668.848 72.5186 680.889 72.5186Q696.094 72.5186 705.762 80.209Q715.43 87.8994 718.154 102.05L702.773 104.423Q700.576 95.0186 694.995 90.2725Q689.414 85.5264 681.504 85.5264Q669.551 85.5264 662.08 94.0957Q654.609 102.665 654.609 121.21Q654.609 140.019 661.816 148.544Q669.023 157.069 680.625 157.069Q689.941 157.069 696.182 151.356Q702.422 145.644 704.092 133.778ZM414.492 74.6279L340.84 74.6279L340.84 167.968L356.66 167.968L356.66 87.7236L398.672 87.7236L398.672 167.968L414.492 167.968L414.492 74.6279ZM758.232 74.6279L733.623 74.6279L733.623 167.968L749.092 167.968L749.092 89.2178L775.195 167.968L789.346 167.968L816.943 92.8213L816.943 167.968L832.764 167.968L832.764 74.6279L810 74.6279L782.754 149.335L758.232 74.6279ZM561.27 148.148Q553.447 139.228 553.447 121.298Q553.447 103.368 561.27 94.4912Q569.092 85.6143 580.957 85.6143Q592.646 85.6143 600.513 94.5352Q608.379 103.456 608.379 120.771Q608.379 139.14 600.557 148.104Q592.734 157.069 580.957 157.069Q569.092 157.069 561.27 148.148ZM300.234 121.122Q291.621 124.638 274.395 127.099Q264.639 128.505 260.596 130.263Q256.553 132.021 254.355 135.404Q252.158 138.788 252.158 142.919Q252.158 149.247 256.948 153.466Q261.738 157.685 270.967 157.685Q280.107 157.685 287.227 153.686Q294.346 149.687 297.686 142.743Q300.234 137.382 300.234 126.923L300.234 121.122Z" />
    </g>
  </g>
</svg>
