<svg viewBox="0 0 1024 1024">
  <g>
    <g transform="translate(775.9998 182.9995)">
      <path d="M45.5469 149.305L59.6094 149.305L59.6094 34.3047L50.5469 34.3047Q46.875 41.7266 38.0469 49.6172Q29.2188 57.5078 17.4219 63.0547L17.4219 76.6484Q23.9844 74.2266 32.2266 69.3828Q40.4687 64.5391 45.5469 59.6953L45.5469 149.305ZM134.531 149.305L148.594 149.305L148.594 34.3047L139.531 34.3047Q135.859 41.7266 127.031 49.6172Q118.203 57.5078 106.406 63.0547L106.406 76.6484Q112.969 74.2266 121.211 69.3828Q129.453 64.5391 134.531 59.6953L134.531 149.305Z" />
    </g>
    <g transform="translate(538.0313 182.9995)">
      <path d="M45.5469 149.305L59.6094 149.305L59.6094 34.3047L50.5469 34.3047Q46.875 41.7266 38.0469 49.6172Q29.2188 57.5078 17.4219 63.0547L17.4219 76.6484Q23.9844 74.2266 32.2266 69.3828Q40.4687 64.5391 45.5469 59.6953L45.5469 149.305ZM169.531 149.305L169.531 135.789L113.359 135.789Q115.703 131.961 119.297 128.172Q122.891 124.383 135.547 113.758Q150.703 100.945 157.227 93.6016Q163.75 86.2578 166.563 79.6172Q169.375 72.9766 169.375 66.1016Q169.375 52.5859 159.766 43.4453Q150.156 34.3047 133.672 34.3047Q117.344 34.3047 107.656 42.7813Q97.9688 51.2578 96.4844 67.4297L110.938 68.9141Q111.016 58.1328 117.109 52.0391Q123.203 45.9453 133.359 45.9453Q142.969 45.9453 148.945 51.6875Q154.922 57.4297 154.922 65.7891Q154.922 73.7578 148.359 82.7031Q141.797 91.6484 123.125 106.961Q111.094 116.805 104.727 124.305Q98.3594 131.805 95.4688 139.539Q93.6719 144.227 93.8281 149.305L169.531 149.305Z" />
    </g>
    <g transform="translate(304.9998 183)">
      <path d="M45.5469 149.305L59.6094 149.305L59.6094 34.3047L50.5469 34.3047Q46.875 41.7266 38.0469 49.6172Q29.2188 57.5078 17.4219 63.0547L17.4219 76.6484Q23.9844 74.2266 32.2266 69.3828Q40.4687 64.5391 45.5469 59.6953L45.5469 149.305ZM109.766 117.195L95.7031 119.07Q97.1094 133.367 107.07 142.352Q117.031 151.336 132.109 151.336Q148.828 151.336 159.766 140.906Q170.703 130.477 170.703 115.477Q170.703 104.383 165.078 97Q159.453 89.6172 149.297 87.2734Q157.109 83.6797 161.094 77.5859Q165.078 71.4922 165.078 64.0703Q165.078 56.2578 160.898 49.3047Q156.719 42.3516 148.828 38.3281Q140.938 34.3047 131.563 34.3047Q117.969 34.3047 108.828 42.0781Q99.6875 49.8516 97.1094 63.9922L111.172 66.4922Q112.734 56.1797 118.203 51.0234Q123.672 45.8672 131.875 45.8672Q140.156 45.8672 145.391 50.9453Q150.625 56.0234 150.625 63.7578Q150.625 73.5234 143.438 78.2109Q136.25 82.8984 127.266 82.8984Q126.406 82.8984 125 82.7422L123.438 95.0859Q129.375 93.5234 133.359 93.5234Q143.125 93.5234 149.453 99.8125Q155.781 106.102 155.781 115.789Q155.781 125.945 148.945 132.82Q142.109 139.695 132.188 139.695Q123.828 139.695 118.008 134.422Q112.188 129.148 109.766 117.195Z" />
    </g>
    <g transform="translate(69.03174 182.9995)">
      <path d="M45.5469 149.305L59.6094 149.305L59.6094 34.3047L50.5469 34.3047Q46.875 41.7266 38.0469 49.6172Q29.2188 57.5078 17.4219 63.0547L17.4219 76.6484Q23.9844 74.2266 32.2266 69.3828Q40.4687 64.5391 45.5469 59.6953L45.5469 149.305ZM140.703 121.883L140.703 149.305L154.766 149.305L154.766 121.883L170.234 121.883L170.234 108.992L154.766 108.992L154.766 34.7734L143.281 34.7734L91.0156 108.992L91.0156 121.883L140.703 121.883ZM140.703 57.3516L140.703 108.992L104.844 108.992L140.703 57.3516Z" />
    </g>
    <g transform="translate(775.9998 416.9995)">
      <path d="M80.5469 149.305L80.5469 135.789L24.375 135.789Q26.7187 131.961 30.3125 128.172Q33.9063 124.383 46.5625 113.758Q61.7188 100.945 68.2422 93.6016Q74.7656 86.2578 77.5781 79.6172Q80.3906 72.9766 80.3906 66.1016Q80.3906 52.5859 70.7813 43.4453Q61.1719 34.3047 44.6875 34.3047Q28.3594 34.3047 18.6719 42.7813Q8.98438 51.2578 7.5 67.4297L21.9531 68.9141Q22.0313 58.1328 28.125 52.0391Q34.2187 45.9453 44.375 45.9453Q53.9844 45.9453 59.9609 51.6875Q65.9375 57.4297 65.9375 65.7891Q65.9375 73.7578 59.375 82.7031Q52.8125 91.6484 34.1406 106.961Q22.1094 116.805 15.7422 124.305Q9.375 131.805 6.48438 139.539Q4.6875 144.227 4.84375 149.305L80.5469 149.305ZM134.531 149.305L148.594 149.305L148.594 34.3047L139.531 34.3047Q135.859 41.7266 127.031 49.6172Q118.203 57.5078 106.406 63.0547L106.406 76.6484Q112.969 74.2266 121.211 69.3828Q129.453 64.5391 134.531 59.6953L134.531 149.305Z" />
    </g>
    <g transform="translate(538.0313 416.9995)">
      <path d="M80.5469 149.305L80.5469 135.789L24.375 135.789Q26.7187 131.961 30.3125 128.172Q33.9063 124.383 46.5625 113.758Q61.7188 100.945 68.2422 93.6016Q74.7656 86.2578 77.5781 79.6172Q80.3906 72.9766 80.3906 66.1016Q80.3906 52.5859 70.7813 43.4453Q61.1719 34.3047 44.6875 34.3047Q28.3594 34.3047 18.6719 42.7813Q8.98438 51.2578 7.5 67.4297L21.9531 68.9141Q22.0313 58.1328 28.125 52.0391Q34.2187 45.9453 44.375 45.9453Q53.9844 45.9453 59.9609 51.6875Q65.9375 57.4297 65.9375 65.7891Q65.9375 73.7578 59.375 82.7031Q52.8125 91.6484 34.1406 106.961Q22.1094 116.805 15.7422 124.305Q9.375 131.805 6.48438 139.539Q4.6875 144.227 4.84375 149.305L80.5469 149.305ZM169.531 149.305L169.531 135.789L113.359 135.789Q115.703 131.961 119.297 128.172Q122.891 124.383 135.547 113.758Q150.703 100.945 157.227 93.6016Q163.75 86.2578 166.563 79.6172Q169.375 72.9766 169.375 66.1016Q169.375 52.5859 159.766 43.4453Q150.156 34.3047 133.672 34.3047Q117.344 34.3047 107.656 42.7813Q97.9688 51.2578 96.4844 67.4297L110.938 68.9141Q111.016 58.1328 117.109 52.0391Q123.203 45.9453 133.359 45.9453Q142.969 45.9453 148.945 51.6875Q154.922 57.4297 154.922 65.7891Q154.922 73.7578 148.359 82.7031Q141.797 91.6484 123.125 106.961Q111.094 116.805 104.727 124.305Q98.3594 131.805 95.4688 139.539Q93.6719 144.227 93.8281 149.305L169.531 149.305Z" />
    </g>
    <g transform="translate(304.9998 417)">
      <path d="M80.5469 149.305L80.5469 135.789L24.375 135.789Q26.7187 131.961 30.3125 128.172Q33.9063 124.383 46.5625 113.758Q61.7188 100.945 68.2422 93.6016Q74.7656 86.2578 77.5781 79.6172Q80.3906 72.9766 80.3906 66.1016Q80.3906 52.5859 70.7813 43.4453Q61.1719 34.3047 44.6875 34.3047Q28.3594 34.3047 18.6719 42.7813Q8.98438 51.2578 7.5 67.4297L21.9531 68.9141Q22.0313 58.1328 28.125 52.0391Q34.2187 45.9453 44.375 45.9453Q53.9844 45.9453 59.9609 51.6875Q65.9375 57.4297 65.9375 65.7891Q65.9375 73.7578 59.375 82.7031Q52.8125 91.6484 34.1406 106.961Q22.1094 116.805 15.7422 124.305Q9.375 131.805 6.48438 139.539Q4.6875 144.227 4.84375 149.305L80.5469 149.305ZM109.766 117.195L95.7031 119.07Q97.1094 133.367 107.07 142.352Q117.031 151.336 132.109 151.336Q148.828 151.336 159.766 140.906Q170.703 130.477 170.703 115.477Q170.703 104.383 165.078 97Q159.453 89.6172 149.297 87.2734Q157.109 83.6797 161.094 77.5859Q165.078 71.4922 165.078 64.0703Q165.078 56.2578 160.898 49.3047Q156.719 42.3516 148.828 38.3281Q140.938 34.3047 131.563 34.3047Q117.969 34.3047 108.828 42.0781Q99.6875 49.8516 97.1094 63.9922L111.172 66.4922Q112.734 56.1797 118.203 51.0234Q123.672 45.8672 131.875 45.8672Q140.156 45.8672 145.391 50.9453Q150.625 56.0234 150.625 63.7578Q150.625 73.5234 143.438 78.2109Q136.25 82.8984 127.266 82.8984Q126.406 82.8984 125 82.7422L123.438 95.0859Q129.375 93.5234 133.359 93.5234Q143.125 93.5234 149.453 99.8125Q155.781 106.102 155.781 115.789Q155.781 125.945 148.945 132.82Q142.109 139.695 132.188 139.695Q123.828 139.695 118.008 134.422Q112.188 129.148 109.766 117.195Z" />
    </g>
    <g transform="translate(69.03174 416.9995)">
      <path d="M80.5469 149.305L80.5469 135.789L24.375 135.789Q26.7187 131.961 30.3125 128.172Q33.9063 124.383 46.5625 113.758Q61.7188 100.945 68.2422 93.6016Q74.7656 86.2578 77.5781 79.6172Q80.3906 72.9766 80.3906 66.1016Q80.3906 52.5859 70.7813 43.4453Q61.1719 34.3047 44.6875 34.3047Q28.3594 34.3047 18.6719 42.7813Q8.98438 51.2578 7.5 67.4297L21.9531 68.9141Q22.0313 58.1328 28.125 52.0391Q34.2187 45.9453 44.375 45.9453Q53.9844 45.9453 59.9609 51.6875Q65.9375 57.4297 65.9375 65.7891Q65.9375 73.7578 59.375 82.7031Q52.8125 91.6484 34.1406 106.961Q22.1094 116.805 15.7422 124.305Q9.375 131.805 6.48438 139.539Q4.6875 144.227 4.84375 149.305L80.5469 149.305ZM140.703 121.883L140.703 149.305L154.766 149.305L154.766 121.883L170.234 121.883L170.234 108.992L154.766 108.992L154.766 34.7734L143.281 34.7734L91.0156 108.992L91.0156 121.883L140.703 121.883ZM140.703 57.3516L140.703 108.992L104.844 108.992L140.703 57.3516Z" />
    </g>
    <g transform="translate(774.0315 656)">
      <path d="M20.7813 117.195L6.71875 119.07Q8.125 133.367 18.0859 142.352Q28.0469 151.336 43.125 151.336Q59.8437 151.336 70.7813 140.906Q81.7188 130.477 81.7188 115.477Q81.7188 104.383 76.0938 97Q70.4687 89.6172 60.3125 87.2734Q68.125 83.6797 72.1094 77.5859Q76.0938 71.4922 76.0938 64.0703Q76.0937 56.2578 71.9141 49.3047Q67.7344 42.3516 59.8438 38.3281Q51.9531 34.3047 42.5781 34.3047Q28.9844 34.3047 19.8438 42.0781Q10.7031 49.8516 8.125 63.9922L22.1875 66.4922Q23.75 56.1797 29.2188 51.0234Q34.6875 45.8672 42.8906 45.8672Q51.1719 45.8672 56.4063 50.9453Q61.6406 56.0234 61.6406 63.7578Q61.6406 73.5234 54.4531 78.2109Q47.2656 82.8984 38.2813 82.8984Q37.4219 82.8984 36.0156 82.7422L34.4531 95.0859Q40.3906 93.5234 44.375 93.5234Q54.1406 93.5234 60.4688 99.8125Q66.7969 106.102 66.7969 115.789Q66.7969 125.945 59.9609 132.82Q53.125 139.695 43.2031 139.695Q34.8438 139.695 29.0234 134.422Q23.2031 129.148 20.7813 117.195ZM134.531 149.305L148.594 149.305L148.594 34.3047L139.531 34.3047Q135.859 41.7266 127.031 49.6172Q118.203 57.5078 106.406 63.0547L106.406 76.6484Q112.969 74.2266 121.211 69.3828Q129.453 64.5391 134.531 59.6953L134.531 149.305Z" />
    </g>
    <g transform="translate(536.063 656)">
      <path d="M20.7813 117.195L6.71875 119.07Q8.125 133.367 18.0859 142.352Q28.0469 151.336 43.125 151.336Q59.8437 151.336 70.7813 140.906Q81.7188 130.477 81.7188 115.477Q81.7188 104.383 76.0938 97Q70.4687 89.6172 60.3125 87.2734Q68.125 83.6797 72.1094 77.5859Q76.0938 71.4922 76.0938 64.0703Q76.0937 56.2578 71.9141 49.3047Q67.7344 42.3516 59.8438 38.3281Q51.9531 34.3047 42.5781 34.3047Q28.9844 34.3047 19.8438 42.0781Q10.7031 49.8516 8.125 63.9922L22.1875 66.4922Q23.75 56.1797 29.2188 51.0234Q34.6875 45.8672 42.8906 45.8672Q51.1719 45.8672 56.4063 50.9453Q61.6406 56.0234 61.6406 63.7578Q61.6406 73.5234 54.4531 78.2109Q47.2656 82.8984 38.2813 82.8984Q37.4219 82.8984 36.0156 82.7422L34.4531 95.0859Q40.3906 93.5234 44.375 93.5234Q54.1406 93.5234 60.4688 99.8125Q66.7969 106.102 66.7969 115.789Q66.7969 125.945 59.9609 132.82Q53.125 139.695 43.2031 139.695Q34.8438 139.695 29.0234 134.422Q23.2031 129.148 20.7813 117.195ZM169.531 149.305L169.531 135.789L113.359 135.789Q115.703 131.961 119.297 128.172Q122.891 124.383 135.547 113.758Q150.703 100.945 157.227 93.6016Q163.75 86.2578 166.563 79.6172Q169.375 72.9766 169.375 66.1016Q169.375 52.5859 159.766 43.4453Q150.156 34.3047 133.672 34.3047Q117.344 34.3047 107.656 42.7813Q97.9688 51.2578 96.4844 67.4297L110.938 68.9141Q111.016 58.1328 117.109 52.0391Q123.203 45.9453 133.359 45.9453Q142.969 45.9453 148.945 51.6875Q154.922 57.4297 154.922 65.7891Q154.922 73.7578 148.359 82.7031Q141.797 91.6484 123.125 106.961Q111.094 116.805 104.727 124.305Q98.3594 131.805 95.4688 139.539Q93.6719 144.227 93.8281 149.305L169.531 149.305Z" />
    </g>
    <g transform="translate(303.0315 656.0005)">
      <path d="M20.7813 117.195L6.71875 119.07Q8.125 133.367 18.0859 142.352Q28.0469 151.336 43.125 151.336Q59.8437 151.336 70.7813 140.906Q81.7188 130.477 81.7188 115.477Q81.7188 104.383 76.0938 97Q70.4687 89.6172 60.3125 87.2734Q68.125 83.6797 72.1094 77.5859Q76.0938 71.4922 76.0938 64.0703Q76.0937 56.2578 71.9141 49.3047Q67.7344 42.3516 59.8438 38.3281Q51.9531 34.3047 42.5781 34.3047Q28.9844 34.3047 19.8438 42.0781Q10.7031 49.8516 8.125 63.9922L22.1875 66.4922Q23.75 56.1797 29.2188 51.0234Q34.6875 45.8672 42.8906 45.8672Q51.1719 45.8672 56.4063 50.9453Q61.6406 56.0234 61.6406 63.7578Q61.6406 73.5234 54.4531 78.2109Q47.2656 82.8984 38.2813 82.8984Q37.4219 82.8984 36.0156 82.7422L34.4531 95.0859Q40.3906 93.5234 44.375 93.5234Q54.1406 93.5234 60.4688 99.8125Q66.7969 106.102 66.7969 115.789Q66.7969 125.945 59.9609 132.82Q53.125 139.695 43.2031 139.695Q34.8438 139.695 29.0234 134.422Q23.2031 129.148 20.7813 117.195ZM109.766 117.195L95.7031 119.07Q97.1094 133.367 107.07 142.352Q117.031 151.336 132.109 151.336Q148.828 151.336 159.766 140.906Q170.703 130.477 170.703 115.477Q170.703 104.383 165.078 97Q159.453 89.6172 149.297 87.2734Q157.109 83.6797 161.094 77.5859Q165.078 71.4922 165.078 64.0703Q165.078 56.2578 160.898 49.3047Q156.719 42.3516 148.828 38.3281Q140.938 34.3047 131.563 34.3047Q117.969 34.3047 108.828 42.0781Q99.6875 49.8516 97.1094 63.9922L111.172 66.4922Q112.734 56.1797 118.203 51.0234Q123.672 45.8672 131.875 45.8672Q140.156 45.8672 145.391 50.9453Q150.625 56.0234 150.625 63.7578Q150.625 73.5234 143.438 78.2109Q136.25 82.8984 127.266 82.8984Q126.406 82.8984 125 82.7422L123.438 95.0859Q129.375 93.5234 133.359 93.5234Q143.125 93.5234 149.453 99.8125Q155.781 106.102 155.781 115.789Q155.781 125.945 148.945 132.82Q142.109 139.695 132.188 139.695Q123.828 139.695 118.008 134.422Q112.188 129.148 109.766 117.195Z" />
    </g>
    <g transform="translate(67.06348 656)">
      <path d="M20.7813 117.195L6.71875 119.07Q8.125 133.367 18.0859 142.352Q28.0469 151.336 43.125 151.336Q59.8437 151.336 70.7813 140.906Q81.7188 130.477 81.7188 115.477Q81.7188 104.383 76.0938 97Q70.4687 89.6172 60.3125 87.2734Q68.125 83.6797 72.1094 77.5859Q76.0938 71.4922 76.0938 64.0703Q76.0937 56.2578 71.9141 49.3047Q67.7344 42.3516 59.8438 38.3281Q51.9531 34.3047 42.5781 34.3047Q28.9844 34.3047 19.8438 42.0781Q10.7031 49.8516 8.125 63.9922L22.1875 66.4922Q23.75 56.1797 29.2188 51.0234Q34.6875 45.8672 42.8906 45.8672Q51.1719 45.8672 56.4063 50.9453Q61.6406 56.0234 61.6406 63.7578Q61.6406 73.5234 54.4531 78.2109Q47.2656 82.8984 38.2813 82.8984Q37.4219 82.8984 36.0156 82.7422L34.4531 95.0859Q40.3906 93.5234 44.375 93.5234Q54.1406 93.5234 60.4688 99.8125Q66.7969 106.102 66.7969 115.789Q66.7969 125.945 59.9609 132.82Q53.125 139.695 43.2031 139.695Q34.8438 139.695 29.0234 134.422Q23.2031 129.148 20.7813 117.195ZM140.703 121.883L140.703 149.305L154.766 149.305L154.766 121.883L170.234 121.883L170.234 108.992L154.766 108.992L154.766 34.7734L143.281 34.7734L91.0156 108.992L91.0156 121.883L140.703 121.883ZM140.703 57.3516L140.703 108.992L104.844 108.992L140.703 57.3516Z" />
    </g>
    <path d="M0 1L960 1" transform="translate(32 154)" fill="none" stroke="#000000" stroke-width="20" />
    <path d="M0 1L960 1" transform="translate(32 390)" fill="none" stroke="#000000" stroke-width="20" />
    <path d="M0 1L960 1" transform="translate(32 626)" fill="none" stroke="#000000" stroke-width="20" />
    <path d="M0 1L960 1" transform="translate(32 862)" fill="none" stroke="#000000" stroke-width="20" />
    <path d="M1 0L1 715" transform="translate(41 155)" fill="none" stroke="#000000" stroke-width="20" />
    <path d="M1 0L1 715" transform="translate(746 155)" fill="none" stroke="#000000" stroke-width="20" />
    <path d="M1 0L1 715" transform="translate(511 155)" fill="none" stroke="#000000" stroke-width="20" />
    <path d="M1 0L1 715" transform="translate(276 155)" fill="none" stroke="#000000" stroke-width="20" />
    <path d="M1 0L1 715" transform="translate(981 155)" fill="none" stroke="#000000" stroke-width="20" />
  </g>
</svg>
