<svg xmlns="http://www.w3.org/2000/svg" version="1.2" viewBox="0 0 1024 1024">
  <g>
    <path d="M6.69996 278.313C31.0731 92.7564 209.504 -78.7002 537.869 38.2886C866.233 155.277 939.478 283.763 957.869 341.789C976.26 399.815 935.259 503.261 820.873 579.812C706.487 656.362 572.003 594.458 477.553 574.823C398.365 558.361 305.172 640.229 215.369 629.289C18.4558 605.291 -17.6732 463.87 6.69996 278.313Z" transform="translate(30.13062 197.7114)" fill="none" stroke="#000000" stroke-width="20" />
    <g transform="translate(377 409)">
      <path d="M49.2188 39.1201L-0.263672 167.968L17.8418 167.968L31.9922 128.944L85.8691 128.944L100.898 167.968L120.322 167.968L67.5879 39.1201L49.2188 39.1201ZM133.418 39.1201L133.418 167.968L149.854 167.968L149.854 58.2803L187.119 167.968L202.5 167.968L239.941 60.126L239.941 167.968L256.377 167.968L256.377 39.1201L233.438 39.1201L202.588 128.769Q197.93 142.392 195.732 149.423Q193.799 143.095 189.58 130.351L159.082 39.1201L133.418 39.1201ZM80.5957 115.058L36.9141 115.058L51.0645 77.2646Q55.5469 65.0479 58.0078 52.6553Q60.9961 63.1143 67.1484 79.374L80.5957 115.058Z" />
    </g>
  </g>
</svg>
