<svg xmlns="http://www.w3.org/2000/svg" version="1.2" viewBox="0 0 1024 1024">
  <g>
    <path d="M0 1L536 1" transform="translate(464 503)" fill="none" stroke="#000000" stroke-width="20" />
    <g transform="translate(0 400)">
      <path d="M13.8867 39.1201L13.8867 167.968L30.9375 167.968L30.9375 115.585L63.9844 115.585Q91.3184 115.585 101.777 104.203Q112.236 92.8213 112.236 76.3857Q112.236 66.8057 108.325 58.8076Q104.414 50.8096 97.998 46.3711Q91.582 41.9326 82.0898 40.3506Q75.3223 39.1201 62.4902 39.1201L13.8867 39.1201ZM133.242 39.1201L133.242 167.968L213.75 167.968L213.75 152.763L150.293 152.763L150.293 39.1201L133.242 39.1201ZM284.854 39.1201L368.438 39.1201L368.438 54.3252L301.904 54.3252L301.904 94.0518L332.666 94.0518Q349.717 94.0518 359.78 97.3037Q369.844 100.556 375.908 109.564Q381.973 118.573 381.973 130.526Q381.973 140.282 377.622 148.764Q373.271 157.245 364.658 162.606Q356.045 167.968 335.303 167.968L284.854 167.968L284.854 39.1201ZM405.088 39.1201L405.088 167.968L422.139 167.968L422.139 39.1201L405.088 39.1201ZM64.248 100.38L30.9375 100.38L30.9375 54.3252L63.8965 54.3252Q75.498 54.3252 79.8047 55.4678Q86.4844 57.3135 90.5713 63.0703Q94.6582 68.8272 94.6582 76.9131Q94.6582 88.0752 87.7148 94.2275Q80.7715 100.38 64.248 100.38ZM301.904 153.466L336.006 153.466Q349.805 153.466 356.704 147.841Q363.604 142.216 363.604 130.966Q363.604 122.968 359.648 117.606Q355.693 112.245 348.662 110.487Q341.631 108.729 324.668 108.729L301.904 108.729L301.904 153.466Z" />
    </g>
  </g>
</svg>
