<svg xmlns="http://www.w3.org/2000/svg" version="1.2" viewBox="0 0 1024 1024">
  <g>
    <path d="M0 96.2398L91.411 0L158.311 115.678" transform="matrix(0.1218693 0.9925461 -0.9925461 0.1218693 976.0225 421.2712)" fill="none" stroke="#000000" stroke-width="20" />
    <g transform="translate(556 443)">
      <path d="M5.39063 84.3809L16.1133 83.4434Q16.875 89.8887 19.6582 94.0195Q22.4414 98.1504 28.3008 100.699Q34.1602 103.248 41.4844 103.248Q47.9883 103.248 52.9688 101.314Q57.9492 99.3809 60.3809 96.0117Q62.8125 92.6426 62.8125 88.6582Q62.8125 84.6152 60.4688 81.5977Q58.125 78.5801 52.7344 76.5293Q49.2773 75.1816 37.4414 72.3398Q25.6055 69.498 20.8594 66.9785Q14.707 63.7559 11.6895 58.9805Q8.67187 54.2051 8.67188 48.2871Q8.67188 41.7832 12.3633 36.1289Q16.0547 30.4746 23.1445 27.5449Q30.2344 24.6152 38.9063 24.6152Q48.457 24.6152 55.752 27.6914Q63.0469 30.7676 66.9727 36.7441Q70.8984 42.7207 71.1914 50.2793L60.293 51.0996Q59.4141 42.9551 54.3457 38.7949Q49.2773 34.6348 39.375 34.6348Q29.0625 34.6348 24.3457 38.4141Q19.6289 42.1934 19.6289 47.5254Q19.6289 52.1543 22.9688 55.1426Q26.25 58.1309 40.1074 61.2656Q53.9648 64.4004 59.1211 66.7441Q66.6211 70.2012 70.1953 75.5039Q73.7695 80.8066 73.7695 87.7207Q73.7695 94.5762 69.8438 100.641Q65.918 106.705 58.5645 110.074Q51.2109 113.443 42.0117 113.443Q30.3516 113.443 22.4707 110.045Q14.5898 106.646 10.1074 99.8203Q5.625 92.9941 5.39063 84.3809ZM145.664 26.0801L157.031 26.0801L157.031 75.709Q157.031 88.6582 154.102 96.2754Q151.172 103.893 143.525 108.668Q135.879 113.443 123.457 113.443Q111.387 113.443 103.711 109.283Q96.0352 105.123 92.7539 97.2422Q89.4727 89.3613 89.4727 75.709L89.4727 26.0801L100.84 26.0801L100.84 75.6504Q100.84 86.8418 102.92 92.1445Q105 97.4473 110.068 100.318Q115.137 103.189 122.461 103.189Q135 103.189 140.332 97.5059Q145.664 91.8223 145.664 75.6504L145.664 26.0801ZM175.957 26.0801L175.957 111.979L187.324 111.979L187.324 77.0566L209.355 77.0566Q227.578 77.0566 234.551 69.4688Q241.523 61.8809 241.523 50.9238Q241.523 44.5371 238.916 39.2051Q236.309 33.8731 232.031 30.9141Q227.754 27.9551 221.426 26.9004Q216.914 26.0801 208.359 26.0801L175.957 26.0801ZM209.531 66.9199L187.324 66.9199L187.324 36.2168L209.297 36.2168Q217.031 36.2168 219.902 36.9785Q224.355 38.209 227.08 42.0469Q229.805 45.8848 229.805 51.2754Q229.805 58.7168 225.176 62.8184Q220.547 66.9199 209.531 66.9199Z" />
    </g>
    <path d="M0 1L470 1" transform="translate(24 511)" fill="none" stroke="#000000" stroke-width="20" />
    <path d="M0 1L120 1" transform="translate(856 511)" fill="none" stroke="#000000" stroke-width="20" />
  </g>
</svg>
