<svg xmlns="http://www.w3.org/2000/svg" version="1.2" viewBox="0 0 40 40" width="40" height="40">
  <path d="M26.25 28.57C28.74 28.46 30.4 28.25 31.25 27.92C32.52 27.42 34.17 26.23 34.67 24.58C35.17 22.94 35.71 19.72 35.58 18.25C35.46 16.78 35.13 14.39 32.5 12.87C29.87 11.36 28.44 11.47 25 11.43C21.56 11.39 21.25 11.77 17.5 12.03C13.75 12.3 14.84 12.38 10 12.5C5.16 12.62 4.13 15.4 4.49 19.53C4.84 23.65 5.66 24.63 9.08 26.51C11.36 27.76 14.17 28.38 17.5 28.36" id="b1D4DqgWuF" opacity="1" fill-opacity="0" stroke="black" stroke-width="1" stroke-opacity="1"></path>
  <text id="b1APhTVyh9" x="22" y="31" text-anchor="middle" font-size="8" font-family="Arial" font-weight="bold" stroke-width="2" stroke="none" fill="black">X</text>
</svg>
