<svg xmlns="http://www.w3.org/2000/svg" version="1.2" viewBox="0 0 1024 1024">
  <g>
    <g transform="translate(352 408)">
      <path d="M13.3594 39.1201L13.3594 167.968L29.7949 167.968L29.7949 58.2803L67.0605 167.968L82.4414 167.968L119.883 60.126L119.883 167.968L136.318 167.968L136.318 39.1201L113.379 39.1201L82.5293 128.769Q77.8711 142.392 75.6738 149.423Q73.7402 143.095 69.5215 130.351L39.0234 39.1201L13.3594 39.1201ZM152.139 39.1201L186.328 167.968L203.73 167.968L231.064 69.7939Q232.822 63.5537 234.844 54.6768Q235.459 57.4893 238.887 69.7939L266.045 167.968L282.48 167.968L317.813 39.1201L300.674 39.1201L280.459 121.913Q276.504 137.733 274.043 149.95Q270.967 128.593 264.023 104.335L245.566 39.1201L225 39.1201L200.479 126.132Q199.6 129.296 194.678 149.95Q192.393 136.854 189.229 123.583L169.629 39.1201L152.139 39.1201Z" />
    </g>
    <path d="M0 0L944 0L944 687L0 687L0 0Z" transform="translate(40 168.999)" fill="none" stroke="#000000" stroke-width="20" />
  </g>
</svg>
