<svg viewBox="0 0 1024 1024">
  <g>
    <path d="M6.69996 278.313C31.0731 92.7564 209.504 -78.7002 537.869 38.2886C866.233 155.277 939.478 283.763 957.869 341.789C976.26 399.815 935.259 503.261 820.873 579.812C706.487 656.362 572.003 594.458 477.553 574.823C398.365 558.361 305.172 640.229 215.369 629.289C18.4558 605.291 -17.6732 463.87 6.69996 278.313Z" transform="translate(30.13062 197.7114)" fill="none" stroke="#000000" stroke-width="20" />
    <g transform="translate(262 409)">
      <path d="M13.8867 39.1201L13.8867 167.968L60.3809 167.968Q72.0703 167.968 81.0791 165.771Q90.0879 163.573 96.46 159.311Q102.832 155.048 108.193 147.621Q113.555 140.194 116.982 128.856Q120.41 117.519 120.41 102.841Q120.41 85.6143 115.356 72.2109Q110.303 58.8076 100.107 50.1943Q92.2851 43.5146 81.2109 40.9658Q73.3008 39.1201 58.2715 39.1201L13.8867 39.1201ZM143.877 39.1201L143.877 167.968L160.928 167.968L160.928 115.585L193.975 115.585Q221.309 115.585 231.768 104.203Q242.227 92.8213 242.227 76.3857Q242.227 66.8057 238.315 58.8076Q234.404 50.8096 227.988 46.3711Q221.572 41.9326 212.08 40.3506Q205.313 39.1201 192.48 39.1201L143.877 39.1201ZM264.199 167.968L264.199 39.1201L321.328 39.1201Q338.555 39.1201 347.52 42.5918Q356.484 46.0635 361.846 54.8525Q367.207 63.6416 367.207 74.2764Q367.207 87.9873 358.33 97.3916Q349.453 106.796 330.908 109.345Q337.676 112.597 341.191 115.761Q348.662 122.616 355.342 132.899L377.754 167.968L356.309 167.968L339.258 141.161Q331.787 129.56 326.953 123.407Q322.119 117.255 318.296 114.794Q314.473 112.333 310.518 111.366Q307.617 110.751 301.025 110.751L281.25 110.751L281.25 167.968L264.199 167.968ZM394.277 39.1201L394.277 167.968L490.43 167.968L490.43 152.763L411.328 152.763L411.328 108.905L482.607 108.905L482.607 93.7881L411.328 93.7881L411.328 54.3252L487.441 54.3252L487.441 39.1201L394.277 39.1201ZM281.25 95.9854L317.9 95.9854Q329.59 95.9854 336.182 93.5684Q342.773 91.1514 346.201 85.834Q349.629 80.5166 349.629 74.2764Q349.629 65.1357 342.993 59.2471Q336.357 53.3584 322.031 53.3584L281.25 53.3584L281.25 95.9854ZM58.4473 152.763L30.9375 152.763L30.9375 54.3252L58.0078 54.3252Q73.2129 54.3252 80.0684 56.9619Q89.5605 60.6533 96.1963 71.5078Q102.832 82.3623 102.832 102.577Q102.832 117.167 99.4482 127.406Q96.0645 137.646 90 143.71Q85.6934 148.017 78.4424 150.39Q71.1914 152.763 58.4473 152.763ZM194.238 100.38L160.928 100.38L160.928 54.3252L193.887 54.3252Q205.488 54.3252 209.795 55.4678Q216.475 57.3135 220.562 63.0703Q224.648 68.8272 224.648 76.9131Q224.648 88.0752 217.705 94.2275Q210.762 100.38 194.238 100.38Z" />
    </g>
  </g>
</svg>
