<svg viewBox="0 0 1024 1024">
  <g>
    <path d="M6.69996 278.313C31.0731 92.7564 209.504 -78.7002 537.869 38.2886C866.233 155.277 939.478 283.763 957.869 341.789C976.26 399.815 935.259 503.261 820.873 579.812C706.487 656.362 572.003 594.458 477.553 574.823C398.365 558.361 305.172 640.229 215.369 629.289C18.4558 605.291 -17.6732 463.87 6.69996 278.313Z" transform="translate(30.13062 197.7114)" fill="none" stroke="#000000" stroke-width="20" />
    <g transform="translate(327.6738 408)">
      <path d="M13.8867 167.968L13.8867 39.1201L62.4902 39.1201Q75.3223 39.1201 82.0898 40.3506Q91.582 41.9326 97.998 46.3711Q104.414 50.8096 108.325 58.8076Q112.236 66.8057 112.236 76.3857Q112.236 92.8213 101.777 104.203Q91.3184 115.585 63.9844 115.585L30.9375 115.585L30.9375 167.968L13.8867 167.968ZM134.121 39.1201L235.459 39.1201L235.459 167.968L218.32 167.968L218.32 54.3252L151.172 54.3252L151.172 167.968L134.121 167.968L134.121 39.1201ZM347.695 39.1201L264.111 39.1201L264.111 167.968L314.561 167.968Q335.303 167.968 343.916 162.606Q352.529 157.245 356.88 148.764Q361.23 140.282 361.23 130.526Q361.23 118.573 355.166 109.564Q349.102 100.556 339.038 97.3037Q328.975 94.0518 311.924 94.0518L281.162 94.0518L281.162 54.3252L347.695 54.3252L347.695 39.1201ZM30.9375 100.38L64.248 100.38Q80.7715 100.38 87.7148 94.2275Q94.6582 88.0752 94.6582 76.9131Q94.6582 68.8272 90.5713 63.0703Q86.4844 57.3135 79.8047 55.4678Q75.498 54.3252 63.8965 54.3252L30.9375 54.3252L30.9375 100.38ZM315.264 153.466L281.162 153.466L281.162 108.729L303.926 108.729Q320.889 108.729 327.92 110.487Q334.951 112.245 338.906 117.606Q342.861 122.968 342.861 130.966Q342.861 142.216 335.962 147.841Q329.063 153.466 315.264 153.466Z" />
    </g>
  </g>
</svg>
