<svg xmlns="http://www.w3.org/2000/svg" version="1.2" viewBox="0 0 1024 1024">
  <g>
    <g transform="translate(387 408)">
      <path d="M13.8867 39.1201L13.8867 167.968L30.9375 167.968L30.9375 115.585L63.9844 115.585Q91.3184 115.585 101.777 104.203Q112.236 92.8213 112.236 76.3857Q112.236 66.8057 108.325 58.8076Q104.414 50.8096 97.998 46.3711Q91.582 41.9326 82.0898 40.3506Q75.3223 39.1201 62.4902 39.1201L13.8867 39.1201ZM235.459 39.1201L134.121 39.1201L134.121 167.968L151.172 167.968L151.172 54.3252L218.32 54.3252L218.32 167.968L235.459 167.968L235.459 39.1201ZM64.248 100.38L30.9375 100.38L30.9375 54.3252L63.8965 54.3252Q75.498 54.3252 79.8047 55.4678Q86.4844 57.3135 90.5713 63.0703Q94.6582 68.8272 94.6582 76.9131Q94.6582 88.0752 87.7148 94.2275Q80.7715 100.38 64.248 100.38Z" />
    </g>
    <path d="M0 0L944 0L944 687L0 687L0 0Z" transform="translate(40 168.999)" fill="none" stroke="#000000" stroke-width="20" />
  </g>
</svg>
