<svg xmlns="http://www.w3.org/2000/svg" version="1.2" viewBox="0 0 1024 1024">
  <g>
    <path d="M0 0L96 167.999" transform="translate(72 428.999)" fill="none" stroke="#000000" stroke-width="20" />
    <path d="M0 0L96 167.999" transform="matrix(-1 0 0 1 168 428.999)" fill="none" stroke="#000000" stroke-width="20" />
    <path d="M0 0L96 167.999" transform="translate(185 428.999)" fill="none" stroke="#000000" stroke-width="20" />
    <path d="M0 0L96 167.999" transform="matrix(-1 0 0 1 281 428.999)" fill="none" stroke="#000000" stroke-width="20" />
    <path d="M0 0L96 167.999" transform="translate(519 428)" fill="none" stroke="#000000" stroke-width="20" />
    <path d="M0 0L96 167.999" transform="matrix(-1 0 0 1 615 428)" fill="none" stroke="#000000" stroke-width="20" />
    <path d="M0 0L96 167.999" transform="translate(631.999 427.999)" fill="none" stroke="#000000" stroke-width="20" />
    <path d="M0 0L96 167.999" transform="matrix(-1 0 0 1 727.999 427.999)" fill="none" stroke="#000000" stroke-width="20" />
    <path d="M0 0L96 167.999" transform="translate(744.999 428)" fill="none" stroke="#000000" stroke-width="20" />
    <path d="M0 0L96 167.999" transform="matrix(-1 0 0 1 840.999 428)" fill="none" stroke="#000000" stroke-width="20" />
    <path d="M0 0L96 167.999" transform="translate(857.998 427.999)" fill="none" stroke="#000000" stroke-width="20" />
    <path d="M0 0L96 167.999" transform="matrix(-1 0 0 1 953.998 427.999)" fill="none" stroke="#000000" stroke-width="20" />
    <path d="M0 0L96 167.999" transform="translate(291.999 428)" fill="none" stroke="#000000" stroke-width="20" />
    <path d="M0 0L96 167.999" transform="matrix(-1 0 0 1 387.999 428)" fill="none" stroke="#000000" stroke-width="20" />
    <path d="M0 0L96 167.999" transform="translate(404.998 427.999)" fill="none" stroke="#000000" stroke-width="20" />
    <path d="M0 0L96 167.999" transform="matrix(-1 0 0 1 500.998 427.999)" fill="none" stroke="#000000" stroke-width="20" />
    <path d="M0 1L976 1" transform="translate(24 600)" fill="none" stroke="#000000" stroke-width="20" />
    <path d="M0 1L976 1" transform="translate(23 424)" fill="none" stroke="#000000" stroke-width="20" />
  </g>
</svg>
