<svg viewBox="0 0 1024 1024">
  <g>
    <path d="M6.69996 278.313C31.0731 92.7564 209.504 -78.7002 537.869 38.2886C866.233 155.277 939.478 283.763 957.869 341.789C976.26 399.815 935.259 503.261 820.873 579.812C706.487 656.362 572.003 594.458 477.553 574.823C398.365 558.361 305.172 640.229 215.369 629.289C18.4558 605.291 -17.6732 463.87 6.69996 278.313Z" transform="translate(30.13062 197.7114)" fill="none" stroke="#000000" stroke-width="20" />
    <g transform="translate(356.8828 409)">
      <path d="M25.5762 39.1201L103.975 39.1201L103.975 152.763L115.576 152.763L115.576 198.026L100.371 198.026L100.371 167.968L15.2051 167.968L15.2051 198.026L0 198.026L0 152.763L10.0195 152.763Q25.5762 129.296 25.5762 57.9287L25.5762 39.1201ZM86.9238 54.3252L42.0117 54.3252L42.0117 60.917Q42.0117 77.3525 39.0674 105.873Q36.123 134.394 27.5098 152.763L86.9238 152.763L86.9238 54.3252ZM197.666 137.909L214.014 139.931Q210.146 154.257 199.688 162.167Q189.229 170.077 172.969 170.077Q152.49 170.077 140.493 157.465Q128.496 144.853 128.496 122.089Q128.496 98.5342 140.625 85.5264Q152.754 72.5186 172.09 72.5186Q190.811 72.5186 202.676 85.2627Q214.541 98.0068 214.541 121.122Q214.541 122.528 214.453 125.341L144.844 125.341Q145.723 140.722 153.545 148.896Q161.367 157.069 173.057 157.069Q181.758 157.069 187.91 152.499Q194.063 147.929 197.666 137.909ZM310.342 135.8L294.785 133.778Q293.115 145.644 286.875 151.356Q280.635 157.069 271.318 157.069Q259.717 157.069 252.51 148.544Q245.303 140.019 245.303 121.21Q245.303 102.665 252.773 94.0957Q260.244 85.5264 272.197 85.5264Q280.107 85.5264 285.688 90.2725Q291.27 95.0186 293.467 104.423L308.848 102.05Q306.123 87.8994 296.455 80.209Q286.787 72.5186 271.582 72.5186Q259.541 72.5186 249.302 78.1875Q239.063 83.8565 234.053 95.1943Q229.043 106.532 229.043 121.649Q229.043 145.028 240.688 157.553Q252.334 170.077 271.494 170.077Q286.787 170.077 297.29 160.98Q307.793 151.884 310.342 135.8ZM145.723 112.333L197.842 112.333Q196.787 100.556 191.865 94.667Q184.307 85.5264 172.266 85.5264Q161.367 85.5264 153.94 92.8213Q146.514 100.116 145.723 112.333Z" />
    </g>
  </g>
</svg>
