<svg viewBox="0 0 1024 1024">
  <g>
    <path d="M6.69996 278.313C31.0731 92.7564 209.504 -78.7002 537.869 38.2886C866.233 155.277 939.478 283.763 957.869 341.789C976.26 399.815 935.259 503.261 820.873 579.812C706.487 656.362 572.003 594.458 477.553 574.823C398.365 558.361 305.172 640.229 215.369 629.289C18.4558 605.291 -17.6732 463.87 6.69996 278.313Z" transform="translate(30.13062 197.7114)" fill="none" stroke="#000000" stroke-width="20" />
    <g transform="translate(272 409)">
      <path d="M13.3594 39.1201L13.3594 167.968L29.7949 167.968L29.7949 58.2803L67.0605 167.968L82.4414 167.968L119.883 60.126L119.883 167.968L136.318 167.968L136.318 39.1201L113.379 39.1201L82.5293 128.769Q77.8711 142.392 75.6738 149.423Q73.7402 143.095 69.5215 130.351L39.0234 39.1201L13.3594 39.1201ZM265.342 39.1201L164.004 39.1201L164.004 167.968L181.055 167.968L181.055 54.3252L248.203 54.3252L248.203 167.968L265.342 167.968L265.342 39.1201ZM285.293 121.298Q285.293 95.3701 299.707 82.8896Q311.748 72.5186 329.063 72.5186Q348.311 72.5186 360.527 85.1309Q372.744 97.7432 372.744 119.979Q372.744 137.997 367.339 148.324Q361.934 158.651 351.606 164.364Q341.279 170.077 329.063 170.077Q309.463 170.077 297.378 157.509Q285.293 144.94 285.293 121.298ZM467.754 135.8L452.197 133.778Q450.527 145.644 444.287 151.356Q438.047 157.069 428.73 157.069Q417.129 157.069 409.922 148.544Q402.715 140.019 402.715 121.21Q402.715 102.665 410.186 94.0957Q417.656 85.5264 429.609 85.5264Q437.52 85.5264 443.101 90.2725Q448.682 95.0186 450.879 104.423L466.26 102.05Q463.535 87.8994 453.867 80.209Q444.199 72.5186 428.994 72.5186Q416.953 72.5186 406.714 78.1875Q396.475 83.8565 391.465 95.1943Q386.455 106.532 386.455 121.649Q386.455 145.028 398.101 157.553Q409.746 170.077 428.906 170.077Q444.199 170.077 454.702 160.98Q465.205 151.884 467.754 135.8ZM301.553 121.298Q301.553 139.228 309.375 148.148Q317.197 157.069 329.063 157.069Q340.84 157.069 348.662 148.104Q356.484 139.14 356.484 120.771Q356.484 103.456 348.618 94.5352Q340.752 85.6143 329.063 85.6143Q317.197 85.6143 309.375 94.4912Q301.553 103.368 301.553 121.298Z" />
    </g>
  </g>
</svg>
