<svg xmlns="http://www.w3.org/2000/svg" version="1.2" viewBox="0 0 1024 1024">
  <g>
    <path d="M0 96.2398L91.411 0L158.311 115.678" transform="matrix(0.1218693 0.9925461 -0.9925461 0.1218693 906.0225 421.2712)" fill="none" stroke="#000000" stroke-width="20" />
    <g transform="translate(356 443)">
      <path d="M9.84375 111.979L9.84375 26.0801L67.793 26.0801L67.793 36.2168L21.2109 36.2168L21.2109 62.8184L61.5234 62.8184L61.5234 72.9551L21.2109 72.9551L21.2109 111.979L9.84375 111.979ZM82.793 111.979L82.793 26.0801L144.902 26.0801L144.902 36.2168L94.1602 36.2168L94.1602 62.5254L141.68 62.5254L141.68 72.6035L94.1602 72.6035L94.1602 101.842L146.895 101.842L146.895 111.979L82.793 111.979ZM164.531 26.0801L164.531 111.979L175.898 111.979L175.898 26.0801L164.531 26.0801ZM195.82 111.979L195.82 26.0801L207.48 26.0801L252.598 93.5215L252.598 26.0801L263.496 26.0801L263.496 111.979L251.836 111.979L206.719 44.4785L206.719 111.979L195.82 111.979ZM304.453 36.2168L304.453 111.979L315.82 111.979L315.82 36.2168L344.238 36.2168L344.238 26.0801L276.152 26.0801L276.152 36.2168L304.453 36.2168Z" />
    </g>
    <path d="M0 1L290 1" transform="translate(24 510.0002)" id="Line" fill="none" stroke="#000000" stroke-width="20" />
    <path d="M0 0L52.0775 39.7026" transform="matrix(1 0 0 -1 807.5513 648.0002)" fill="none" stroke="#000000" stroke-width="20" />
    <path d="M0 0L50.7742 39.3409" transform="matrix(1 0 0 -1 874.8608 595.3794)" fill="none" stroke="#000000" stroke-width="20" />
    <path d="M0 0L52.0775 39.7026" transform="translate(808.1289 376.0002)" fill="none" stroke="#000000" stroke-width="20" />
    <path d="M0 0L50.7742 39.3409" transform="translate(875.4385 428.6211)" fill="none" stroke="#000000" stroke-width="20" />
    <g transform="translate(938.5703 479.5051)">
      <path d="M0 0L42.801 29.6822L3.02996 62.7551" transform="matrix(0.9986295 -0.05233596 -0.05233596 -0.9986295 3.284179 64.90894)" fill="none" stroke="#000000" stroke-width="20" />
    </g>
    <path d="M0 1L167 1" transform="translate(737 510)" fill="none" stroke="#000000" stroke-width="20" />
  </g>
</svg>
