<svg xmlns="http://www.w3.org/2000/svg" version="1.2" viewBox="0 0 1024 1024">
  <g>
    <path d="M445.389 398.907L519.974 16.4425C519.974 16.4425 402.861 -15.302 243.323 9.42531C83.7847 34.1527 0 93.2415 0 93.2415L180.886 438.396" transform="matrix(0.9612617 0.2756374 -0.2756374 0.9612617 376.2012 122.3702)" fill="none" stroke="#000000" stroke-width="20" />
    <path d="M248 0L496 312C496 312 399.784 400.444 247.999 400C96.2153 399.557 0 312 0 312L248 0Z" transform="matrix(-1 8.742278E-08 -8.742278E-08 -1 759.9995 984)" fill="none" stroke="#000000" stroke-width="20" />
    <path d="M1 0L1 896" transform="translate(511 80)" fill="none" stroke="#000000" stroke-width="20" />
    <path d="M41 0L82 72L0 72L41 0Z" transform="translate(471.0005 28)" fill="#000000" stroke="none" />
  </g>
</svg>
