<svg xmlns="http://www.w3.org/2000/svg" version="1.2" viewBox="0 0 40 40" width="40" height="40">
  <path d="M22.5 10.13L24.65 14.22L26.88 14.64L31.4 12.01L31.06 17.05L31.72 18.67L36.38 20.77L31.72 22.58L31.09 23.99L31.88 29.02L27.11 26.22L24.64 26.53L22.27 31.52L19.75 26.72L17.23 26.66L13.75 31.03L12.35 26.33L10.38 25.8L4.5 26.56L7.81 21.75L7.89 19.77L4.54 15.69L10 16.4L12.19 15.2L13.03 10.49L16.88 14.26L19.95 14.11L22.5 10.13Z" id="b4X85oLIlX" opacity="1" fill-opacity="0" stroke="black" stroke-width="1" stroke-opacity="1"></path>
  <path d="M31.91 20.68C31.91 25.75 28.25 26.68 20 26.68C11.75 26.68 7.82 26.32 7.82 21.25C7.82 16.18 12.25 14.14 20.5 14.14C28.75 14.14 31.91 15.61 31.91 20.68Z" id="aqT0mwAPn" opacity="1" fill-opacity="0" stroke="black" stroke-width="1" stroke-opacity="1"></path>
</svg>
