<svg xmlns="http://www.w3.org/2000/svg" version="1.2" viewBox="0 0 40 40" width="40" height="40">
  <path d="M22.34 28.45C10.29 28.07 7.54 26.18 6.53 25C5.52 23.82 4.34 21.36 4.38 19.67C4.43 16.85 4.78 14.23 6.25 13.18C7.72 12.13 9.81 12.94 20.43 11.76C31.04 10.59 35.48 12.5 35.45 19.14C35.43 25.77 34.39 28.84 22.34 28.45Z" id="c1pKxzrNOZ" opacity="1" fill-opacity="0" stroke="black" stroke-width="1" stroke-opacity="1"></path>
  <path d="M35.36 20.82L28.18 28" id="i3cNU6fy3G" opacity="1" fill-opacity="0" stroke="black" stroke-width="1" stroke-opacity="1"></path>
  <path d="M34.82 15.82L22.5 28.27" id="b25opBrIfK" opacity="1" fill-opacity="0" stroke="black" stroke-width="1" stroke-opacity="1"></path>
  <path d="M32.73 12.82L17.18 28.09" id="ideb0ARpv" opacity="1" fill-opacity="0" stroke="black" stroke-width="1" stroke-opacity="1"></path>
  <path d="M28.27 11.73L12.5 27.18" id="b6UsRC1zMV" opacity="1" fill-opacity="0" stroke="black" stroke-width="1" stroke-opacity="1"></path>
  <path d="M22.82 11.55L8.27 26" id="bMK0JxwX0" opacity="1" fill-opacity="0" stroke="black" stroke-width="1" stroke-opacity="1"></path>
  <path d="M16.73 12.09L5.55 23.27" id="a1M04iqBHu" opacity="1" fill-opacity="0" stroke="black" stroke-width="1" stroke-opacity="1"></path>
  <path d="M4.36 19.27L10.82 12.5" id="e3ePzoLadF" opacity="1" fill-opacity="0" stroke="black" stroke-width="1" stroke-opacity="1"></path>
</svg>
