<svg xmlns="http://www.w3.org/2000/svg" version="1.2" viewBox="0 0 40 40" width="40" height="40">
  <path d="M24.21 28.82C26.69 28.72 28.36 28.5 29.21 28.17C30.48 27.67 32.12 26.48 32.62 24.84C33.12 23.19 33.67 19.97 33.54 18.5C33.42 17.03 33.08 14.64 30.46 13.13C27.83 11.61 26.39 11.73 22.96 11.68C19.52 11.64 17.5 13.83 13.75 14.1C10 14.37 6.09 18.34 6.44 22.47C6.8 26.6 12.62 28.25 15.46 28.61" id="c82hu8it6" opacity="1" fill-opacity="0" stroke="black" stroke-width="1" stroke-opacity="1"></path>
  <path d="M12.15 28.23L10.82 32.27" id="c13gJXmM95" opacity="1" fill-opacity="0" stroke="black" stroke-width="1" stroke-opacity="1"></path>
  <path d="M8.64 26.49L6.25 30" id="e1VOopX7Pa" opacity="1" fill-opacity="0" stroke="black" stroke-width="1" stroke-opacity="1"></path>
  <path d="M6.28 23.67L2.34 25.24" id="f9HdpASv9" opacity="1" fill-opacity="0" stroke="black" stroke-width="1" stroke-opacity="1"></path>
  <path d="M6.33 20.26L2.19 19.3" id="a2aEhvfFoA" opacity="1" fill-opacity="0" stroke="black" stroke-width="1" stroke-opacity="1"></path>
  <path d="M8.13 16.81L4.76 14.23" id="a5zSazTHts" opacity="1" fill-opacity="0" stroke="black" stroke-width="1" stroke-opacity="1"></path>
  <path d="M11.09 14.46L9.16 10.68" id="eo1EEloln" opacity="1" fill-opacity="0" stroke="black" stroke-width="1" stroke-opacity="1"></path>
  <path d="M15.05 13.58L14.23 9.42" id="k1GThCoaeU" opacity="1" fill-opacity="0" stroke="black" stroke-width="1" stroke-opacity="1"></path>
  <path d="M19.44 12.01L18.06 7.99" id="b1lDM2yj0O" opacity="1" fill-opacity="0" stroke="black" stroke-width="1" stroke-opacity="1"></path>
  <path d="M23.44 11.31L23.43 7.06" id="fzwy5O4nY" opacity="1" fill-opacity="0" stroke="black" stroke-width="1" stroke-opacity="1"></path>
  <path d="M27.35 11.56L28.13 7.39" id="c4sgBVgZZJ" opacity="1" fill-opacity="0" stroke="black" stroke-width="1" stroke-opacity="1"></path>
  <path d="M30.84 12.95L33.13 9.38" id="c1qwaNR3cy" opacity="1" fill-opacity="0" stroke="black" stroke-width="1" stroke-opacity="1"></path>
  <path d="M33.2 15.69L37.06 13.93" id="aJ8p5tUs9" opacity="1" fill-opacity="0" stroke="black" stroke-width="1" stroke-opacity="1"></path>
  <path d="M33.88 19.01L38.13 18.83" id="a36bU3Gmtv" opacity="1" fill-opacity="0" stroke="black" stroke-width="1" stroke-opacity="1"></path>
  <path d="M33.57 22.48L37.77 23.13" id="dbwfDRmZN" opacity="1" fill-opacity="0" stroke="black" stroke-width="1" stroke-opacity="1"></path>
  <path d="M32.52 25.8L36.23 27.86" id="c97oOkFMx" opacity="1" fill-opacity="0" stroke="black" stroke-width="1" stroke-opacity="1"></path>
  <path d="M29.74 28.32L31.88 32" id="jf4nvRzON" opacity="1" fill-opacity="0" stroke="black" stroke-width="1" stroke-opacity="1"></path>
  <text id="b1APhTVyh9" x="19.5" y="31.5" text-anchor="middle" font-size="8" font-family="Arial" font-weight="bold" stroke-width="2" stroke="none" fill="black">X</text>
</svg>
