<svg xmlns="http://www.w3.org/2000/svg" version="1.2" viewBox="0 0 40 40" width="40" height="40">
  <path d="M6.48 26.58L2.75 24.7L6.44 22.64L6.42 19.97L2.75 18.1L6.38 16.03L6.36 13.85L2.75 11.97L6.33 10.09L6.31 8.75L8.94 9.34L12.27 5.68L13.45 10.36L18.05 11.4L21.32 7.76L22.3 12.36L26.38 13.28L29.68 9.78L30.87 14.29L34 15L34 16.33L37.5 18.75L34 20.7L34 23.45L37.38 25.33L34 27.7L34 28.75L30.94 28.75L28.81 32.75L26.5 28.75L21.56 28.75L19.44 32.75L17.19 28.75L13.06 28.75L10.69 32.69L8.31 28.75L6.5 28.75L6.48 26.58Z" id="b2pNEu2Bmh" stroke-width="1" stroke="black" fill="none" fill-opacity="1"></path>
</svg>
