<svg xmlns="http://www.w3.org/2000/svg" version="1.2" viewBox="0 0 40 40" width="40" height="40">
  <path d="M2.5 27.06L6.94 25L2.5 22.38L2.5 17.13L7.19 15L2.5 12.63L2.5 6.25L7.61 7.56L8.4 12.67L12.26 8.76L18.99 10.49L19.68 15.71L23.52 11.66L29.25 13.13L30 18.34L34.15 14.39L37.5 15.25L37.5 20.06L32.81 22.5L37.5 24.5L37.5 27.88L33 30.19L37.5 32.25L37.5 33.75L31.31 33.75L29.25 29.25L27 33.75L21.5 33.75L19.19 29.06L17 33.75L10.88 33.75L8.75 29.13L6.38 33.75L2.5 33.75L2.5 27.06Z" id="a3CrIHRf5Y" stroke-width="1" stroke="black" fill="none" fill-opacity="1"></path>
</svg>
