<svg xmlns="http://www.w3.org/2000/svg" version="1.2" viewBox="0 0 40 40" width="40" height="40">
  <path d="M3.75 5L25 5L37.22 17.75L32.5 36.25L4.23 31.5L3.75 5Z" id="fCXA1CInY" opacity="1" fill-opacity="0" stroke="black" stroke-width="1" stroke-opacity="1"></path>
  <path d="M32 11.57L28.51 15.44" id="b7lJvNVyu" opacity="1" fill-opacity="0" stroke="black" stroke-width="1" stroke-opacity="1"></path>
<path d="M36.06 22.15L24.55 35" id="cciczlUQi" opacity="1" fill-opacity="0" stroke="black" stroke-width="1" stroke-opacity="1"></path>
<path d="M28.34 8.55L23.19 14.44" id="i1bBBass9k" opacity="1" fill-opacity="0" stroke="black" stroke-width="1" stroke-opacity="1"></path>
<path d="M25.16 5L16.39 14.39" id="b11hERl5ZB" opacity="1" fill-opacity="0" stroke="black" stroke-width="1" stroke-opacity="1"></path>
<path d="M19.2 5L4.22 20.48" id="b2mW8uL9U4" opacity="1" fill-opacity="0" stroke="black" stroke-width="1" stroke-opacity="1"></path>
<path d="M13.24 5.13L3.99 14.69" id="bH7eaAFX" opacity="1" fill-opacity="0" stroke="black" stroke-width="1" stroke-opacity="1"></path>
<path d="M3.75 9.75L8.33 4.85" id="bVCUNDmvQ" opacity="1" fill-opacity="0" stroke="black" stroke-width="1" stroke-opacity="1"></path>
<path d="M33.49 32.31L30 35.93" id="a1DxcwBLhK" opacity="1" fill-opacity="0" stroke="black" stroke-width="1" stroke-opacity="1"></path>
<path d="M26.25 25.62L18.75 33.75" id="gkSb7NYls" opacity="1" fill-opacity="0" stroke="black" stroke-width="1" stroke-opacity="1"></path>
<path d="M19.68 25.38L12.82 32.77" id="a2BE5TCTFA" opacity="1" fill-opacity="0" stroke="black" stroke-width="1" stroke-opacity="1"></path>
<path d="M13.5 25.16L7.5 31.78" id="b33dxYPIG0" opacity="1" fill-opacity="0" stroke="black" stroke-width="1" stroke-opacity="1"></path>
<path d="M4.13 27.75L8.95 22.85" id="a6lImmqKy" opacity="1" fill-opacity="0" stroke="black" stroke-width="1" stroke-opacity="1"></path>
<path d="M35 15.76L31.51 19.63" id="by9x4lvfF" opacity="1" fill-opacity="0" stroke="black" stroke-width="1" stroke-opacity="1"></path>
  <text id="b1APhTVyh9" x="20" y="23" text-anchor="middle" font-size="8" font-family="Arial" font-weight="bold" stroke-width="2" stroke="none" fill="black">WFZ</text>
</svg>
