<svg xmlns="http://www.w3.org/2000/svg" version="1.2" viewBox="0 0 40 40" width="40" height="40">
  <path d="M5.01 5.8C6.57 4.27 22.71 3.52 25.26 5.26C27.81 6.99 34.24 11.64 36.11 19.46C37.99 27.27 34.67 31.84 27.12 34.6C19.58 37.35 9.97 34.8 5.94 30.48C1.91 26.17 3.45 7.34 5.01 5.8Z" id="c15D02ApuO" opacity="1" fill-opacity="0" stroke="black" stroke-width="1" stroke-opacity="1"></path>
<path d="M32.26 11.82L28.76 15.69" id="c2d2nV3YXx" opacity="1" fill-opacity="0" stroke="black" stroke-width="1" stroke-opacity="1"></path>
<path d="M36.32 22.4L24.81 35.26" id="d5YuT8hsHh" opacity="1" fill-opacity="0" stroke="black" stroke-width="1" stroke-opacity="1"></path>
<path d="M29.05 8.17L23.45 14.7" id="a24uDiOBJ7" opacity="1" fill-opacity="0" stroke="black" stroke-width="1" stroke-opacity="1"></path>
<path d="M25.42 5.26L16.64 14.65" id="erAXgJAVV" opacity="1" fill-opacity="0" stroke="black" stroke-width="1" stroke-opacity="1"></path>
<path d="M20.28 4.44L3.75 21.55" id="c2CqjJqLwa" opacity="1" fill-opacity="0" stroke="black" stroke-width="1" stroke-opacity="1"></path>
<path d="M14.77 4.3L3.43 15.76" id="gsrSe1FAu" opacity="1" fill-opacity="0" stroke="black" stroke-width="1" stroke-opacity="1"></path>
<path d="M4.01 10.01L9.04 4.75" id="a7vAANyzqW" opacity="1" fill-opacity="0" stroke="black" stroke-width="1" stroke-opacity="1"></path>
<path d="M26.51 25.88L17.92 35.37" id="b1D7lOQEgu" opacity="1" fill-opacity="0" stroke="black" stroke-width="1" stroke-opacity="1"></path>
<path d="M19.94 25.63L12.26 34.02" id="a2MVzBsxER" opacity="1" fill-opacity="0" stroke="black" stroke-width="1" stroke-opacity="1"></path>
<path d="M13.76 25.42L7.76 32.03" id="c14Nh1UmV8" opacity="1" fill-opacity="0" stroke="black" stroke-width="1" stroke-opacity="1"></path>
<path d="M4.38 28.01L9.21 23.11" id="a4GIrhTvwi" opacity="1" fill-opacity="0" stroke="black" stroke-width="1" stroke-opacity="1"></path>
<path d="M35.26 16.01L31.76 19.88" id="d2pRpNfuen" opacity="1" fill-opacity="0" stroke="black" stroke-width="1" stroke-opacity="1"></path>
  <text id="b1APhTVyh9" x="20.5" y="23.5" text-anchor="middle" font-size="9" font-family="Arial" font-weight="bold" stroke-width="2" stroke="none" fill="black">NFA</text>
</svg>
