<svg xmlns="http://www.w3.org/2000/svg" version="1.2" viewBox="0 0 40 40" width="40" height="40">
  <path d="M19.81 11.07L24.66 11.15L24.65 14.22L26.88 14.83L28.3 12.05L32.5 14.45L31.06 17.06L32.21 18.6L34.88 18.58L34.93 22.59L32 22.66L31.25 23.9L32.91 26.39L28.54 28.75L27.05 26.15L24.64 26.48L24.85 29.77L19.75 30L19.72 26.97L17.18 26.74L16.36 29.67L11.47 28.5L12.62 25.63L10.35 24.6L7.69 26.66L5.19 23.48L7.8 21.62L7.69 19.7L5.16 18.26L7.12 14.87L9.88 16.62L12.25 15.34L11 12.5L15.47 11.01L16.69 13.92L19.84 13.91L19.81 11.07Z" id="aasfkJ8CG" opacity="1" fill-opacity="0" stroke="black" stroke-width="1" stroke-opacity="1"></path>
</svg>
