<svg xmlns="http://www.w3.org/2000/svg" version="1.2" viewBox="0 0 40 40" width="40" height="40">
  <path d="M2.5 27.06L6.94 25L2.5 22.38L2.5 17.13L7.19 15L2.5 12.63L2.5 6.25L7.61 7.56L8.4 12.67L12.26 8.76L18.99 10.49L19.68 15.71L23.52 11.66L29.25 13.13L30 18.34L34.15 14.39L37.5 15.25L37.5 20.06L32.81 22.5L37.5 24.5L37.5 27.88L33 30.19L37.5 32.25L37.5 33.75L31.31 33.75L29.25 29.25L27 33.75L21.5 33.75L19.19 29.06L17 33.75L10.88 33.75L8.75 29.13L6.38 33.75L2.5 33.75L2.5 27.06Z" id="cyEIxNodp" stroke-width="1" stroke="black" fill="none" fill-opacity="1"></path>
<path d="M6.25 7.18L2.5 11" id="adobFu8oO" stroke-width="1" stroke="black" fill="none" fill-opacity="1"></path>
<path d="M8.09 10.64L5 13.75" id="a1hQIJys4b" stroke-width="1" stroke="black" fill="none" fill-opacity="1"></path>
<path d="M15 9.45L2.5 22" id="aGJRiHYGL" stroke-width="1" stroke="black" fill="none" fill-opacity="1"></path>
<path d="M5.55 24.09L19.09 11" id="atGzKKml" stroke-width="1" stroke="black" fill="none" fill-opacity="1"></path>
<path d="M2.5 32.73L19.44 15.78" id="b7105gZgmd" stroke-width="1" stroke="black" fill="none" fill-opacity="1"></path>
<path d="M9.82 31.25L28.09 12.82" id="b1R3j9VPci" stroke-width="1" stroke="black" fill="none" fill-opacity="1"></path>
<path d="M12.5 33.75L29.73 16.55" id="cvbMZgu0B" stroke-width="1" stroke="black" fill="none" fill-opacity="1"></path>
<path d="M37.27 15.27L20.55 31.64" id="f4F8QxFTX" stroke-width="1" stroke="black" fill="none" fill-opacity="1"></path>
<path d="M34.55 23.45L24.27 33.75" id="agymYnIjo" stroke-width="1" stroke="black" fill="none" fill-opacity="1"></path>
<path d="M37.5 25.47L30.82 32.03" id="aJU5SuD8f" stroke-width="1" stroke="black" fill="none" fill-opacity="1"></path>
<path d="M34.64 33.75L36.56 31.81" id="d18Vv6w9FR" stroke-width="1" stroke="black" fill="none" fill-opacity="1"></path>
</svg>
