<svg xmlns="http://www.w3.org/2000/svg" version="1.2" viewBox="0 0 40 40" width="40" height="40">
  <path d="M9.38 20.63C9.38 23.11 8.08 25 6.83 25C5.58 25 4.38 23.11 4.38 20.63C4.38 18.14 5.58 16.25 6.83 16.25C8.08 16.25 9.38 18.14 9.38 20.63Z" id="b44zVKtyC" stroke-width="1" stroke="black" fill="none" fill-opacity="1"></path>
  <path d="M18.13 20.63C18.13 23.11 16.83 25 15.58 25C14.33 25 13.13 23.11 13.13 20.63C13.13 18.14 14.33 16.25 15.58 16.25C16.83 16.25 18.13 18.14 18.13 20.63Z" id="a5oH3szzcv" stroke-width="1" stroke="black" fill="none" fill-opacity="1"></path>
  <path d="M26.88 20.63C26.88 23.11 25.58 25 24.33 25C23.08 25 21.88 23.11 21.88 20.63C21.88 18.14 23.13 16.25 24.38 16.25C25.63 16.25 26.88 18.14 26.88 20.63Z" id="b3QGhXD9eT" stroke-width="1" stroke="black" fill="none" fill-opacity="1"></path>
  <path d="M35.63 20.63C35.63 23.11 34.33 25 33.08 25C31.83 25 30.63 23.11 30.63 20.63C30.63 18.14 31.88 16.25 33.13 16.25C34.38 16.25 35.63 18.14 35.63 20.63Z" id="afrWhetmj" stroke-width="1" stroke="black" fill="none" fill-opacity="1"></path>
  <path d="M37.5 25.5L2.33 25.5" id="g4olRVMls0" stroke-width="1" stroke="black" fill="none" fill-opacity="1"></path>
  <path d="M37.5 15.5L2.33 15.5" id="g4olRVMls0" stroke-width="1" stroke="black" fill="none" fill-opacity="1"></path>
</svg>
