<svg xmlns="http://www.w3.org/2000/svg" version="1.2" viewBox="0 0 40 40" width="40" height="40">
  <path d="M4.81 11C7.28 9.07 9.57 8.42 12.87 8.08C16.3 7.72 20.83 7.7 27.82 6.94C41.52 5.43 38.51 27.01 33.25 30.86C27.99 34.72 21.72 30.4 12.34 30C2.95 29.6 -0.23 14.93 4.81 11Z" id="eDPqV0LoX" stroke-width="1" stroke="black" fill="none" fill-opacity="1"></path>
  <path d="M12.5 20.88C12.5 22.81 10.93 24.38 9 24.38C7.07 24.38 5.5 22.81 5.5 20.88C5.5 18.94 7.07 17.38 9 17.38C10.93 17.38 12.5 18.94 12.5 20.88Z" id="a4y994vGzP" stroke-width="1" stroke="black" fill="black" fill-opacity="1"></path>
  <path d="M23.75 20.88C23.75 22.81 22.18 24.38 20.25 24.38C18.32 24.38 16.75 22.81 16.75 20.88C16.75 18.94 18.32 17.38 20.25 17.38C22.18 17.38 23.75 18.94 23.75 20.88Z" id="cgckukAyw" stroke-width="1" stroke="black" fill="black" fill-opacity="1"></path>
  <path d="M34.75 20.88C34.75 22.81 33.18 24.38 31.25 24.38C29.32 24.38 27.75 22.81 27.75 20.88C27.75 18.94 29.32 17.38 31.25 17.38C33.18 17.38 34.75 18.94 34.75 20.88Z" id="b2qtEVSAkk" stroke-width="1" stroke="black" fill="black" fill-opacity="1"></path>
</svg>
